<svg xmlns="http://www.w3.org/2000/svg" viewBox="0 0 99.52 99.52">
  <title>1</title>
  <g style="isolation: isolate">
    <g id="Layer_1" data-name="Layer 1">
      <g>
        <circle cx="49.76" cy="49.76" r="49.76" style="fill: #8e44ad"/>
        <circle cx="49.76" cy="49.76" r="49.76" style="fill: #789ad0"/>
        <path d="M50.14.48c-.4,0-.8,0-1.21,0a49.74,49.74,0,0,1,0,99.46c.4,0,.8,0,1.21,0a49.76,49.76,0,1,0,0-99.52Z" transform="translate(-0.38 -0.48)" style="fill: #dce6aa"/>
        <path d="M42.52,2.63a33.24,33.24,0,0,0-5,.16c-6.86.73-14.06,5.1-19.24,9.42a50.32,50.32,0,0,0-17.92,38c0,17.88,10.19,33,25.92,41.31,5.34,2.81,14.27,3.35,20.18,2.54a37.31,37.31,0,0,0,8.68-2.49C71.81,85,78.81,66.89,78.81,49.8,78.81,28.75,65.3,3.63,42.52,2.63Z" transform="translate(-0.38 -0.48)" style="fill: #71abdd"/>
        <path d="M34.8,4.75A40.57,40.57,0,0,0,10.44,32a69.45,69.45,0,0,1,6.79-7.23c2.22-2,5.35-4.06,8-2.69s2.91,5.12,2.73,8.17a5.11,5.11,0,0,1,.59-3c.6-.86,2-1.2,2.68-.38a2.94,2.94,0,0,1,.44,1.21A9.85,9.85,0,0,0,41.8,35.48c-4.51-1.13-7.28-6.24-6.7-10.85S39,16.08,43,13.69s8.62-3.44,13.2-4.25a24.06,24.06,0,0,0-13.93,2C39,13,36,15.24,32.47,15.6c-1.29-1.22,0-3.36,1.3-4.52a26.72,26.72,0,0,1,19-6.36A34.55,34.55,0,0,0,25.67,9.43Z" transform="translate(-0.38 -0.48)" style="fill: #91d9f8"/>
        <path d="M45.3,33.9a1.45,1.45,0,0,0,.66.21c.57,0,.93-.58,1.3-1a5.43,5.43,0,0,1,3.95-1.6c1.46-.07,2.92.17,4.38.11A11.06,11.06,0,0,0,65,25.14,11.06,11.06,0,0,0,63.4,13.8c-1.8,3.18-5.29,5-8.78,6.11-2.81.86-5.78,1.33-8.39,2.68C41.11,25.24,39.6,31,45.3,33.9Z" transform="translate(-0.38 -0.48)" style="fill: #6396c1"/>
        <path d="M10.67,65.17c1.05,2.16,2.43,4.4,4.68,5.23,3.21,1.19,6.7-1,8.9-3.64S28.12,61,31,59.1c2-1.31,4.47-1.82,6.59-3,5.4-2.94,7.87-9.46,12.85-13.06-1.82-.16-3.22,1.48-4.42,2.86A31.43,31.43,0,0,1,37.13,53c.81-2.23,2.66-3.89,4-5.86s2.07-4.75.6-6.62a6,6,0,0,0-4.08-1.86c-2.67-.35-5.4-.13-8.07-.46-3.08-.38-6-1.48-9.06-2.12s-6.35-.8-9.11.61C1,42,7,57.66,10.67,65.17Z" transform="translate(-0.38 -0.48)" style="fill: #6396c1"/>
        <path d="M59.33,75.19a2.06,2.06,0,0,0,.94.41c2.06.41,4.1-.65,5.88-1.76a73,73,0,0,0,9-6.63L66,73.37a4.4,4.4,0,0,1-1.71.81,1.5,1.5,0,0,1-1.62-.74,2,2,0,0,1,.46-1.85c2.87-4,8.59-4.65,12.25-7.91.25-.22.5-.63.25-.86a.64.64,0,0,0-.48-.1,16.22,16.22,0,0,1-2,0c.25-1.65,1.58-3.42,2-5.18a41.55,41.55,0,0,0,1.24-8.43c.13-3.82-3.55-6.5-7.19-6.51a18.39,18.39,0,0,0-6.89,1.75C58.16,46.08,54,48,51.17,51.47a9,9,0,0,0-1.86,8.87A11.1,11.1,0,0,0,51.44,64c1,1.05,2.77,1.49,2.7,3.3a2.86,2.86,0,0,1-1.51,2.22,8.43,8.43,0,0,1-2.66.85c1.64.47,3.28-.53,4.86-1.17a12,12,0,0,1,5.23-.85,2,2,0,0,1,1.11.31A1.7,1.7,0,0,1,61.23,71c-.49.69-1.23,1.15-1.77,1.81a1.86,1.86,0,0,0-.25,2.31Z" transform="translate(-0.38 -0.48)" style="fill: #40134b;opacity: 0.2;mix-blend-mode: multiply"/>
        <path d="M36.33,90.41c1.49.7,7.54,0,7.68,1.88.13,1.73-2.78,1.28-3.83,1.33a24,24,0,0,1-8.72-.88A33.29,33.29,0,0,0,68.78,81.6c-2,1.81-12.29,11.85-14.57,7.61-.81-1.51,1.9-3.24,2.22-4.8A5.81,5.81,0,0,0,54.32,79,16.64,16.64,0,0,0,49,76.14L46.11,75c1.33.8,3,1.76,3.69,3.2-1.45.72-4.37-1.17-5.84-1.63a34.48,34.48,0,0,0-7.89-1.5,10.53,10.53,0,0,0-4.39.4A9.26,9.26,0,0,0,27.56,79c-1.45,2-1.73,2.65-.11,4.57A26.33,26.33,0,0,0,36.33,90.41Z" transform="translate(-0.38 -0.48)" style="fill: #40134b;opacity: 0.2;mix-blend-mode: multiply"/>
        <path d="M5.86,48.51C6.76,54,9.39,59,14.28,61.66a7.77,7.77,0,0,0,3.27,1.07,8.77,8.77,0,0,0,5-1.65c3.72-2.32,6.66-5.22,10.44-7.47,3.33-2,6.83-4.25,8.27-8a6.3,6.3,0,0,0-.14-5.32c-2.66-4.61-11-2.17-14-6.58-1.55-2.3-.86-5.44-1.77-8.06-3.26-9.4-12.71-1.74-15.8,3.23A30,30,0,0,0,5.86,48.51Z" transform="translate(-0.38 -0.48)" style="fill: #7ca141"/>
        <path d="M39,20.79c-.71,2.45-1.08,5.43.71,7.25,1.52,1.54,4,1.58,6.12,1.33a36.89,36.89,0,0,0,11.26-3.2,16.14,16.14,0,0,0,5.94-4.28A7.72,7.72,0,0,0,64.67,15,7.72,7.72,0,0,0,60,10.33a16.45,16.45,0,0,0-6.73-.82C46.1,9.84,41,13.9,39,20.79Z" transform="translate(-0.38 -0.48)" style="fill: #7ca141"/>
        <path d="M53.24,9.51C46.1,9.84,41,13.9,39,20.79c-.08.28-.16.58-.23.87.21,1.29-.25,2.72.68,3.91,1.19,1.53,3.52,1.27,5.42.87a2.55,2.55,0,0,0,.08-.88,2.72,2.72,0,0,0,2.27.66,14.58,14.58,0,0,0,4.66-1.43,1,1,0,0,0-.08-.83,3.2,3.2,0,0,0,3.71-.73,2.36,2.36,0,0,0-.09-2.91l1.91,1.35a6.09,6.09,0,0,0,1.89-6.87l-1.47.4c.85-.43,1-1.92.37-2.82s-1.81-1.69-2.36-2.78a9.18,9.18,0,0,1,5.93,5.64A27.66,27.66,0,0,0,61.34,11,9.21,9.21,0,0,0,60,10.33,16.45,16.45,0,0,0,53.24,9.51Z" transform="translate(-0.38 -0.48)" style="fill: #99b53a"/>
        <path d="M52.13,48.14c-1.77,2.32-3.44,4.94-3.48,7.86a8.93,8.93,0,0,0,3.08,6.61,12.78,12.78,0,0,0,6.79,3A16.27,16.27,0,0,0,77,48.61a11.41,11.41,0,0,0-2.44-6.8,10.34,10.34,0,0,0-9.23-3.23C59.65,39.36,55.42,43.82,52.13,48.14Z" transform="translate(-0.38 -0.48)" style="fill: #7ca141"/>
        <path d="M29.24,72.52c-2.29.63-4.43,2.44-4.69,4.81A5.93,5.93,0,0,0,26.47,82a15,15,0,0,0,4.4,2.77,32.58,32.58,0,0,0,9.57,3,15.89,15.89,0,0,0,9.76-1.67,6.1,6.1,0,0,0,3.08-3.44,5.42,5.42,0,0,0-2.06-5.34,15.93,15.93,0,0,0-5.43-2.57L40.39,73A21.71,21.71,0,0,0,29.24,72.52Z" transform="translate(-0.38 -0.48)" style="fill: #7ca141"/>
        <path d="M44.15,40.48c.93,1.66.78,3.68-1.09,5.74l-4.42,4.88A16.14,16.14,0,0,0,43,47.32c3.74-4.11,7.08-8.53,12.14-11.07.63-.49,1.32-1.25,1-2-.47-1-6.19,2.33-7.1,2.6-3.86,1.15-8.22.25-11.92-1.05a14.85,14.85,0,0,1-4.45-2.28,6.64,6.64,0,0,1-2.54-4.19c-1,2.07.48,4.62,2.49,5.76s4.39,1.33,6.62,2A8,8,0,0,1,44.15,40.48Z" transform="translate(-0.38 -0.48)" style="fill: #547fa4"/>
        <path d="M91.56,67.63a8.06,8.06,0,0,0-6.3,1.08,21.72,21.72,0,0,0-4.86,4.39,47.29,47.29,0,0,0-8,11.43c-.89,1.93-1.49,4.38-.16,6a4.76,4.76,0,0,0,4.49,1.33C81.9,91.07,102.12,70.6,91.56,67.63Z" transform="translate(-0.38 -0.48)" style="fill: #778a3e"/>
        <path d="M87.09,63.25a9,9,0,0,1-.63,1.1,2.26,2.26,0,0,1-.83.83.93.93,0,0,1-1.1-.15,1.3,1.3,0,0,1,0-1.24,3.3,3.3,0,0,0,.36-1.24c0-.43-.4-.89-.82-.77a1,1,0,0,0-.46.38,7,7,0,0,0-1,1.76.85.85,0,0,1-.27.43c-.3.2-.69-.08-.88-.39a4.47,4.47,0,0,1-.34-2.7l1-10.47-.93,6.85c-.12.91-.65,2.11-1.53,1.87-.66-.18-.8-1-.81-1.74q-.07-6.08.43-12.14L78.12,59.08A47.3,47.3,0,0,1,75.35,71a17.22,17.22,0,0,1,2-3.4c.26-.31.72-.62,1-.35a.74.74,0,0,1,.16.56c0,3.75-2.61,7.64-4.27,10.88-.68,1.33-1.7,1.28-1.88-.13,0-.11.71-3,.72-3A42.17,42.17,0,0,1,60.44,90.19a23.2,23.2,0,0,1,7-3.06c.63,1.59-.54,3.32-1.83,4.44-2.89,2.52-6.6,3.86-10.22,5.14l11.51-4.35c.64-.24,1.69-.22,1.66.47,0,.24-.19.47-.15.71.08.46.75.41,1.18.25,2.73-1,5.84-1.76,8.37-3.2,1-.57,6.58-4.22,6.58-5.29,2.94-2.26,4.3-5.56,5.85-8.91C93.72,69.16,97.51,60,97.75,51.9c0,1.64-2.54,13.9-5.56,11.07a3.73,3.73,0,0,1-.88-2.26c-.11-.73-.16-1.62.42-2.07,1.41-1.11,1.8-.27,2.1-2.4L95,47.65A26.37,26.37,0,0,1,93.93,53a7.63,7.63,0,0,1-1.62,3.09,3.21,3.21,0,0,1-3.2,1A4,4,0,0,1,87,54.88a11.06,11.06,0,0,1-1.1-4.4,11.79,11.79,0,0,0,1.07,6A7.67,7.67,0,0,1,87.09,63.25Z" transform="translate(-0.38 -0.48)" style="fill: #40134b;opacity: 0.2;mix-blend-mode: multiply"/>
        <path d="M85.47,45.43a9.58,9.58,0,0,0,2.3,8.72,4,4,0,0,0,1,.81,3.16,3.16,0,0,0,3-.17,5.93,5.93,0,0,0,2.09-2.25c1.31-2.27,1.86-6.32-.78-8-.76-.47-1.77-.77-2-1.62s.5-2.41-.39-3c-.5-.3-1.14,0-1.6.35A10.21,10.21,0,0,0,85.47,45.43Z" transform="translate(-0.38 -0.48)" style="fill: #7ca141"/>
        <path d="M59.59,32.5A2.26,2.26,0,0,0,58,34.56a5.3,5.3,0,0,0,5.5-3.22,4.32,4.32,0,0,0-4.25,1.44Z" transform="translate(-0.38 -0.48)" style="fill: #547fa4"/>
        <path d="M27.11,33.67c-1.56-2.3-.86-5.44-1.77-8.06-2-5.66-6.17-5.13-9.88-2.73,1.45-.58,2.92-.93,4.51.17,1.84,1.27,2.26,3.79,2.24,6s-.3,4.59.69,6.59c1.32,2.66,4.53,3.86,7.49,3.92s6.81-.53,8.59,2c1.63,2.3.2,5.54-1.72,7.61-3.71,4-9.16,6.35-12.57,10.46,2.77-2,5.26-4.21,8.29-6,3.33-2,6.83-4.25,8.27-8a6.3,6.3,0,0,0-.14-5.32C38.43,35.64,30.09,38.08,27.11,33.67Z" transform="translate(-0.38 -0.48)" style="fill: #597568"/>
        <path d="M9.1,35C8.32,38.63,7.5,44.44,8.79,48s2.73,2.39,4,.37c1.75-2.88,2.81-3.82,6.49-3.92,2.11-.06,4.53-.21,5.84-1.88a1.12,1.12,0,0,0,.27-.56,1.27,1.27,0,0,0-.49-.95c-1.6-1.61-3.69-2.9-4.48-5a10.16,10.16,0,0,1-.21-4.49,9.1,9.1,0,0,0-.33-4.47C16.41,19.1,9.78,31.75,9.1,35Z" transform="translate(-0.38 -0.48)" style="fill: #b7d43d"/>
        <path d="M28.94,43a.69.69,0,0,0-.14.94c1.42.89,3.83-.74,4.87,1s-1.54,5.29-2.89,6.24A15,15,0,0,0,27.18,54q3-1.84,5.88-3.93a13.71,13.71,0,0,0,3.12-2.85c4.54-6.2-3.75-5.87-7.46-3.91Z" transform="translate(-0.38 -0.48)" style="fill: #b7d43d"/>
        <path d="M16.88,59.39A9.61,9.61,0,0,0,22.81,58c1.68-1,2.43-3.25,3.84-4.12-1.65,1-3.57,2.08-5.42,1.52-.3-.09-.63-.28-.68-.59a.87.87,0,0,1,.17-.56c1.76-2.89,6.23-2.83,8.39-5.43a25.17,25.17,0,0,1-5,.2.73.73,0,0,1-.4-.1c-.35-.25,0-.79,0-1.21.1-.75-.77-1.33-1.52-1.24C16.91,47.13,7.38,57.76,16.88,59.39Z" transform="translate(-0.38 -0.48)" style="fill: #b7d43d"/>
        <path d="M64.67,15A7.72,7.72,0,0,0,60,10.33a16.08,16.08,0,0,0-6.46-.83,7.6,7.6,0,0,1,5.43,2.36c3.52,3.92,2.37,9-1.79,11.7a25.47,25.47,0,0,1-6.23,2.64c-2.35.74-5.68,2.06-8.19,1.61A18.13,18.13,0,0,1,38.62,26a4.35,4.35,0,0,0,1.1,2c1.52,1.54,4,1.58,6.12,1.33a36.89,36.89,0,0,0,11.26-3.2,16.14,16.14,0,0,0,5.94-4.28A7.72,7.72,0,0,0,64.67,15Z" transform="translate(-0.38 -0.48)" style="fill: #597568"/>
        <path d="M41.14,19.32l3.49-1.66a4.75,4.75,0,0,1,2.29,1.59,5,5,0,0,0,.55.88,1.71,1.71,0,0,0,2,.13,6.8,6.8,0,0,0,1.58-1.45A12.57,12.57,0,0,1,54.85,16a7.79,7.79,0,0,0,2.23-1.27c3.4-3.34-5.1-4.14-7.06-3.55C46.38,12.28,42.29,15.67,41.14,19.32Z" transform="translate(-0.38 -0.48)" style="fill: #b7d43d"/>
        <path d="M77,48.61a11.41,11.41,0,0,0-2.44-6.8,8.49,8.49,0,0,0-1-1,27.3,27.3,0,0,1,1.39,7,13.32,13.32,0,0,1-2.62,9,14.57,14.57,0,0,1-4.23,3.37c-3.62,2-8,3.17-12,1.86-4.8-1.59-5.22-5.27-6.42-9.3a6,6,0,0,0-.5.34A8.82,8.82,0,0,0,48.65,56a8.93,8.93,0,0,0,3.08,6.61,12.77,12.77,0,0,0,6.79,3A16.27,16.27,0,0,0,77,48.61Z" transform="translate(-0.38 -0.48)" style="fill: #60632b"/>
        <path d="M71.66,41.68a7.73,7.73,0,0,0-2.57-.95c-2.94-.58-6,.47-8.6,1.89-.54.29-1.15.89-.82,1.4a11,11,0,0,1,2,.6c.14,1-.92,1.59-1.81,2l-3.69,1.49c-4,1.6-8.09,6.32-3.44,10.21-1.9-1.59-.12-4.75,1.19-5.86,2-1.71,7-3.64,9.63-2.68,5,1.84-.66,7.77-3.85,8.23a7.31,7.31,0,0,0,7.51-5.57,19.16,19.16,0,0,1,.7-3.7c.5-1.16,1.9-2.09,3-1.49A2.75,2.75,0,0,1,72,49.1a9.7,9.7,0,0,1-.55,6C73.28,50.88,76,44.36,71.66,41.68Z" transform="translate(-0.38 -0.48)" style="fill: #b7d43d"/>
        <path d="M29.15,80.12c3.17,1.44,6.16,3.34,9.5,4.31s7.29.85,9.91-1.44a1.37,1.37,0,0,0,.56-.89,1.05,1.05,0,0,0-1-1,3.77,3.77,0,0,0-1.49.25,10.92,10.92,0,0,1-5.81.06,3.64,3.64,0,0,1-2-1.08,1.6,1.6,0,0,1,0-2.07c.4-.4,1-.48,1.45-.87a1.68,1.68,0,0,0,0-2.17,3.91,3.91,0,0,0-2-1.23c-2.81-.93-7.26-1-10,.42C25.26,76,26.54,78.94,29.15,80.12Z" transform="translate(-0.38 -0.48)" style="fill: #b7b73c"/>
        <path d="M93.83,69a49.9,49.9,0,0,1-19,22.94,6.44,6.44,0,0,0,1.82,0,5.3,5.3,0,0,0,1.47-.53,50,50,0,0,0,16.07-18C94.75,71.58,94.7,70.07,93.83,69Z" transform="translate(-0.38 -0.48)" style="fill: #b7b73c"/>
        <path d="M86.52,70.7a11.68,11.68,0,0,0-3.62,3.81l-5,7.2a16.36,16.36,0,0,0-2.75,5.17,2.12,2.12,0,0,0,.27,2c.68.7,1.85.33,2.7-.14,5.36-3,8.88-8.37,12.14-13.58C92.3,71.84,90.48,68.51,86.52,70.7Z" transform="translate(-0.38 -0.48)" style="fill: #7d9f43"/>
        <path d="M51.33,84.77c-.39-.61-1.3-.44-2-.22a24.83,24.83,0,0,1-17.5-1.11,13.54,13.54,0,0,1-5.13-3.74,7.63,7.63,0,0,1-1.54-4.2,4.6,4.6,0,0,0-.61,1.83A5.93,5.93,0,0,0,26.47,82a15,15,0,0,0,4.4,2.77,32.58,32.58,0,0,0,9.57,3,15.89,15.89,0,0,0,9.76-1.67,9.12,9.12,0,0,0,1.26-.86A.83.83,0,0,0,51.33,84.77Z" transform="translate(-0.38 -0.48)" style="fill: #737435"/>
        <path d="M12,70.56a13.62,13.62,0,0,1-2.74-2.72,3.77,3.77,0,0,0-1.7-1.5c-.74-.22-1.72.34-1.58,1.09-.38.23-.79-.24-1-.64-4.88-10.66-3.44-22.59.4-33.36C4.29,36.69,4.24,40.94,4,44.35a34.54,34.54,0,0,0,5.3,21.36,16.84,16.84,0,0,0,6.44,6.22A6.77,6.77,0,0,1,12,70.56Z" transform="translate(-0.38 -0.48)" style="fill: #91d9f8"/>
        <path d="M26.17,66A10.94,10.94,0,0,1,31,60.3c1.85-1,4-1.54,5.8-2.62a20.49,20.49,0,0,0,5.06-4.85l7.79-9.4c-1.86,2.56-5.88,7.79-5.46,11.07a.83.83,0,0,0,.16.46c.34.39,1,0,1.29-.44l2.79-3.45a13.64,13.64,0,0,0-1.59,6.28,2.46,2.46,0,0,0,.89,2.26c.22.12.51.27.46.51a.49.49,0,0,1-.2.26c-5.08,4-10,8.38-16.28,10.49a16.27,16.27,0,0,0,8.22-7.18c.56-1,1-2.35.25-3.24a2.67,2.67,0,0,0-1.82-.79c-3.55-.38-6.88,1.76-9.54,4.15s-5.07,5.2-8.32,6.68c3.43-1.17,5.63-4.43,7.58-7.48Z" transform="translate(-0.38 -0.48)" style="fill: #91d9f8"/>
        <path d="M9.56,74.14A47.19,47.19,0,1,0,70.93,7.91a16.46,16.46,0,0,1,1.3,5.2A31.23,31.23,0,0,1,70.7,24.29C66.77,37.88,59.16,50.5,48.38,59.66S23.67,74.31,9.56,74.14Z" transform="translate(-0.38 -0.48)" style="fill: #866e60;opacity: 0.37;mix-blend-mode: color-burn"/>
      </g>
    </g>
  </g>
</svg>
