<svg xmlns="http://www.w3.org/2000/svg" viewBox="0 0 95.6 95.6">
  <title>10</title>
  <g style="isolation: isolate">
    <g id="Layer_1" data-name="Layer 1">
      <g>
        <path d="M98,50.32q0,1.7-.12,3.37c-.06.93-.15,1.85-.27,2.76a46.85,46.85,0,0,1-1,5.38A47.82,47.82,0,0,1,23.47,90a48,48,0,0,1-19-25.65A47.46,47.46,0,0,1,2.53,54q-.11-1.37-.12-2.75c0-.3,0-.6,0-.89,0-.67,0-1.34,0-2,0-.89.09-1.77.18-2.64A47.46,47.46,0,0,1,9.28,25.6a47.81,47.81,0,0,1,5.26-7.12c.43-.49.88-1,1.34-1.43q1.29-1.34,2.69-2.57t3.18-2.58a47.56,47.56,0,0,1,15-7.48h0A47.75,47.75,0,0,1,75.69,9.88q1.68,1,3.26,2.26c1,.75,2,1.55,2.93,2.4A47.53,47.53,0,0,1,92.37,27.8q1,1.85,1.81,3.78a47,47,0,0,1,3.41,12.53c0,.21.06.42.08.64s0,.15,0,.22,0,.44.07.66,0,.3,0,.45c0,.44.07.87.1,1.31v.22C98,48.5,98,49.4,98,50.32Z" transform="translate(-2.4 -2.51)" style="fill: #9e2b4b"/>
        <path d="M96.6,61.82a47.44,47.44,0,0,1-8.07,17.05c-9.33,1.26-19.7,2.24-30.62,2.84a360.68,360.68,0,0,1-43.77,0A47.66,47.66,0,0,1,4.48,64.3c13.91,1.87,33.73,2.43,55.64,1.21C73.39,64.78,85.83,63.48,96.6,61.82Z" transform="translate(-2.4 -2.51)" style="fill: #b63358"/>
        <path d="M84.74,83.35A47.29,47.29,0,0,1,80,87.71c-7,.76-14.38,1.37-22.07,1.8-12.38.68-24.08.81-34.43.44a47.94,47.94,0,0,1-5.22-4.08,372.56,372.56,0,0,0,39.94-.2C67.55,85.15,76.5,84.36,84.74,83.35Z" transform="translate(-2.4 -2.51)" style="fill: #942745"/>
        <path d="M97.88,53.69c-.06.93-.15,1.85-.27,2.76a374.87,374.87,0,0,1-39,1.91c-22.25,0-42.26-1.7-56.07-4.4q-.11-1.37-.12-2.75c13.82,2.71,33.88,4.42,56.2,4.42A374.19,374.19,0,0,0,97.88,53.69Z" transform="translate(-2.4 -2.51)" style="fill: #942745"/>
        <path d="M81.88,14.53c-6.77.82-14,1.5-21.4,2a358.22,358.22,0,0,1-44.61.5q1.29-1.34,2.69-2.57a366.31,366.31,0,0,0,41.73-.66c6.45-.44,12.69-1,18.65-1.69C80,12.89,80.94,13.69,81.88,14.53Z" transform="translate(-2.4 -2.51)" style="fill: #942745"/>
        <path d="M97.93,47.6C87,49.17,74.29,50.33,60.74,50.9c-23.36,1-44.32,0-58.27-2.37,0-.89.09-1.77.18-2.64a47.2,47.2,0,0,1,3.2-13.15c13.85,2,33.35,2.75,54.9,1.84,12-.5,23.41-1.48,33.47-2.79A47.39,47.39,0,0,1,97.7,45Q97.85,46.28,97.93,47.6Z" transform="translate(-2.4 -2.51)" style="fill: #b63358"/>
        <path d="M92.37,27.8c-9.77.81-20.69,1.27-32.21,1.27-19.6,0-37.46-1.31-50.88-3.47a47.81,47.81,0,0,1,5.26-7.12,345.12,345.12,0,0,0,48.27,3.07c8.76,0,17.17-.26,25-.74A47.36,47.36,0,0,1,92.37,27.8Z" transform="translate(-2.4 -2.51)" style="fill: #b63358"/>
        <path d="M75.69,9.88c-4.75.49-9.67.92-14.7,1.26a373.83,373.83,0,0,1-39.23.76,47.56,47.56,0,0,1,15-7.48h0c7.43,0,15.39-.28,23.67-.8A47.5,47.5,0,0,1,75.69,9.88Z" transform="translate(-2.4 -2.51)" style="fill: #b63358"/>
        <path d="M56.17,97.75A47.69,47.69,0,0,1,18.25,85.87a48.41,48.41,0,0,1-4.12-4.19A47.61,47.61,0,0,1,2.53,54q-.11-1.37-.12-2.75c0-.3,0-.6,0-.89,0-.67,0-1.34,0-2,0-.89.09-1.77.18-2.64A47.46,47.46,0,0,1,9.28,25.6a47.81,47.81,0,0,1,5.26-7.12c.43-.49.88-1,1.34-1.43q1.29-1.34,2.69-2.57t3.18-2.58a47.56,47.56,0,0,1,15-7.48h0A48.07,48.07,0,0,1,56.17,2.89a47.2,47.2,0,0,0-7.41,1.53h0a47.56,47.56,0,0,0-15,7.48q-1.65,1.21-3.18,2.58T27.83,17c-.46.47-.9.94-1.34,1.43a48,48,0,0,0-8.72,14.05,47.2,47.2,0,0,0-3.2,13.15c-.09.87-.15,1.75-.18,2.64,0,.66,0,1.33,0,2,0,.3,0,.6,0,.89q0,1.39.12,2.75a47.61,47.61,0,0,0,11.6,27.72A48.22,48.22,0,0,0,35.42,90,47.47,47.47,0,0,0,56.17,97.75Z" transform="translate(-2.4 -2.51)" style="fill: #5d5d5d;opacity: 0.2;mix-blend-mode: multiply"/>
      </g>
    </g>
  </g>
</svg>
