<svg xmlns="http://www.w3.org/2000/svg" viewBox="0 0 98.82 98.82">
  <title>2</title>
  <g style="isolation: isolate">
    <g id="Layer_1" data-name="Layer 1">
      <g>
        <circle cx="49.41" cy="49.41" r="49.41" style="fill: #ec4006"/>
        <path d="M49.59.17c-.4,0-.8,0-1.2,0a49.39,49.39,0,0,1,0,98.76c.4,0,.8,0,1.2,0a49.41,49.41,0,0,0,0-98.82Z" transform="translate(-0.18 -0.17)" style="fill: #d79e07"/>
        <path d="M42,2.31a33,33,0,0,0-4.94.16c-6.81.73-14,5.06-19.1,9.35A50,50,0,0,0,.18,49.58c0,17.75,10.12,32.8,25.74,41,5.31,2.79,14.17,3.32,20,2.52a37.06,37.06,0,0,0,8.62-2.47C71.1,84.08,78.06,66.12,78.06,49.14,78.06,28.25,64.64,3.3,42,2.31Z" transform="translate(-0.18 -0.17)" style="fill: #9a2110"/>
        <path d="M7.64,29.52C2.19,42.5,3.2,58.14,10.76,70a19.6,19.6,0,0,0,6.53,6.77,9.62,9.62,0,0,0,9.09.52c4.35-2.32,5.3-8,6.61-12.74A42.73,42.73,0,0,1,47.77,42.39a57.17,57.17,0,0,1,14-8.32c1.71-.65,3.72-1.12,5.29-.18a5,5,0,0,1,2.09,3.89c.32,3.33-1.29,6.58-3.43,9.15s-4.81,4.64-7.16,7a37.34,37.34,0,0,0-7.21,10.38,74.15,74.15,0,0,1,8.85-10.67c2.18-2,9.91-8.47,13.14-6.65A3.75,3.75,0,0,1,75,50a11.57,11.57,0,0,1-.4,3.5c3.82-4.93,3-13.35,1.28-18.89-1.85-6-5.33-11.39-9.12-16.41l4.15,4.68c1.38,1.55,3.55,3.24,5.27,2.09,1.56-1,1.17-3.4.54-5.15-1.08-3-2.15-7-4.49-9.26A24,24,0,0,0,64,5.71C52.12,1.12,40.13.6,28.83,6.73A47.24,47.24,0,0,0,7.64,29.52Z" transform="translate(-0.18 -0.17)" style="fill: #d79e07;opacity: 0.47000000000000003;mix-blend-mode: overlay"/>
        <path d="M87.2,20.42c-2.56-3.84-5.63-7.21-9.76-9.12a26.18,26.18,0,0,1,7.06,12.95c.7,3.19,3.25,9-.11,11.24C79,39.07,74.31,29.77,72.66,26.12c-1.46-3.25-2.82-7.17-6.21-8.26a50.58,50.58,0,0,1,10.3,29.52c.06,3.28-.29,6.8-2.35,9.35a2.06,2.06,0,0,1-1.3.88c-.9.08-1.56-.88-1.68-1.77s.09-1.81-.09-2.7c-.38-1.87-2.46-3-4.36-2.9a9.22,9.22,0,0,0-5.09,2.38C54.7,58.46,51,67.85,43.73,73.53a7.42,7.42,0,0,1-3.28,1.66,3.16,3.16,0,0,1-3.24-1.32,4.72,4.72,0,0,1-.26-3q.55-4.22,1.38-8.4l-6.1,13.43c-2.42,5.32-4.7,8.76-11.06,7.1a20.17,20.17,0,0,1-6.39-3.4,29.59,29.59,0,0,1-5.6-4.82,11.61,11.61,0,0,1-2.92-6.67,39.07,39.07,0,0,0,3.9,9.69C17.66,91,42.64,102.64,56.6,94.25c7.25-4.36,12.64-11.4,16.08-19.13,4-9,5.71-19,7.24-28.66.18-1.13.74-2.58,1.88-2.48,1,.08,1.43,1.28,1.55,2.26a18.64,18.64,0,0,1,0,4.76c-.14,1.09-.38,2.17-.61,3.24,0,3-1.46,6.61-2.1,9.55a95,95,0,0,1-2.16,9.37A98.28,98.28,0,0,1,70,91.3c3.21-4.53,7.42-9.56,8.95-15,1.58-5.57,2.64-11.08,5-16.5.7-1.63,1.89-3.52,3.65-3.36,1.47.13,2.41,1.7,2.61,3.16a24.13,24.13,0,0,1-.6,8.95,42.66,42.66,0,0,1-10,17.87A36.58,36.58,0,0,0,92,70.56c2.93-6.91,5.32-16.42,4.63-23.93A49.13,49.13,0,0,0,91.52,27.9C90.19,25.39,88.8,22.82,87.2,20.42Z" transform="translate(-0.18 -0.17)" style="fill: #610000;opacity: 0.45"/>
        <path d="M35.4,40a14,14,0,0,1,0-1.61c.41-8,3.93-17.6,10.21-22.92a13.33,13.33,0,0,1,9-3.4A15.59,15.59,0,0,1,62.32,15a29.53,29.53,0,0,1,9.25,9.73,26,26,0,0,0-4.45-7.55c-2.46-3.27-5-6.59-8.29-9A22.92,22.92,0,0,0,44.93,3.84c-7.13-.08-14,2.88-19.92,6.85A60.3,60.3,0,0,0,10.48,24.43a72,72,0,0,1,10.46-11c4.47-3.81,10.17-7.23,15.9-5.94,4.89,1.1,3.53,5.84,3.35,9.58-.27,5.62-2.41,11-4.7,16.11a93.83,93.83,0,0,1-8.14,14.06c-2.61,3.83-7,13-12.85,11.81a7.45,7.45,0,0,1-4.9-4C6.87,49.75,7,40.91,8,35.24,6.52,41.33,4.71,56,10.85,60.44A5.25,5.25,0,0,0,14,61.3c3.59-.06,6.72-2.47,9.12-5.15s4.4-5.76,7.26-7.94c1.1-.84,2.55-1.54,3.82-1C36,48,36,50.44,35.71,52.33A93.1,93.1,0,0,1,31,70.1c2.85-5.52,4-11.79,7-17.22,4.44-8,12.35-13.41,20-18.5-3.67,2.45-18.4,15.71-22.14,7.76A5.76,5.76,0,0,1,35.4,40Z" transform="translate(-0.18 -0.17)" style="fill: #d79e07;opacity: 0.47000000000000003;mix-blend-mode: overlay"/>
        <path d="M12.08,52.13A3.67,3.67,0,0,0,15.24,54c1.52-.19,2.39-1.79,3-3.2l6.33-14.45c1.12-2.56,2.47-5.35,5.05-6.42a1.43,1.43,0,0,1,1.51.06,1.53,1.53,0,0,1,.35,1,15.88,15.88,0,0,1-2.08,9.34,62.08,62.08,0,0,0,6.43-13.84c1.25-3.86,2.33-9.9-1.1-13.09a6.5,6.5,0,0,0-5.3-1.46A13.53,13.53,0,0,0,24.23,14C13.29,20.84,3.5,40.2,12.08,52.13Z" transform="translate(-0.18 -0.17)" style="fill: #d79e07;opacity: 0.47000000000000003;mix-blend-mode: overlay"/>
        <path d="M37.7,37.61a6.36,6.36,0,0,0,.5,2.2,3.66,3.66,0,0,0,1,1.35c1.34,1.12,3.39.75,4.92-.09,6-3.28,15-12.92,22.5-9.08a6.85,6.85,0,0,1,3.69,5c.33-11.9-15.76-4.49-21.13-4.3a1.93,1.93,0,0,1-1.19-.23c-.73-.51-.47-1.66,0-2.4,1.38-2.11,3.82-3.23,6.13-4.24A17.79,17.79,0,0,1,62.51,25c4.11.41,7.56,3.36,9.9,6.77-1.34-1.95-1.82-4.67-3.19-6.73a25.91,25.91,0,0,0-5.39-5.88C58,14.45,53.2,14.84,47.08,18.49c-5.81,3.46-7.8,8.86-9,15.41A15.58,15.58,0,0,0,37.7,37.61Z" transform="translate(-0.18 -0.17)" style="fill: #d79e07;opacity: 0.47000000000000003;mix-blend-mode: overlay"/>
        <path d="M14.33,27.35l-.1.19c-2.68,5.4-5.65,13.28-2.56,19,.75,1.38,2.17,2.76,3.68,2.31a3.88,3.88,0,0,0,2-1.86c1.74-2.78,2.47-6.31,3.94-9.28a59.78,59.78,0,0,1,5.88-9.49,4,4,0,0,1,2.45-1.86,2.16,2.16,0,0,1,2,3c.95-1.71-.36-4.07-2.25-4.58a4.53,4.53,0,0,0-4,.93c-1,.83-1.38,2-2.86,2.2a2.16,2.16,0,0,1-2-.77,3.29,3.29,0,0,1-.17-2.73C21.4,20.2,25,16.11,29.46,15.2c2.41-.5,5.26.66,6.09,3a7.54,7.54,0,0,1,.08,3.77A35.24,35.24,0,0,1,34,28.12a33.83,33.83,0,0,0,1.64-4.64,12.46,12.46,0,0,0,.48-5.61,5.58,5.58,0,0,0-3.34-4.28c-1.95-.69-4.09.1-5.92,1.07A30.07,30.07,0,0,0,14.33,27.35Z" transform="translate(-0.18 -0.17)" style="fill: #d79e07;mix-blend-mode: overlay"/>
        <path d="M46.55,35.81a3.7,3.7,0,0,1-2.05-.76c-1.28-1.1.47-3.16-1.4-3.82-1.29-.46-2.59.83-3.11,1.87-1.58,3.22,1,7.64,4.77,5.78a16.85,16.85,0,0,0,5.41-4.22A4.39,4.39,0,0,1,46.55,35.81Z" transform="translate(-0.18 -0.17)" style="fill: #d79e07;mix-blend-mode: overlay"/>
        <path d="M65.41,22.85l.62.59a14.88,14.88,0,0,0-6.13-5.31c-4.27-1.72-9.21-.07-13,2.51-1.77,1.19-6.48,5.75-3.81,8,2,1.72,6.38-1.57,7.92-3A16.34,16.34,0,0,1,60,21.07a6.65,6.65,0,0,1,2.72.1A6.83,6.83,0,0,1,65.41,22.85Z" transform="translate(-0.18 -0.17)" style="fill: #d79e07;mix-blend-mode: overlay"/>
        <path d="M33.54,40l-5.22,8.44a8,8,0,0,1,3.31-2.58,4.09,4.09,0,0,1,4,.54c1.48,1.27,1.49,3.51,1.4,5.45A54,54,0,0,1,42,45.33a8.68,8.68,0,0,1-6.91-.13,2.3,2.3,0,0,1-1.59-2,8.85,8.85,0,0,1,1-5.67Z" transform="translate(-0.18 -0.17)" style="fill: #d79e07;mix-blend-mode: overlay"/>
        <path d="M10.8,39.58q0,.54,0,1.07c.14,2.73,1.89,5.86,4.6,2.62A13.13,13.13,0,0,0,17.11,40c1.56-3.56,3.18-8.71,6-11.45C18.87,32.61,16.67,24,19.31,21a34.54,34.54,0,0,0-7.13,11.58A23.83,23.83,0,0,0,10.8,39.58Z" transform="translate(-0.18 -0.17)" style="fill: #ffc000;mix-blend-mode: overlay"/>
        <path d="M43.23,24.19c-2.12,3.22,1.17,4.69,2.91,1.47a14.74,14.74,0,0,1,7.78-7.29,9.11,9.11,0,0,1,7-.12C55.06,15.61,46.68,19,43.23,24.19Z" transform="translate(-0.18 -0.17)" style="fill: #ffc000;mix-blend-mode: overlay"/>
        <path d="M30.94,51c.62-.47,1.5-.86,2.12-.4a1.89,1.89,0,0,1,.59,1.23c.86,4.71-.4,9.52-1.84,14.09-1.08,3.45-2.54,7.18-5.75,8.84-3.48,1.8-7.92.38-10.76-2.32s-4.41-6.39-5.88-9.94c1.89,4.89,9,3.23,12.21.58C25.6,59.8,26.79,54.19,30.94,51Z" transform="translate(-0.18 -0.17)" style="fill: #d79e07;opacity: 0.47000000000000003;mix-blend-mode: overlay"/>
        <path d="M25.69,60.5c1.5-2.89,2.79-6,5.85-7.65a.84.84,0,0,1,.66-.14c.3.11.39.48.43.79.54,4.46-.7,8.92-2,13.22a14.41,14.41,0,0,1-2.21,5c-4.76,6-12.51.68-15.44-4.29,1.54,2.61,6,6,9.25,5.26,5.22-1.18.44-6.88-3.22-5.8C22.62,65.88,24.25,63.27,25.69,60.5Z" transform="translate(-0.18 -0.17)" style="fill: #d79e07;mix-blend-mode: overlay"/>
        <path d="M42.64,34.67c.63-1.06.93-3.06-1.06-2.81a1.74,1.74,0,0,0-1,.6c-1.74,1.88-.62,5.23,1.58,6.23a1.85,1.85,0,0,1-.56-2A8.75,8.75,0,0,1,42.64,34.67Z" transform="translate(-0.18 -0.17)" style="fill: #ffc000;mix-blend-mode: overlay"/>
        <path d="M30.29,53.78c.45-.55,1.22-1.11,1.78-.67a1.31,1.31,0,0,1,.4.77,11.67,11.67,0,0,1,.19,3.33,30.64,30.64,0,0,1-4.13,13.64,10.87,10.87,0,0,0,1.67-7.15,4.37,4.37,0,0,0-1.14-2.38c-1.58-1.54-2.57-.44-1.43-3.14A18.11,18.11,0,0,1,30.29,53.78Z" transform="translate(-0.18 -0.17)" style="fill: #ffc000;mix-blend-mode: overlay"/>
        <path d="M22.26,52.17a60.83,60.83,0,0,0,7.23-10.48,67.79,67.79,0,0,0,6.94-16.51q.2-.8.39-1.6A67.86,67.86,0,0,1,22.58,54.63a13.37,13.37,0,0,1-4.64,4c-2.6,1.16-5.47-.15-7.2-2.18C8.66,54,8.14,51,7.62,47.94a11.48,11.48,0,0,1-.22-2.18,31,31,0,0,0,1.51,6c1.16,2.91,3.2,5.47,6.59,5.34a5,5,0,0,0,3.66-1.68A42.74,42.74,0,0,0,22.26,52.17Z" transform="translate(-0.18 -0.17)" style="fill: #610000;opacity: 0.45"/>
      </g>
    </g>
  </g>
</svg>
