<svg xmlns="http://www.w3.org/2000/svg" viewBox="0 0 98.85 98.85">
  <title>3</title>
  <g style="isolation: isolate">
    <g id="Layer_1" data-name="Layer 1">
      <g>
        <g>
          <circle cx="49.42" cy="49.42" r="49.42" style="fill: #a16744"/>
          <path d="M84.91,84.41a49.7,49.7,0,0,0,4.43-5.11c-7.6-.14-15.2-.22-22.79.11a118.92,118.92,0,0,1-11.92.23c-3.46-.2-6.88-.78-10.34-.66a71.06,71.06,0,0,0-10.36,1.58c-7.48,1.36-14.41,1.21-21.83.89a49.71,49.71,0,0,0,5.11,5.22c12.56.25,25.39-.32,30-.35,11.61-.05,23.23-.49,34.75-1.57C82.94,84.66,83.92,84.54,84.91,84.41Z" transform="translate(-0.43 -0.15)" style="fill: #f7e5be"/>
          <path d="M61.83,83.33a54.84,54.84,0,0,1-8.09.23c-2.34-.2-4.67-.78-7-.66a34.1,34.1,0,0,0-7,1.58c-5.76,1.54-11,1.14-16.87.75-.69,0-4.22-.25-7.61-.42a49.64,49.64,0,0,0,6.48,5.37c10.15,1,23.05.08,27,.05A182,182,0,0,0,72.3,88.67,77.27,77.27,0,0,0,83.35,85.9c.86-.79,1.68-1.61,2.48-2.46C77.82,83.28,69.82,82.81,61.83,83.33Z" transform="translate(-0.43 -0.15)" style="fill: #c9a481"/>
          <path d="M72.05,87.7c-3,.73-5.26-.86-8.28-.24-2.55.52-4.86,2.16-7.57,1.59-1.57-.33-2.84-1.43-4.41-1.75-1.74-.36-3.52.29-5.2.82a48.45,48.45,0,0,1-20,1.84,50.31,50.31,0,0,0-6.08-.59A49.45,49.45,0,0,0,26.32,93c8.08,1,19.74.28,23.12.26a163.55,163.55,0,0,0,18.26-1c6-.75,10-2.22,14.59-5.87a41.39,41.39,0,0,0-10.18,1.29Z" transform="translate(-0.43 -0.15)" style="fill: #a1642d"/>
          <path d="M49.85,99a49.18,49.18,0,0,0,26.87-7.95c-5.14-1.89-11.94,4.06-18,2.77-2.5-.53-4.52-2.29-7-2.81-2.77-.57-5.6.46-8.28,1.31a72.75,72.75,0,0,1-12.8,2.8A49.27,49.27,0,0,0,49.85,99Z" transform="translate(-0.43 -0.15)" style="fill: #96d9f2"/>
          <path d="M93.23,73.27a32,32,0,0,0-7-.46l-17,.16a98.34,98.34,0,0,1-17.37-.86c-2.55-.43-5.21-1.06-7.68-.29-1.77.55-3.26,1.78-5,2.4a15.63,15.63,0,0,1-4.48.66L11.65,76A25.5,25.5,0,0,1,8,75.84a49.61,49.61,0,0,0,5.87,7.59,45.28,45.28,0,0,0,5.27.08,119.63,119.63,0,0,0,14.15-.93c2.8-.41,5.58-1,8.41-1.25a77.46,77.46,0,0,1,10.11.13,156.73,156.73,0,0,0,27-.93,36.53,36.53,0,0,0,11.89-3.15Q92.07,75.38,93.23,73.27Z" transform="translate(-0.43 -0.15)" style="fill: #c9a481"/>
          <path d="M93.05,69.81C87,69.27,81,71.53,74.91,70.62c-2.59-.39-5.08-1.34-7.68-1.54-2.79-.22-5.62.43-8.37-.09-3.9-.74-7.58-3.78-11.39-2.67a30.92,30.92,0,0,0-3.36,1.56c-2.65,1.13-5.64.89-8.52.77-10.1-.41-20.16.95-30.14,2.63a49.34,49.34,0,0,0,2.93,5.16,37.36,37.36,0,0,1,6.11.76c2.38.53,4.68,1.4,7.09,1.8,6.23,1,12.49-1.09,18.67-2.37,16.54-3.43,33.67-.75,50.56-1.31a8.8,8.8,0,0,0,1.35-.15,49.29,49.29,0,0,0,2.67-5.07A11.12,11.12,0,0,0,93.05,69.81Z" transform="translate(-0.43 -0.15)" style="fill: #f7e5be"/>
          <path d="M81.34,64.83c-3.15-.13-5.36,1.89-8.2,1.83s-4-4.34-6.79-4.83c-1.29-.22-2.54.43-3.82.69-2.95.6-5.86-.89-8.7-1.88s-6.45-1.35-8.44.91c-1,1.17-1.53,2.94-3,3.5-1.94.74-3.81-1.23-5.85-1.6s-3.81.81-5.68,1.47c-5,1.75-10.62-.11-15.79,1.07a47.11,47.11,0,0,1-4.84,1.24,22.92,22.92,0,0,1-5.33-.34c-.48-.06-.95-.08-1.42-.11a49.1,49.1,0,0,0,2.56,5.72,433.62,433.62,0,0,0,57.65-.68,85,85,0,0,1,14-.4c3.25.28,6.46,1,9.72,1.14a38.42,38.42,0,0,0,6.39-.44,49.07,49.07,0,0,0,3-7.1C92,64.09,84,64.94,81.34,64.83Z" transform="translate(-0.43 -0.15)" style="fill: #96d9f2"/>
          <path d="M87.46,54.85c-2.08.37-4,1.31-6.12,1.62-5,.72-9.83-2.24-14.82-1.82a19.59,19.59,0,0,1-3.8.29C61,54.75,59.52,53.74,58,53a13.71,13.71,0,0,0-12.17.63c-1.49.85-3,2-4.67,2a11.8,11.8,0,0,1-3.2-.89c-4.11-1.29-8.47.52-12.51,2s-8.88,2.55-12.41.09c-1.33-.93-2.72-2.39-4.27-1.89-1,.32-1.54,1.36-2.33,2.05C5,58.25,3.14,58.33,1.2,58.27A49.07,49.07,0,0,0,4.37,69c29.91,1.29,60,2.56,89.68-1.46a20,20,0,0,0,2-.35,49.11,49.11,0,0,0,3-12.67C95.2,54.53,91.11,54.2,87.46,54.85Z" transform="translate(-0.43 -0.15)" style="fill: #c9a481"/>
          <path d="M99.27,49.58c0-1.06,0-2.1-.11-3.14-6.84.34-13.49,1.54-20.49.1-3.4-.7-6.72-1.86-10.18-2.18-6.05-.55-12,1.51-18,2.25-8.41,1-17.1-.46-25.31,1.61a12,12,0,0,1-4.74.67,31.43,31.43,0,0,1-4-1.45C11.65,46,6.73,49.57,1.81,49.12c-.46,0-.91-.12-1.37-.19,0,.22,0,.43,0,.65A49.51,49.51,0,0,0,2,62c.73.05,1.45.08,2.15.1,14.35.3,28.71-.17,43-1.1,6.31-.41,12.65-.91,19-.44,4.53.34,9,1.18,13.57,1.28,6.29.14,12.48-1.14,18.59-2.7A49.63,49.63,0,0,0,99.27,49.58Z" transform="translate(-0.43 -0.15)" style="fill: #f7e5be"/>
          <path d="M90,49.15a61.14,61.14,0,0,0,9.24-.85,49.61,49.61,0,0,0-.89-8.24,66.77,66.77,0,0,0-11.74-1C78,39,69.29,40,60.7,39.59c-8.25-.35-16.57-1.95-24.7-.49C29.88,40.2,24,43,17.82,43c-5.61,0-11-2.25-16.59-2.25a49.66,49.66,0,0,0-.8,8.82c0,.8,0,1.6.06,2.39a63.54,63.54,0,0,1,8.58.84c3.43.58,6.83,1.44,10.31,1.68,4.67.32,9.34-.48,14-1.16,9.56-1.4,19.19-2.25,28.83-2.89Q76.07,49.5,90,49.15Z" transform="translate(-0.43 -0.15)" style="fill: #96d9f2"/>
          <path d="M98.54,41.14a49.07,49.07,0,0,0-1.92-7.54c-1.22-.26-3.63.25-4.94.09-1.93-.24-3.8-.76-5.75-.89-4.59-.32-9,1.5-13.62,1.9-6.05.54-12-1.4-18.08-2C45.6,31.94,37,34,28.4,35.15a36.17,36.17,0,0,1-7.28.45c-2.87-.18-5.67-1-8.53-1.29a27.56,27.56,0,0,0-10,.7,49.17,49.17,0,0,0-1.76,8.2l16.08,1.58a89.27,89.27,0,0,0,12.65.64c5.25-.23,10.41-1.38,15.62-2,7.28-.83,14.62-.57,21.95-.5q13.76.12,27.5-.68A6.74,6.74,0,0,0,98.54,41.14Z" transform="translate(-0.43 -0.15)" style="fill: #c9a481"/>
          <path d="M97.18,35.35q-.7-2.33-1.61-4.55c-1.27,0-2.9.16-3.89.09-1.93-.13-3.8-.41-5.75-.49-4.59-.18-9,.82-13.62,1-6.05.29-12-.76-18.08-1.07C45.6,29.94,37,31,28.4,31.69a66,66,0,0,1-7.28.25c-2.87-.1-5.67-.52-8.53-.7a50.19,50.19,0,0,0-8.71.22,49,49,0,0,0-1.59,4.7l14.64.79c4.21.23,8.43.45,12.65.35,5.25-.13,10.41-.75,15.62-1.08,7.28-.45,14.62-.31,21.95-.27q13.76.07,27.5-.37A18.62,18.62,0,0,0,97.18,35.35Z" transform="translate(-0.43 -0.15)" style="fill: #f7e5be"/>
          <path d="M90,31.86c.57,0,3,0,5.87-.3A49.23,49.23,0,0,0,92,23.77q-2.69-.16-5.4-.18c-8.58-.06-17.31.75-25.9.45-8.25-.28-16.57-1.59-24.7-.4-6.12.9-12,3.2-18.18,3.2-3.76,0-7.42-.83-11.11-1.38a49.13,49.13,0,0,0-3.85,8.79c2.08.12,4.16.31,6.21.59,3.43.47,6.83,1.18,10.31,1.37a80.07,80.07,0,0,0,14-.95c9.56-1.14,19.19-1.84,28.83-2.37Q76.07,32.15,90,31.86Z" transform="translate(-0.43 -0.15)" style="fill: #a16744"/>
          <path d="M89.81,20.5a70.08,70.08,0,0,1-11.14-.33c-3.4-.42-6.72-1.12-10.18-1.31-6.05-.33-12,.9-18,1.35-8.41.62-17.1-.28-25.31,1a19.45,19.45,0,0,1-4.74.4c-1.41-.13-2.64-.62-4-.87a20.34,20.34,0,0,0-6.8.22,49.34,49.34,0,0,0-4.92,8.61c14.18.17,28.38-.11,42.53-.66,6.31-.25,12.65-.55,19-.26,4.53.2,9,.71,13.57.77a99.47,99.47,0,0,0,14.74-1.06A49.39,49.39,0,0,0,89.81,20.5Z" transform="translate(-0.43 -0.15)" style="fill: #f7e5be"/>
          <path d="M8.57,22.41c8.53.37,17.15-.23,25.6.34q13.43.91,26.9.5A118.19,118.19,0,0,0,74.92,22c1.63-.24,14.74-1.67,15.39-.74a49.66,49.66,0,0,0-4.92-6c-2.39,0-4.79.09-7.18.17-4.85.17-9.71.46-14.56.23-4.22-.2-8.4-.78-12.63-.66a104.76,104.76,0,0,0-12.65,1.58c-8.95,1.33-17.24,1.21-26.1.9A49.59,49.59,0,0,0,8.57,22.41Z" transform="translate(-0.43 -0.15)" style="fill: #96d9f2"/>
          <path d="M83.23,13.14c-1.51,0-3-.11-4.56-.24-3.4-.29-6.72-.78-10.18-.91-6.05-.23-12,.63-18,.94-8.41.44-17.1-.19-25.31.68a27.68,27.68,0,0,1-4.74.28c-1.41-.09-2.64-.43-4-.61h-.07a49.69,49.69,0,0,0-5.65,6.18q6,0,12.07,0c3.64,0,7.11.79,10.75.87,10.91.24,21.75-1.84,32.68-1.49,4.53.14,9,.49,13.57.54,3,0,6-.08,9-.27A49.69,49.69,0,0,0,83.23,13.14Z" transform="translate(-0.43 -0.15)" style="fill: #c9a481"/>
          <path d="M49.85.15A49.2,49.2,0,0,0,20,10.19c19.61.43,39.23.51,58.7-.74A49.18,49.18,0,0,0,49.85.15Z" transform="translate(-0.43 -0.15)" style="fill: #f7e5be"/>
          <path d="M75.62,7.4c-2.36-.26-4.71-.54-7.14-.64-2.91-.12-5.82.42-8.69.37-2.69,0-5.1-.66-7.85-.22a13.58,13.58,0,0,1-3.57.36c-1.69-.18-3.35-1.2-5-.73-.9.26-1.63.94-2.52,1.21-2.49.75-5.08-1.85-7.57-1.09a13.56,13.56,0,0,0-1.58.73c-1.86.84-4.57.84-6.6,1.06-1,.11-2.08.25-3.13.29a49.67,49.67,0,0,0-7,5.83c4.56,0,9.2.18,13.75-.12a24,24,0,0,1,4-.27c2.19.22,3.92,1.4,6.24,1,1.47-.24,2.83-1,4.28-1.3C48,12.75,53,15.72,57.9,15.12c3.32-.4,5.89-1.5,9.24-1.22,4.17.35,8.41.49,12.59.53,1.6,0,3.18,0,4.77-.07A49.62,49.62,0,0,0,75.62,7.4Z" transform="translate(-0.43 -0.15)" style="fill: #96d9f2"/>
          <path d="M49.85.15c-.4,0-.8,0-1.2,0a49.41,49.41,0,0,1,0,98.79c.4,0,.8,0,1.2,0a49.42,49.42,0,1,0,0-98.85Z" transform="translate(-0.43 -0.15)" style="fill: #96d9f2"/>
        </g>
        <path d="M49.85.15A49.42,49.42,0,1,0,99.27,49.58,49.42,49.42,0,0,0,49.85.15Zm5.09,90.51a37.06,37.06,0,0,1-8.62,2.47c-5.87.8-14.74.27-20-2.52C10.65,82.38.53,67.34.53,49.58a50,50,0,0,1,17.8-37.77c5.14-4.29,12.29-8.63,19.11-9.35a33,33,0,0,1,4.94-.16c10.69.47,19.84,6.67,26,15.19,1.48,2.06,8,10.2,2.42,10.62q-4.83.36-9.68.42l7.54.53c2.82.2,5.86-.43,6.86,2.54.36,1.08,1.73,3.3-.22,3.54A123,123,0,0,1,60.61,36a84.87,84.87,0,0,0,8.73.3c2.66.11,8.92-.26,8.54,3.66-.21,2.21-2.34,3-4.46,3.21C75.8,43,81,44.07,77,47a6.33,6.33,0,0,1-2.4.91c-7.32,1.68-14.72,3.37-22.22,3.34q11.32-.58,22.65-.79c3.14-.06,3.42.58,3.18,3.48-.14,1.71.12,5.66-1.27,6.91-1.82,1.64-6.58.19-8.61-.28,2.8.38,5,1.91,7.78,2.4.44.08-.08,3.94-.22,4.36-1,3-2.55,7.08-6.4,6.89a80.12,80.12,0,0,0-15.66,1.26c3.81-.46,14.5-1.6,17.25,1.52C67,83,61.77,87.95,54.94,90.66Z" transform="translate(-0.43 -0.15)" style="fill: #a16744;opacity: 0.32;mix-blend-mode: multiply"/>
        <path d="M43.46,6a33.81,33.81,0,0,0-4.79.15c-6.61.67-13.55,4.65-18.54,8.59C9.43,23.21,2.86,36.23,2.86,49.44c0,16.3,9.82,30.12,25,37.67,5.15,2.57,13.75,3.05,19.44,2.32a37.53,37.53,0,0,0,8.36-2.27c16-6,22.78-22.54,22.78-38.13C78.43,29.84,65.41,6.93,43.46,6Z" transform="translate(-0.43 -0.15)" style="fill: #d3be8b;opacity: 0.47000000000000003;mix-blend-mode: overlay"/>
        <path d="M5.89,28.81C.44,41.79,1.45,57.43,9,69.31a19.61,19.61,0,0,0,6.53,6.77,9.62,9.62,0,0,0,9.09.52c4.35-2.32,5.3-8,6.61-12.74A42.74,42.74,0,0,1,46,41.68c5.73-4.48,12.51-7.39,18.73-11.16,4.61-2.8,9.36-6.83,9.54-12.22a11.62,11.62,0,0,0-3.8-8.48A24,24,0,0,0,62.3,5C50.39.41,38.39-.12,27.09,6A47.25,47.25,0,0,0,5.89,28.81Z" transform="translate(-0.43 -0.15)" style="fill: #f5d29b;opacity: 0.41000000000000003;mix-blend-mode: overlay"/>
        <path d="M16.81,28.16c-1.68,4.68-2.43,10.67.43,15.06,3.66,5.64,8.17,1,12.4-1.3l16.63-9.19c3.81-2.11,7.93-4.56,9.36-8.68C57.41,18.9,53.87,13,48.89,10.74,35.35,4.63,21.25,15.76,16.81,28.16Z" transform="translate(-0.43 -0.15)" style="fill: #f5d29b;opacity: 0.41000000000000003;mix-blend-mode: overlay"/>
        <path d="M25.93,20a7.94,7.94,0,0,0-1.74,4.29,3.52,3.52,0,0,0,2.45,3.58c1.32.29,2.62-.44,3.81-1.08a18.2,18.2,0,0,1,7.6-2.37c2.06-.09,4.12.33,6.17.15a8.62,8.62,0,0,0,5.39-2.37,6.23,6.23,0,0,0,1.78-5.49c-1-5-7.68-6.76-12-5.71A23.36,23.36,0,0,0,25.93,20Z" transform="translate(-0.43 -0.15)" style="fill: #f5ead5;opacity: 0.88;mix-blend-mode: overlay"/>
      </g>
    </g>
  </g>
</svg>
