<svg xmlns="http://www.w3.org/2000/svg" viewBox="0 0 97.92 97.92">
  <title>23</title>
  <g style="isolation: isolate">
    <g id="Layer_1" data-name="Layer 1">
      <g>
        <circle cx="48.96" cy="48.96" r="48.96" style="fill: #2083c2"/>
        <path d="M50,1c-.4,0-.79,0-1.19,0a48.94,48.94,0,0,1,0,97.86c.4,0,.79,0,1.19,0A49,49,0,1,0,50,1Z" transform="translate(-1.08 -1.02)" style="fill: #39bced"/>
        <path d="M42.54,3.14a32.7,32.7,0,0,0-4.9.16c-6.75.72-13.84,5-18.93,9.26A49.51,49.51,0,0,0,1.08,50c0,17.59,10,32.5,25.51,40.65,5.26,2.77,14,3.29,19.86,2.5A36.71,36.71,0,0,0,55,90.68c16.38-6.52,23.26-24.32,23.26-41.14C78.25,28.84,64.95,4.12,42.54,3.14Z" transform="translate(-1.08 -1.02)" style="fill: #0098d8"/>
        <path d="M8.48,30.1C3.07,43,4.07,58.45,11.57,70.22A19.42,19.42,0,0,0,18,76.92a9.53,9.53,0,0,0,9,.51c4.31-2.3,5.25-7.9,6.55-12.62a42.34,42.34,0,0,1,14.65-22c5.68-4.43,12.39-7.32,18.55-11.06C71.36,29,76.06,25,76.24,19.69a11.51,11.51,0,0,0-3.77-8.4,23.75,23.75,0,0,0-8.12-4.78C52.55,2,40.66,1.44,29.47,7.51A46.81,46.81,0,0,0,8.48,30.1Z" transform="translate(-1.08 -1.02)" style="fill: #39bced;opacity: 0.47000000000000003;mix-blend-mode: overlay"/>
        <path d="M22.75,18.28A60.52,60.52,0,0,0,19,23.36C14.55,30,10.7,37.62,10.82,45.84a40.88,40.88,0,0,1,3.52-10.55,9.25,9.25,0,0,1,2.29-3.22,3.7,3.7,0,0,1,3.72-.69,3.78,3.78,0,0,1,2,3.38c.15,4.82-2.95,9.4-4,14-1.17,4.94-1.67,10.2-.17,15.06a10.71,10.71,0,0,0,2.54,4.54,5.76,5.76,0,0,0,4.76,1.74c3-.46,4.74-3.65,6-6.45l4.85-11q-3.23,5.8-7,11.3a9.89,9.89,0,0,1-2.56,2.86C21,70.6,19.51,60,19.41,56.73a28.24,28.24,0,0,1,5.17-17.26c.75-1,1.63-2.12,3-2.15a.43.43,0,0,1,.26.05.4.4,0,0,1,.12.18c.47,1.13-.62,3.19.42,4.07,1.43,1.2,4.89-.68,5.83-1.8a9,9,0,0,0,1.53-3.43c1.44-5,4.13-11,10.21-11.73a2.3,2.3,0,0,1,2.56,1.93c0,.61-.31,1.18-.29,1.79,0,1.26,1.42,2,2.65,2.3a17.47,17.47,0,0,0,9.74-.76,46.19,46.19,0,0,0,8.81-4.48A21.89,21.89,0,0,1,55.5,27.82a8.48,8.48,0,0,1-3.9-1.48c-4.14-3.23.47-8,3.81-9.39s7.4-.77,10.64.29c2.94,1,6.59,1.22,8.7-1A.93.93,0,0,0,75,15.7a1,1,0,0,0-.27-.66,24.46,24.46,0,0,0-9.53-7.75c1.57,0,2.67,1.88,2.25,3.39A4.18,4.18,0,0,1,64,13.4a10.2,10.2,0,0,1-4.61-.68,39.44,39.44,0,0,1-6.6-2.88A13.06,13.06,0,0,0,50,8.55C44.27,7,37.24,6.1,32.83,10.8c1.08-1.15,6.82-2.24,8.11-1.14,1.64,1.39.25,4.2-.63,5.6-2.19,3.51-6.52,6.13-10.19,7.82-4.78,2.21-9,1.08-5.65-4.73a35.16,35.16,0,0,1,4.67-6.3C26.59,13.62,24.64,16,22.75,18.28Z" transform="translate(-1.08 -1.02)" style="fill: #39bced;opacity: 0.47000000000000003;mix-blend-mode: overlay"/>
        <path d="M29,52.42c.44-1.35,1.66-4-.42-4.71A2.35,2.35,0,0,0,26,49c-.64,1.19-1,5.91,1.61,5.29C28.37,54.11,28.76,53.2,29,52.42Z" transform="translate(-1.08 -1.02)" style="fill: #39bced;opacity: 0.47000000000000003;mix-blend-mode: overlay"/>
        <path d="M87.16,21.08c-2.53-3.8-5.57-7.15-9.67-9,4.07,4.08,7.16,9.57,7.6,15.39.27,3.53-1.07,11.78-5.18,13-3.34,1-4-1.81-6.13-3.43a9.54,9.54,0,0,0-8.35-1.24c-4.17,1.32-7.28,4.73-10.17,8,2.14-2.14,4.34-4.33,7.1-5.57C72.87,33.45,75.59,46,74.1,53.48a13.11,13.11,0,0,1-4.76,8.16,2.92,2.92,0,0,1-1.94.7c-2.56-.27-1.3-3.31-2.54-4.43-1-.94-2.55-.59-3.81-.49s-6.22,2-5.85-.78c.53-4,4.6-9.45,8.39-10.82a3.23,3.23,0,0,1,2.56,0,2.83,2.83,0,0,1,1.21,3A8.29,8.29,0,0,1,65.79,52a12,12,0,0,0,2.7-3.37,4,4,0,0,0,.4-3.72c-.75-1.33-2.58-1.58-4.1-1.35-5.56.86-9.44,5.79-12.69,10.38-2.67,3.77-5.38,7.75-6,12.32a3.31,3.31,0,0,0,.61,2.87c1.28,1.24,3.37.09,4.73-1.05,2.75-2.31,5.18-5.64,8.94-6.12a1.87,1.87,0,0,1,1.69.41,1.92,1.92,0,0,1,.24,1.54C61,72.3,47.63,84.14,39.26,77.41c-4.36-3.51-2.56-9.83-1.53-14.47.46-2.07,1-4.32,2.71-5.62-3.26,3.37-4.29,8.23-5.37,12.79-1.56,6.59-4.95,15.21-13.34,13a20,20,0,0,1-6.33-3.37A29.32,29.32,0,0,1,9.86,75,11.5,11.5,0,0,1,7,68.38,38.71,38.71,0,0,0,10.83,78C17.07,89,33.34,95.5,45.25,97.22c10.21,1.48,23-2.84,30-10.62,3.57-3.95,5.23-9.06,6.54-14.11,1-3.74,1.28-11.91,4.62-14.35,6.81-5,2.89,17.08,2.36,19.49.46-2.06,2.81-4.6,3.73-6.61a46.18,46.18,0,0,0,2.71-7.71A48.09,48.09,0,0,0,96.55,47a48.68,48.68,0,0,0-5.11-18.55C90.12,26,88.74,23.45,87.16,21.08Z" transform="translate(-1.08 -1.02)" style="fill: #0067a7;opacity: 0.45"/>
        <path d="M19,27.86a13.33,13.33,0,0,0-.74,2.4c.35-1.71,4.29-2,5.4-1.31,2.25,1.5-.61,4.48,1,6.2a.45.45,0,0,0,.3.17c2,0,6.57-7,7.84-8.32,2.66-2.8,5.9-7,9-9.17-3.93,2.78-8.92,8-13.89,8.44-2.63.22-6.08-.77-5.64-4A32.51,32.51,0,0,0,19,27.86Z" transform="translate(-1.08 -1.02)" style="fill: #ecf8fe;mix-blend-mode: overlay"/>
        <path d="M32.55,37.72a5.23,5.23,0,0,0,.73-2,28.1,28.1,0,0,1,3.65-8.84c-1.5,1.56-3.29,2.82-4.74,4.42-1.16,1.28-2.59,3.47-2.48,5.31C29.8,38.08,31.4,39.27,32.55,37.72Z" transform="translate(-1.08 -1.02)" style="fill: #ecf8fe;mix-blend-mode: overlay"/>
        <path d="M45.47,13.53a11.56,11.56,0,0,1-1.29,3.69,11.4,11.4,0,0,1,5.57-2.81,22.4,22.4,0,0,1,6.29-.3,54,54,0,0,0-6.39-3.25c-.81-.35-4.12-1.91-4.83-1C44.46,10.32,45.55,12.78,45.47,13.53Z" transform="translate(-1.08 -1.02)" style="fill: #ecf8fe;mix-blend-mode: overlay"/>
        <path d="M27,49.12a7.33,7.33,0,0,0-.6,3,1.48,1.48,0,0,0,.18.79.58.58,0,0,0,.71.25.78.78,0,0,0,.31-.37,3.57,3.57,0,0,0-.34-3.7Z" transform="translate(-1.08 -1.02)" style="fill: #ecf8fe;mix-blend-mode: overlay"/>
      </g>
    </g>
  </g>
</svg>
