<svg xmlns="http://www.w3.org/2000/svg" viewBox="0 0 95.72 95.18">
  <title>5</title>
  <g style="isolation: isolate">
    <g id="Layer_1" data-name="Layer 1">
      <g>
        <path d="M97.8,51.8c1,7.9-1.67,15-6.3,21.32S81.67,86.69,75.85,91.81c-3.77,3.33-8.54,5.79-13.58,5.83-2.55,0-5.08-.57-7.63-.63-3-.07-6,.6-9,.79-8.42.54-18.68-5-25.05-10.11-4-3.23-6.31-8.08-10-11.28-3.48-3-7-3.41-7.72-9.12-.46-3.9.67-7.79,1.45-11.65s1.17-8.05-.64-11.55A10.22,10.22,0,0,1,2.32,41a6.6,6.6,0,0,1,1-3.8A100,100,0,0,1,19.23,14.41c5.18-5.59,12-10.91,19.59-10a39.77,39.77,0,0,0,12.35-.11c4.67-.84,9.44-2.43,14.19-1.19,3.47.9,6.38,3.21,9.18,5.45L85.15,17.1c2.85,2.29,5.8,4.7,7.31,8s1.4,7.43,1.91,11.2c.69,5.08,2.66,9.92,3.36,15Z" transform="translate(-2.28 -2.66)" style="fill: #435a5c"/>
        <path d="M42.34,8.41a30.54,30.54,0,0,0-4.57.15c-6.3.67-12.92,4.68-17.67,8.65A46.23,46.23,0,0,0,3.63,52.15c0,16.43,9.36,30.34,23.82,38,4.91,2.58,13.11,3.08,18.54,2.33a34.29,34.29,0,0,0,8-2.28c15.29-6.09,21.72-22.7,21.72-38.41C75.68,32.41,63.26,9.32,42.34,8.41Z" transform="translate(-2.28 -2.66)" style="fill: #4f7077"/>
        <path d="M70.27,32.28C66,34.6,63.44,39.68,63.54,44.6c.12,6.3,6.81,20.51,15,18.06,3-.88,4.88-4.14,5.32-7.41,1-7.68-3.43-15.21-7.55-21.33-.76-1.13-1.7-2.33-3-2.5a4.09,4.09,0,0,0-2.07.4Q70.74,32,70.27,32.28Z" transform="translate(-2.28 -2.66)" style="fill: #213436"/>
        <path d="M63.43,25.77c-3.18,3.47-4.94,8.5-7,12.53-.8,1.55-1.61,3.36-.93,5a6,6,0,0,0,1.18,1.61l7.35,8a22.88,22.88,0,0,0,4.63,4.2,7.71,7.71,0,0,0,6,1.14c2.83-.79,4.65-3.69,5.07-6.59s-.29-5.84-1-8.69S77,37.24,76.63,34.41c-.29-2.45.19-4.84-.6-7.3a7,7,0,0,0-4.34-4.7,6.91,6.91,0,0,0-5.42,1A13.16,13.16,0,0,0,63.43,25.77Z" transform="translate(-2.28 -2.66)" style="fill: #657f80"/>
        <path d="M28.26,40.43c1.93-.49,3.75-1.53,5.65-2.19,4.2-1.45,8.79-1.28,12.54-3.94a17.06,17.06,0,0,0,6.33-10.59c.67-4-.66-8.47-4-10.63a10.66,10.66,0,0,0-8.35-1,27.16,27.16,0,0,0-7.75,3.77c-3.88,2.49-7.68,5.25-10.52,8.9-2.59,3.31-4.54,8-2.32,12.07a7.49,7.49,0,0,0,6.47,3.87A8.32,8.32,0,0,0,28.26,40.43Z" transform="translate(-2.28 -2.66)" style="fill: #435a5d"/>
        <path d="M27.55,42c1-.4,1.95-1,3-1.41,2.74-1.08,5.91-.58,8.65-1.64a13.52,13.52,0,0,0,5-3.87c2.39-2.68,4.49-5.79,5.09-9.33s-.59-7.57-3.62-9.5a9.64,9.64,0,0,0-7.51-.88,24.48,24.48,0,0,0-7,3.37,37,37,0,0,0-9.46,7.95c-2.06,2.62-4.93,7.84-3.92,11.36C18.8,41.7,24.32,43.23,27.55,42Z" transform="translate(-2.28 -2.66)" style="fill: #657f80"/>
        <path d="M39.17,38.9a13.52,13.52,0,0,0,5-3.87c2.39-2.68,4.49-5.79,5.09-9.33s-.59-7.57-3.62-9.5a9.64,9.64,0,0,0-7.51-.88,19.46,19.46,0,0,0-4.81,2.06L33,28s2.39,4.3,2.39,8.36a31.65,31.65,0,0,1-.17,3.33A14.69,14.69,0,0,0,39.17,38.9Z" transform="translate(-2.28 -2.66)" style="fill: #344949;opacity: 0.55"/>
        <path d="M89.2,69.87l-4.8,7.82a59.92,59.92,0,0,1-6.75,9.55,30.17,30.17,0,0,1-16.48,9.1,16.52,16.52,0,0,0-3.64.91,37.86,37.86,0,0,0,4.75.39c5,0,9.8-2.51,13.58-5.83,5.82-5.13,11-12.43,15.64-18.69s7.28-13.43,6.3-21.32l-.06-.48c-.7-5.08-2.68-9.92-3.36-15-.51-3.77-.33-7.74-1.91-11.2s-4.47-5.74-7.31-8L74.54,8.57c-2.8-2.25-5.7-4.55-9.18-5.45A16.92,16.92,0,0,0,59,2.83a20.57,20.57,0,0,1,5.91,2.93c2.72,2,5.2,4.36,8.28,5.68a22.38,22.38,0,0,1,3.26,1.44c2.76,1.75,3.72,5.34,6.07,7.61,2,2,5.08,2.9,6.56,5.33,1.3,2.13,1,4.82,1.29,7.3.49,4.36,2.82,8.27,4,12.49A25.13,25.13,0,0,1,93.85,61,49.93,49.93,0,0,1,89.2,69.87Z" transform="translate(-2.28 -2.66)" style="fill: #fff;opacity: 0.48;mix-blend-mode: overlay"/>
        <path d="M17,32.75c-.18,2.09-.11,4.54,1.57,5.79a4.34,4.34,0,0,0,4,.39A12,12,0,0,0,26,36.72c2.87-2.34,5.67-4.83,9-6.51,2.38-1.21,5-2,7.26-3.38s4.28-3.65,4.4-6.32c.13-2.88-2-5.49-4.64-6.71s-5.6-1.32-8.48-1.24C22.21,12.89,17.87,22.54,17,32.75Z" transform="translate(-2.28 -2.66)" style="fill: #a2bec3"/>
        <path d="M17.68,31.38c-.17,1.89-.1,4.1,1.42,5.23a3.92,3.92,0,0,0,3.59.35,10.87,10.87,0,0,0,3.16-2A47.36,47.36,0,0,1,34,29.08c2.15-1.1,4.5-1.8,6.56-3.06s3.87-3.3,4-5.71c.12-2.6-1.83-5-4.19-6.06a16.89,16.89,0,0,0-7.66-1.12C22.41,13.42,18.49,22.14,17.68,31.38Z" transform="translate(-2.28 -2.66)" style="fill: #435a5f"/>
        <path d="M40.52,26c2.06-1.26,3.87-3.3,4-5.71.12-2.6-1.83-5-4.19-6.06a16.89,16.89,0,0,0-7.66-1.12,15.39,15.39,0,0,0-4.16.67c.63,1.08,1.88,2.28,2.3,3.25a13.89,13.89,0,0,1,1,6.33c-.13,2.12-.54,4.45.65,6.22.06.09.14.17.2.25.45-.27.9-.53,1.36-.77C36.11,28,38.46,27.29,40.52,26Z" transform="translate(-2.28 -2.66)" style="fill: #304447"/>
        <path d="M35.85,20.08c-2.54-.1-4.9,1.32-6.8,3a23,23,0,0,0-5.17,6.66,8.36,8.36,0,0,0-1.07,3.39,3.37,3.37,0,0,0,1.34,3.08A18.11,18.11,0,0,0,25.85,35,47.35,47.35,0,0,1,34,29.08C36,28,38.31,27.33,40.32,26.14a4,4,0,0,0,.36-1.27C40.94,22.34,38.39,20.18,35.85,20.08Z" transform="translate(-2.28 -2.66)" style="fill: #182326"/>
        <path d="M63.68,42.46a20.67,20.67,0,0,0,2.56,7.42c1.4,2.83,3.18,6,6.26,6.66,2.8.63,5.67-1.13,7.4-3.42,3-3.94,3.46-9.45,1.87-14.13-.68-2-1.7-3.88-2.23-5.92-.58-2.27-.56-4.73-1.66-6.8C75.53,21.85,68.51,21.51,66,26,63.58,30.37,63.32,37.64,63.68,42.46Z" transform="translate(-2.28 -2.66)" style="fill: #a2bec3"/>
        <path d="M65.4,42.17a18.48,18.48,0,0,0,2.29,6.63c1.25,2.53,2.84,5.34,5.6,6,2.51.56,5.07-1,6.62-3.05a13.83,13.83,0,0,0,1.67-12.63c-.61-1.79-1.52-3.47-2-5.29-.52-2-.5-4.23-1.48-6.08-2.11-4-8.39-4.26-10.64-.2C65.31,31.36,65.07,37.86,65.4,42.17Z" transform="translate(-2.28 -2.66)" style="fill: #304447"/>
        <path d="M67.68,48.8A17.11,17.11,0,0,0,70.37,53c1.16-.41,2.57.12,3.85,0,2.08-.23,3.57-2.3,3.8-4.38a12.05,12.05,0,0,0-1.34-6,20.84,20.84,0,0,1-2-5.9c-.17-1.55,0-3.24-.82-4.54-2.29-3.43-6.51-.63-8.29,2.06a41.78,41.78,0,0,0-.16,8A18.48,18.48,0,0,0,67.68,48.8Z" transform="translate(-2.28 -2.66)" style="fill: #182326"/>
        <path d="M34.93,76.15c-7.81-1.64-12.27,7-4.6,12.15,5.86,3.92,11.33,5.1,18.09,5.08,4.16,0,8.83-.39,11.62-4a2.9,2.9,0,0,0,.6-1.15c.27-1.28-.8-2.39-1.82-2.93-3.79-2-8.37-.82-12.14-2.85-1.73-.93-3.16-2.48-4.8-3.61A18.86,18.86,0,0,0,34.93,76.15Z" transform="translate(-2.28 -2.66)" style="fill: #a2bec3"/>
        <path d="M34.93,78.69c-7.81-1.4-12.27,6-4.6,10.37,5.86,3.34,11.33,4.35,18.09,4.33,4.16,0,8.83-.34,11.62-3.43a2.37,2.37,0,0,0,.6-1c.27-1.09-.8-2-1.82-2.5-3.79-1.69-8.37-.7-12.14-2.43-1.73-.8-3.16-2.11-4.8-3.08A20.9,20.9,0,0,0,34.93,78.69Z" transform="translate(-2.28 -2.66)" style="fill: #1e2b2c"/>
        <path d="M56.14,87.8a1,1,0,0,0,.44-1.31,1.48,1.48,0,0,0-.78-.53l-1.3-.5c-2.66-.3-5.42-.29-7.84-1.4-1.73-.8-3.16-2.11-4.8-3.08a20.91,20.91,0,0,0-6.94-2.29,10.36,10.36,0,0,0-2.73-.14c-.82,1-1,2.45.14,4.49s3.33,3.17,5.53,3.87c5.38,1.72,11.16,1.48,16.81,1.22A3,3,0,0,0,56.14,87.8Z" transform="translate(-2.28 -2.66)" style="fill: #081316"/>
        <path d="M74,53a28.52,28.52,0,0,0-1.08-3.63,40.61,40.61,0,0,1-2.1-16.61,15.2,15.2,0,0,1,.38-2.21c-2.1-.08-4.45,1.81-5.66,3.64a41.78,41.78,0,0,0-.16,8,18.48,18.48,0,0,0,2.29,6.63A17.11,17.11,0,0,0,70.37,53C71.48,52.62,72.8,53.07,74,53Z" transform="translate(-2.28 -2.66)" style="fill: #081316"/>
        <path d="M6.67,55.12a45.6,45.6,0,0,0,3.61,9,2.67,2.67,0,0,0,.85,1.14.93.93,0,0,0,1.27-.19,1.34,1.34,0,0,0,.11-.73,18,18,0,0,1,.19-4.92c.75-3.18,3.37-6,2.83-9.25A6,6,0,0,0,12.43,46C5.33,42.09,5.42,50.12,6.67,55.12Z" transform="translate(-2.28 -2.66)" style="fill: #62837d"/>
        <path d="M6.86,54.47a37.58,37.58,0,0,0,3.08,7.36,2.21,2.21,0,0,0,.71.93.76.76,0,0,0,1-.17,1.1,1.1,0,0,0,.08-.6,14.86,14.86,0,0,1,.1-4.06c.58-2.63,2.71-5,2.22-7.66a5,5,0,0,0-2.6-3.35C5.6,43.75,5.77,50.36,6.86,54.47Z" transform="translate(-2.28 -2.66)" style="fill: #182326"/>
        <path d="M20.41,47.12a2.48,2.48,0,0,0-1.55,3,2.21,2.21,0,0,0,3,1.29,2.24,2.24,0,0,0,1-2.58A2.67,2.67,0,0,0,20.63,47Z" transform="translate(-2.28 -2.66)" style="fill: #2c3f3c"/>
        <path d="M36.8,46a1.65,1.65,0,0,0-.28,1c.11,1.08,1.63,1.15,2.67,1.47,1.54.48,2.42,2.05,3.5,3.26a7.73,7.73,0,0,0,4.65,2.56,5.85,5.85,0,0,0,5-1.65c3.33-3.5.65-10.92-3.81-12.25C45,39.28,38.53,43,36.8,46Z" transform="translate(-2.28 -2.66)" style="fill: #657f80"/>
        <path d="M36.77,45.5a1.51,1.51,0,0,0-.26.88c.1,1,1.49,1.05,2.45,1.35,1.42.44,2.22,1.88,3.21,3a7.09,7.09,0,0,0,4.26,2.35A5.37,5.37,0,0,0,51,51.55c3-3.21.6-10-3.49-11.24C44.26,39.35,38.37,42.73,36.77,45.5Z" transform="translate(-2.28 -2.66)" style="fill: #304447"/>
        <path d="M55.31,55a1.6,1.6,0,1,1-.84,2.64A1.69,1.69,0,0,1,55.31,55Z" transform="translate(-2.28 -2.66)" style="fill: #304447"/>
        <path d="M32.79,73.09a9.63,9.63,0,0,1,1.43-4.29,3.3,3.3,0,0,1,4-1.23,4.83,4.83,0,0,1,1.68,2L42.42,74a2.45,2.45,0,0,1-2.69.62,12.88,12.88,0,0,0-2.83-.79c-.87,0-1.72.31-2.58.23s-1.78-.9-1.45-1.7Z" transform="translate(-2.28 -2.66)" style="fill: #657f80"/>
        <path d="M33.27,72.13a9.63,9.63,0,0,1,1.43-4.29,3.3,3.3,0,0,1,4-1.23,4.83,4.83,0,0,1,1.68,2L42.9,73a2.45,2.45,0,0,1-2.69.62,12.88,12.88,0,0,0-2.83-.79c-.87,0-1.72.31-2.58.23s-1.78-.9-1.45-1.7Z" transform="translate(-2.28 -2.66)" style="fill: #304447"/>
        <path d="M53.51,18.89a1.46,1.46,0,0,0,2,1.66,1.32,1.32,0,1,0-2-1.67Z" transform="translate(-2.28 -2.66)" style="fill: #304447"/>
        <path d="M33.23,93.06c-12.15-9-19.42-23.75-20.68-38.81S15.69,24,23.43,11A17.66,17.66,0,0,1,25,9.07a46.5,46.5,0,0,0-5.79,5.34A100,100,0,0,0,3.32,37.24a6.6,6.6,0,0,0-1,3.8,10.22,10.22,0,0,0,1.37,3.06c1.8,3.49,1.42,7.69.64,11.55S2.42,63.4,2.88,67.31c.67,5.7,4.23,6.1,7.72,9.12,3.7,3.2,6,8,10,11.28a50.24,50.24,0,0,0,17.53,9.24A44.78,44.78,0,0,0,33.23,93.06Z" transform="translate(-2.28 -2.66)" style="fill: #8aa69e;opacity: 0.4;mix-blend-mode: screen"/>
        <path d="M66.74,69q-3.45,1.87-6.82,3.87a4.83,4.83,0,0,0-2.08,1.89,1.7,1.7,0,0,0,.84,2.35c.6.15,1.22-.17,1.83-.15,1.52.05,2.26,2,3.67,2.57a3.08,3.08,0,0,0,3.21-.85,8.63,8.63,0,0,0,1.75-3c.62-1.54,1.21-3.26.65-4.83s-2.85-2.5-3.93-1.24Z" transform="translate(-2.28 -2.66)" style="fill: #657f80"/>
        <path d="M67,67.55q-3.45,1.87-6.82,3.87a4.82,4.82,0,0,0-2.08,1.89,1.7,1.7,0,0,0,.84,2.35c.6.15,1.22-.17,1.83-.15,1.52.05,2.26,2,3.67,2.57a3.08,3.08,0,0,0,3.21-.85,8.63,8.63,0,0,0,1.75-3c.62-1.54,1.21-3.26.65-4.83s-2.85-2.5-3.93-1.24Z" transform="translate(-2.28 -2.66)" style="fill: #304447"/>
        <path d="M81.32,71.7c.49.34,1.11-.12,1.69-.28a5.47,5.47,0,0,1,1.29-.08,5.7,5.7,0,0,0,4.37-2.83,16.84,16.84,0,0,0,1.85-5.06,4,4,0,0,0,.14-2.08,1.39,1.39,0,0,0-1.58-1.05,2,2,0,0,0-.78.55c-1.57,1.55-3.39,3-4.85,4.72C82.66,66.51,79.68,70.56,81.32,71.7Z" transform="translate(-2.28 -2.66)" style="fill: #4f7077"/>
        <path d="M89.86,53.5a1.29,1.29,0,1,1-.63,2.15,1.36,1.36,0,0,1,.63-2.15Z" transform="translate(-2.28 -2.66)" style="fill: #4f7077"/>
        <path d="M19.74,70.4a2.51,2.51,0,0,0,1.26.2c2-.16,4.24-3.14,2.89-4.81-1-1.3-4.49-1.37-5.35.14C17.76,67.28,18.27,69.73,19.74,70.4Z" transform="translate(-2.28 -2.66)" style="fill: #304447"/>
        <path d="M29.44,56.38a1.06,1.06,0,0,0-.59.88.77.77,0,1,0,1.28-.83l-1.16,0Z" transform="translate(-2.28 -2.66)" style="fill: #304447"/>
        <path d="M52.63,27.48A26,26,0,0,1,41.05,37a64.1,64.1,0,0,1-14.61,4.14c-2.66.5-5.68.88-7.84-.74-2.88-2.17-2.6-6.5-2-10.06,1.06-6.63,2.48-13.9,7.77-18-5.52.62-8.73,6-11.79,10.09A100,100,0,0,0,3.32,37.24a6.6,6.6,0,0,0-1,3.8,10.22,10.22,0,0,0,1.37,3.06,14,14,0,0,1,1.7,6c-.58-4.26,2.78-6.51,6.57-4.78,6.3,2.88,2.33,8.68,1,13.22-.52,1.76,1,8.34-2.89,4.88C7.9,61.55,7.51,58,6.55,55.39c1.1,3,1.17,5.78,3,8.58,1,1.48,4.49,6.32,6.68,5.89,1.3-.25,1.73-3,2.57-4.16a5.07,5.07,0,0,1,3.81-2.22,3.11,3.11,0,0,1,3.18,2.65c.11,1.8-1.61,3.08-2.64,4.56a8.58,8.58,0,0,0-.82,7.22A22.09,22.09,0,0,0,26,84.46c-2.57-3.55,1.38-7.69,4.2-9.39a9.07,9.07,0,0,1,3.33-1.39,10.21,10.21,0,0,1,2.41,0l3.58.34a6.26,6.26,0,0,0-3.87-1.44,1.89,1.89,0,0,1-1.13-.22c-.44-.33-.43-1-.38-1.54.74-7.32,7.16-3.27,11.23-1.36,4.83,2.27,13.23,3.1,17.35-1a32.41,32.41,0,0,1-4.32.76,6,6,0,0,1-4.15-1.11c-4.39-3.57,2-9.27,4.89-11.23a14.32,14.32,0,0,1,6.3-2.51c2.56-.13,5,1.68,7.55,2.07a10.19,10.19,0,0,1-6.81-4.71c-4.58-7.11-4.27-15.7-1.66-23.45a10.72,10.72,0,0,1,2-3.82c.88-1,2.21-1.21,3-2.15-5.74.67-9.67,7.07-11.9,11.77-1.3,2.75-4.84,6.7-7.55,2.78C47.84,33.79,51.1,29.94,52.63,27.48Z" transform="translate(-2.28 -2.66)" style="fill: #fff;opacity: 0.30000000000000004;mix-blend-mode: overlay"/>
        <path d="M92.52,25.24l0-.11C91,21.8,88,19.39,85.15,17.1L74.54,8.57c-2.8-2.25-5.7-4.55-9.18-5.45-4.75-1.24-9.52.35-14.19,1.19a39.77,39.77,0,0,1-12.35.11c-4.71-.58-9.14,1.27-13.06,4.09,3.41-.57,8.62-2,10.26-2q9.33-.41,18.67-.06c1.3,0,2.93.36,3.24,1.63.13.53,0,1.1.06,1.64.34,2.11,3.38,1.89,5.51,1.8,3.94-.17,7.52,2.05,11,3.81C80.7,18.33,87.86,20.52,92.52,25.24Z" transform="translate(-2.28 -2.66)" style="fill: #fff;opacity: 0.48;mix-blend-mode: overlay"/>
      </g>
    </g>
  </g>
</svg>
