<svg xmlns="http://www.w3.org/2000/svg" viewBox="0 0 95.83 95.83">
  <title>6</title>
  <g style="isolation: isolate">
    <g id="Layer_1" data-name="Layer 1">
      <g>
        <circle cx="47.91" cy="47.91" r="47.91" style="fill: #4bbba8"/>
        <path d="M50.09,2.17l-1.16,0a47.9,47.9,0,0,1,0,95.77l1.16,0a47.91,47.91,0,0,0,0-95.83Z" transform="translate(-2.17 -2.17)" style="fill: #eef19e"/>
        <path d="M42.75,2.82A32,32,0,0,0,38,3c-6.61.7-13.54,4.91-18.53,9.07A48.45,48.45,0,0,0,2.17,48.66c0,17.22,9.81,31.8,25,39.78,5.15,2.71,13.74,3.22,19.43,2.45a35.93,35.93,0,0,0,8.36-2.39c16-6.38,22.77-23.8,22.77-40.26C77.69,28,64.68,3.78,42.75,2.82Z" transform="translate(-2.17 -2.17)" style="fill: #70c4b8"/>
        <path d="M22,17.66A51.53,51.53,0,0,0,9.85,33.08c-5.57,11.07-6.36,24.8-.64,35.79-2.63-10.12-3.73-21.3.9-30.68,2.69-5.44,8.8-15.24,14.06-18.38,6.08-3.64,5.12.34,3.11,4.15A129.19,129.19,0,0,1,11.62,46.59l11.19-13c1.42-1.65,2.92-3.36,4.94-4.15a3.44,3.44,0,0,1,2.85,0,3.11,3.11,0,0,1,1.38,3c-.72,8.44-10.7,14.87-15.32,21.19A121.64,121.64,0,0,1,31.49,41.15c1.38-1,6.61-4.66,7.21-.63.36,2.39-7,10.25-8.71,12.34C25.33,58.56,20.27,64,15.11,69.23c6.53-6.65,15-10.92,21.12-18.18,5.59-6.68,11.67-12.81,16.88-19.89C58,24.52,63,17.72,65.37,9.84A38,38,0,0,1,54.56,26.55C51.07,29.63,45,35.95,40,34.82c-1.16-2.48.65-5.27,2.36-7.41l8.93-11.15c1.33-1.66,2.72-3.51,2.65-5.63s-2.54-4.14-4.3-3c.62-.77,2-.3,2.39.61a3.79,3.79,0,0,1-.28,2.88c-1.64,4-8.55,13.5-13.43,13.79-8.71.53,1.89-11.6,4.18-13.76-2.81,3.14-6.3,6.55-10.48,6.1,2.08-5.36,6.55-8.12,11.57-10.14-2.65,1.07-5.75.24-8.77,1.8a65.12,65.12,0,0,0-10.21,6.51Q23.29,16.52,22,17.66Z" transform="translate(-2.17 -2.17)" style="fill: #eef19e;opacity: 0.47000000000000003;mix-blend-mode: overlay"/>
        <path d="M86.56,21.8c-2.48-3.72-5.46-7-9.46-8.85,2.14,1,4.06,4.69,3.94,6.93-.19,3.48-2.91,6-5.42,8L71.7,31.09c2.29-1.76,6.3-2.4,9-3.42,1.27,1.47,1,3.78.46,5.54-1.53,5.44-5.37,9.87-9.1,14.12a81.72,81.72,0,0,1,9.51-6c0,2.49-1.51,4.72-3.2,6.56-2.35,2.55-4.08,4.5-5.26,7.74-.78,2.14-1.9,5-4,6.14-2.39,1.36-4.06.23-2.48-2.3l4.81-7.7c-2.84,3-6.06,6.18-10.18,6.54a1.68,1.68,0,0,1-1.16-.21c-.76-.57-.26-1.77.3-2.55L74.55,35.87c-2.69,2.7-7.58,9.53-12,9.51a50,50,0,0,0,2.76-7.7c.25-1.14.19-2.71-.94-3a2.41,2.41,0,0,0-2,.76C46.85,48,33.36,63.59,15.32,72.16c8.46-1.54,15.68-7,22-12.8S49.43,47,56.73,42.45a2.84,2.84,0,0,1,2.63-.56c1.31.64.91,2.6.27,3.91a59.6,59.6,0,0,1-9.44,13.88c-3.19,3.51-5.36,7.35-8.33,11C40,73,38,75.58,38.26,78.5a.77.77,0,0,0,.14.45.73.73,0,0,0,.55.19c1.53,0,2.82-1.06,3.94-2.09a74.71,74.71,0,0,0,8.29-8.36C52.87,66.56,56.92,62,60,62c.79-.28,1.88-.38,2.24.37a1.74,1.74,0,0,1-.31,1.56,18.86,18.86,0,0,1-2.79,3.65,12.92,12.92,0,0,1,4.81-3.28c1.92,3.81-3.19,9-6.11,10.95A182,182,0,0,0,74.29,62.68C68,70.12,60.15,76.14,52.41,82.1c-3.4,2.62-6.88,5.28-11,6.62l12-13c.8-.87,1.64-2.12,1-3.11-5,3.67-10,8.12-15.36,11.21C37,85,29.32,86.68,28,84a2.79,2.79,0,0,1,.15-2.27c2.81-7.12,10.51-11.06,14.57-17.55A150.92,150.92,0,0,1,25.72,77c-2.29,1.48-5.11,4.19-7.93,3.26-2.37-.78-5.31-3.83-6.88-5.69a11.26,11.26,0,0,1-2.83-6.46,37.89,37.89,0,0,0,3.79,9.4c6.11,10.73,22,17.14,33.68,18.83,10,1.44,22.52-2.78,29.41-10.39,3.5-3.86,5.12-8.87,6.4-13.81.95-3.66,1.26-11.66,4.52-14,6.66-4.88,2.83,16.72,2.31,19.07.45-2,2.75-4.5,3.65-6.47a45.21,45.21,0,0,0,2.65-7.55,47.07,47.07,0,0,0,1.27-15.91,47.64,47.64,0,0,0-5-18.16C89.46,26.62,88.11,24.12,86.56,21.8Z" transform="translate(-2.17 -2.17)" style="fill: #289b8f"/>
      </g>
    </g>
  </g>
</svg>
