<svg xmlns="http://www.w3.org/2000/svg" viewBox="0 0 95.57 95.57">
  <title>7</title>
  <g style="isolation: isolate">
    <g id="Layer_1" data-name="Layer 1">
      <g>
        <g>
          <circle cx="47.79" cy="47.79" r="47.79" style="fill: #4f4c83"/>
          <path d="M84.11,83.63a48.05,48.05,0,0,0,4.28-4.94c-7.35-.14-14.69-.22-22,.1A115,115,0,0,1,54.83,79c-3.34-.19-6.65-.75-10-.64a68.72,68.72,0,0,0-10,1.53c-7.24,1.31-13.93,1.17-21.11.86a48.07,48.07,0,0,0,4.94,5c12.14.24,24.55-.31,29-.33C58.91,85.42,70.14,85,81.28,84,82.21,83.87,83.16,83.76,84.11,83.63Z" transform="translate(-2.43 -2.17)" style="fill: #e8b2ac"/>
          <path d="M61.79,82.58a53,53,0,0,1-7.82.22c-2.27-.19-4.51-.75-6.79-.64a33,33,0,0,0-6.8,1.53c-5.57,1.49-10.67,1.1-16.31.73-.66,0-4.08-.25-7.36-.4A48,48,0,0,0,23,89.21c9.82,1,22.29.08,26.14.05a176,176,0,0,0,22.8-1.51,74.72,74.72,0,0,0,10.69-2.68c.83-.76,1.62-1.56,2.4-2.38C77.26,82.54,69.52,82.09,61.79,82.58Z" transform="translate(-2.43 -2.17)" style="fill: #9c7eaf"/>
          <path d="M71.68,86.81c-2.85.7-5.09-.83-8-.24-2.46.5-4.7,2.09-7.32,1.53-1.52-.32-2.74-1.38-4.26-1.7-1.68-.35-3.4.28-5,.79A46.84,46.84,0,0,1,27.75,89a48.64,48.64,0,0,0-5.88-.57A47.83,47.83,0,0,0,27.46,92c7.81,1,19.08.27,22.35.25a158.13,158.13,0,0,0,17.66-1c5.77-.72,9.63-2.14,14.11-5.68a40,40,0,0,0-9.84,1.25Z" transform="translate(-2.43 -2.17)" style="fill: #3e347b"/>
          <path d="M50.21,97.74a47.55,47.55,0,0,0,26-7.69c-5-1.83-11.54,3.93-17.37,2.68C56.41,92.22,54.46,90.52,52,90c-2.68-.55-5.41.44-8,1.27A70.34,70.34,0,0,1,31.66,94,47.64,47.64,0,0,0,50.21,97.74Z" transform="translate(-2.43 -2.17)" style="fill: #c88493"/>
          <path d="M92.16,72.86a30.9,30.9,0,0,0-6.81-.45l-16.42.16a95.08,95.08,0,0,1-16.8-.83c-2.47-.42-5-1-7.42-.28-1.71.54-3.15,1.72-4.84,2.33a15.11,15.11,0,0,1-4.33.64L13.28,75.54a24.66,24.66,0,0,1-3.54-.2,48,48,0,0,0,5.68,7.34,43.78,43.78,0,0,0,5.1.08,115.67,115.67,0,0,0,13.68-.9c2.71-.4,5.4-1,8.13-1.21a74.9,74.9,0,0,1,9.78.13,151.54,151.54,0,0,0,26.13-.9,35.32,35.32,0,0,0,11.5-3Q91,74.9,92.16,72.86Z" transform="translate(-2.43 -2.17)" style="fill: #9c7eaf"/>
          <path d="M92,69.51c-5.87-.52-11.67,1.66-17.54.79-2.5-.37-4.91-1.3-7.43-1.49-2.69-.21-5.44.41-8.09-.09-3.77-.71-7.33-3.65-11-2.58a29.91,29.91,0,0,0-3.25,1.5c-2.56,1.09-5.46.86-8.24.75-9.77-.39-19.49.91-29.15,2.54a47.7,47.7,0,0,0,2.83,5,36.13,36.13,0,0,1,5.91.73c2.3.51,4.53,1.35,6.85,1.74,6,1,12.07-1.05,18.05-2.29,16-3.31,32.56-.73,48.88-1.27a8.51,8.51,0,0,0,1.3-.15,47.66,47.66,0,0,0,2.58-4.9A10.75,10.75,0,0,0,92,69.51Z" transform="translate(-2.43 -2.17)" style="fill: #e8b2ac"/>
          <path d="M80.67,64.7c-3-.12-5.18,1.83-7.93,1.77s-3.84-4.2-6.56-4.67c-1.24-.22-2.46.41-3.69.66-2.85.58-5.66-.86-8.41-1.82s-6.23-1.3-8.16.88c-1,1.13-1.48,2.84-2.89,3.38-1.87.72-3.69-1.19-5.66-1.54s-3.68.79-5.49,1.42c-4.84,1.69-10.27-.1-15.26,1A45.55,45.55,0,0,1,11.92,67a22.16,22.16,0,0,1-5.15-.32c-.46-.05-.92-.08-1.37-.11A47.49,47.49,0,0,0,7.88,72.1a419.26,419.26,0,0,0,55.74-.65,82.13,82.13,0,0,1,13.55-.39c3.14.27,6.25.94,9.4,1.1a37.15,37.15,0,0,0,6.18-.42,47.44,47.44,0,0,0,2.87-6.87C91,64,83.25,64.8,80.67,64.7Z" transform="translate(-2.43 -2.17)" style="fill: #c88493"/>
          <path d="M86.58,55c-2,.36-3.9,1.27-5.92,1.56-4.79.69-9.51-2.16-14.33-1.75a18.94,18.94,0,0,1-3.67.28C61,55,59.57,54,58,53.3a13.26,13.26,0,0,0-11.77.61c-1.44.83-2.86,2-4.52,1.94a11.41,11.41,0,0,1-3.1-.87c-4-1.25-8.18.51-12.1,1.93S18,59.38,14.57,57c-1.29-.9-2.63-2.31-4.12-1.82-1,.31-1.49,1.31-2.25,2-1.32,1.17-3.14,1.25-5,1.2A47.45,47.45,0,0,0,6.25,68.69c28.92,1.25,58,2.48,86.71-1.41a19.36,19.36,0,0,0,1.92-.34A47.48,47.48,0,0,0,97.76,54.7C94.06,54.74,90.11,54.42,86.58,55Z" transform="translate(-2.43 -2.17)" style="fill: #9c7eaf"/>
          <path d="M98,50c0-1,0-2-.11-3-6.61.33-13,1.49-19.82.1-3.29-.68-6.5-1.8-9.84-2.11-5.85-.54-11.61,1.46-17.45,2.18-8.13,1-16.53-.45-24.47,1.56a11.58,11.58,0,0,1-4.58.64,30.38,30.38,0,0,1-3.87-1.4c-4.58-1.39-9.33,2.06-14.1,1.63-.44,0-.88-.11-1.32-.19,0,.21,0,.42,0,.62A47.87,47.87,0,0,0,4,62c.7.05,1.4.08,2.08.09,13.88.29,27.76-.16,41.61-1.07A131.27,131.27,0,0,1,66,60.61c4.38.33,8.73,1.14,13.12,1.24,6.08.14,12.07-1.1,18-2.61A48,48,0,0,0,98,50Z" transform="translate(-2.43 -2.17)" style="fill: #e8b2ac"/>
          <path d="M89,49.54A59.12,59.12,0,0,0,98,48.72a48,48,0,0,0-.86-8,64.56,64.56,0,0,0-11.35-1c-8.29-.07-16.74.89-25,.54-8-.34-16-1.88-23.88-.47-5.92,1.06-11.57,3.78-17.58,3.78-5.43,0-10.63-2.18-16-2.18A48,48,0,0,0,2.43,50c0,.78,0,1.55.06,2.32a61.46,61.46,0,0,1,8.3.81c3.32.56,6.61,1.39,10,1.62,4.52.31,9-.47,13.51-1.12,9.24-1.35,18.56-2.18,27.88-2.8Q75.57,49.88,89,49.54Z" transform="translate(-2.43 -2.17)" style="fill: #c88493"/>
          <path d="M97.29,41.79a47.43,47.43,0,0,0-1.86-7.29c-1.18-.25-3.51.24-4.77.09-1.86-.23-3.68-.73-5.55-.86-4.43-.31-8.74,1.45-13.17,1.84-5.85.52-11.63-1.35-17.48-1.89-8.35-.77-16.67,1.17-25,2.33a35,35,0,0,1-7,.44c-2.78-.18-5.49-.93-8.25-1.25a26.65,26.65,0,0,0-9.64.67,47.52,47.52,0,0,0-1.7,7.92l15.55,1.53a86.31,86.31,0,0,0,12.24.62c5.07-.22,10.06-1.34,15.11-1.91,7-.8,14.14-.55,21.22-.49q13.3.12,26.59-.66A6.52,6.52,0,0,0,97.29,41.79Z" transform="translate(-2.43 -2.17)" style="fill: #9c7eaf"/>
          <path d="M96,36.19q-.68-2.25-1.56-4.4c-1.22,0-2.8.15-3.76.09-1.86-.12-3.68-.4-5.55-.47-4.43-.17-8.74.79-13.17,1-5.85.28-11.63-.74-17.48-1-8.35-.42-16.67.64-25,1.27a63.77,63.77,0,0,1-7,.24c-2.78-.1-5.49-.51-8.25-.68a48.53,48.53,0,0,0-8.42.21A47.34,47.34,0,0,0,4.23,37l14.16.76c4.07.22,8.15.44,12.24.34,5.07-.12,10.06-.73,15.11-1,7-.44,14.14-.3,21.22-.27q13.3.06,26.59-.36A18,18,0,0,0,96,36.19Z" transform="translate(-2.43 -2.17)" style="fill: #e8b2ac"/>
          <path d="M89,32.82c.55,0,2.94,0,5.67-.29A47.6,47.6,0,0,0,91,25q-2.6-.16-5.22-.17c-8.29-.06-16.74.72-25,.44-8-.27-16-1.54-23.88-.39C30.91,25.75,25.26,28,19.24,28c-3.64,0-7.18-.8-10.74-1.33a47.51,47.51,0,0,0-3.72,8.5c2,.11,4,.3,6,.57,3.32.46,6.61,1.14,10,1.33a77.41,77.41,0,0,0,13.51-.92c9.24-1.1,18.56-1.78,27.88-2.29Q75.57,33.1,89,32.82Z" transform="translate(-2.43 -2.17)" style="fill: #4f4c83"/>
          <path d="M88.85,21.84a67.76,67.76,0,0,1-10.77-.32c-3.29-.41-6.5-1.08-9.84-1.26-5.85-.32-11.61.87-17.45,1.31-8.13.6-16.53-.27-24.47.94a18.81,18.81,0,0,1-4.58.39c-1.36-.13-2.56-.6-3.87-.84a19.67,19.67,0,0,0-6.58.21,47.71,47.71,0,0,0-4.75,8.33c13.71.16,27.44-.11,41.12-.64,6.11-.24,12.23-.53,18.33-.26,4.38.2,8.73.69,13.12.74a96.18,96.18,0,0,0,14.25-1A47.75,47.75,0,0,0,88.85,21.84Z" transform="translate(-2.43 -2.17)" style="fill: #e8b2ac"/>
          <path d="M10.3,23.68c8.25.36,16.58-.22,24.75.33q13,.88,26,.48a114.27,114.27,0,0,0,13.39-1.25C76,23,88.7,21.63,89.33,22.52a48,48,0,0,0-4.75-5.76c-2.31,0-4.63.08-6.94.17-4.69.17-9.39.44-14.07.22-4.08-.19-8.12-.75-12.21-.64A101.29,101.29,0,0,0,39.12,18c-8.65,1.29-16.67,1.17-25.23.87A47.93,47.93,0,0,0,10.3,23.68Z" transform="translate(-2.43 -2.17)" style="fill: #c88493"/>
          <path d="M82.49,14.72c-1.46,0-2.93-.1-4.41-.23-3.29-.28-6.5-.75-9.84-.88-5.85-.22-11.61.61-17.45.91-8.13.42-16.53-.19-24.47.65a26.77,26.77,0,0,1-4.58.27c-1.36-.09-2.56-.42-3.87-.59H17.8a48,48,0,0,0-5.46,6q5.83,0,11.67,0c3.52,0,6.87.76,10.39.84,10.55.23,21-1.78,31.59-1.44,4.38.14,8.73.48,13.12.52,2.91,0,5.8-.08,8.67-.26A48,48,0,0,0,82.49,14.72Z" transform="translate(-2.43 -2.17)" style="fill: #9c7eaf"/>
          <path d="M50.21,2.17a47.57,47.57,0,0,0-28.87,9.71c19,.42,37.93.49,56.75-.72A47.55,47.55,0,0,0,50.21,2.17Z" transform="translate(-2.43 -2.17)" style="fill: #e8b2ac"/>
          <path d="M75.13,9.17c-2.28-.25-4.56-.52-6.9-.62-2.82-.11-5.63.4-8.4.36-2.6,0-4.93-.64-7.59-.21a13.13,13.13,0,0,1-3.45.35c-1.63-.17-3.24-1.16-4.82-.71-.87.25-1.57.9-2.44,1.17-2.4.73-4.91-1.79-7.32-1.06a13.11,13.11,0,0,0-1.53.71c-1.8.81-4.42.81-6.38,1-1,.11-2,.24-3,.28a48,48,0,0,0-6.81,5.63c4.41,0,8.89.17,13.29-.11a23.16,23.16,0,0,1,3.86-.26c2.11.22,3.79,1.35,6,1,1.43-.23,2.74-.92,4.14-1.26,4.65-1.12,9.45,1.75,14.19,1.17,3.21-.39,5.7-1.45,8.94-1.18,4,.34,8.13.47,12.17.51,1.54,0,3.08,0,4.61-.07A48,48,0,0,0,75.13,9.17Z" transform="translate(-2.43 -2.17)" style="fill: #c88493"/>
          <path d="M50.21,2.17l-1.16,0a47.77,47.77,0,0,1,0,95.51l1.16,0a47.79,47.79,0,0,0,0-95.57Z" transform="translate(-2.43 -2.17)" style="fill: #c88493"/>
        </g>
        <path d="M50.21,2.17A47.79,47.79,0,1,0,98,50,47.79,47.79,0,0,0,50.21,2.17Zm4.93,87.51a35.84,35.84,0,0,1-8.33,2.39c-5.67.78-14.25.26-19.38-2.44-15.11-8-24.9-22.5-24.9-39.67A48.32,48.32,0,0,1,19.74,13.43c5-4.15,11.89-8.34,18.48-9A31.91,31.91,0,0,1,43,4.23c10.34.45,19.18,6.45,25.1,14.68,1.43,2,7.75,9.86,2.34,10.27q-4.67.35-9.36.4l7.29.51c2.72.19,5.67-.42,6.63,2.45.35,1,1.67,3.19-.21,3.42a118.94,118.94,0,0,1-14.16.9,82.05,82.05,0,0,0,8.44.29c2.57.11,8.62-.25,8.26,3.54-.21,2.13-2.27,2.89-4.31,3.11,2.3-.25,7.29.82,3.49,3.62a6.12,6.12,0,0,1-2.32.88C67.11,49.93,60,51.57,52.7,51.54q10.94-.56,21.9-.76c3-.06,3.31.56,3.08,3.36-.13,1.65.12,5.47-1.23,6.69-1.76,1.59-6.36.19-8.32-.27,2.71.37,4.85,1.84,7.52,2.32.43.08-.08,3.81-.21,4.22C74.49,70,73,73.93,69.24,73.74A77.47,77.47,0,0,0,54.1,75c3.68-.45,14-1.55,16.68,1.47C66.84,82.22,61.74,87.05,55.14,89.68Z" transform="translate(-2.43 -2.17)" style="fill: #4f4c83;opacity: 0.32;mix-blend-mode: multiply"/>
        <path d="M44,7.84A32.69,32.69,0,0,0,39.4,8c-6.39.64-13.1,4.49-17.92,8.3C11.14,24.46,4.79,37,4.79,49.82c0,15.76,9.49,29.12,24.15,36.42,5,2.48,13.3,3,18.8,2.24a36.28,36.28,0,0,0,8.09-2.19c15.5-5.84,22-21.79,22-36.86C77.85,30.87,65.26,8.72,44,7.84Z" transform="translate(-2.43 -2.17)" style="fill: #aea0c8;opacity: 0.47000000000000003;mix-blend-mode: overlay"/>
        <path d="M7.71,29.87c-5.27,12.55-4.3,27.68,3,39.16A19,19,0,0,0,17,75.58a9.3,9.3,0,0,0,8.79.5C30,73.83,31,68.36,32.22,63.76a41.32,41.32,0,0,1,14.3-21.45C52.07,38,58.62,35.17,64.63,31.52c4.46-2.7,9-6.6,9.22-11.81a11.23,11.23,0,0,0-3.68-8.2,23.18,23.18,0,0,0-7.92-4.66c-11.52-4.44-23.12-5-34,1A45.69,45.69,0,0,0,7.71,29.87Z" transform="translate(-2.43 -2.17)" style="fill: #c89fd7;opacity: 0.41000000000000003;mix-blend-mode: overlay"/>
        <path d="M18.27,29.24c-1.62,4.53-2.35,10.31.41,14.56,3.54,5.45,7.9,1,12-1.25l16.08-8.88c3.69-2,7.67-4.41,9-8.39,1.73-5-1.7-10.7-6.51-12.88C36.19,6.49,22.56,17.25,18.27,29.24Z" transform="translate(-2.43 -2.17)" style="fill: #c89fd7;opacity: 0.41000000000000003;mix-blend-mode: overlay"/>
        <path d="M27.09,21.35a7.68,7.68,0,0,0-1.68,4.15A3.41,3.41,0,0,0,27.78,29c1.28.28,2.53-.43,3.69-1a17.59,17.59,0,0,1,7.35-2.29c2-.09,4,.32,6,.14A8.34,8.34,0,0,0,50,23.48a6,6,0,0,0,1.72-5.31c-1-4.84-7.43-6.53-11.59-5.52A22.59,22.59,0,0,0,27.09,21.35Z" transform="translate(-2.43 -2.17)" style="fill: #f3eeff;opacity: 0.88;mix-blend-mode: overlay"/>
      </g>
    </g>
  </g>
</svg>
