<svg xmlns="http://www.w3.org/2000/svg" viewBox="0 0 95.23 95.23">
  <title>8</title>
  <g style="isolation: isolate">
    <g id="Layer_1" data-name="Layer 1">
      <g>
        <path d="M98,49.92q0,1.69-.12,3.36c-.06.93-.15,1.84-.27,2.75a45.34,45.34,0,0,1-.8,4.47s0,0,0,0c-.07.29-.14.58-.21.87A47.29,47.29,0,0,1,88.8,78.05l-.23.32a47.23,47.23,0,0,1-3.77,4.46q-1,1-2,2l-.3.29h0Q81.31,86.16,80,87.17a47.31,47.31,0,0,1-23.71,10l-.89.11-.9.08-1,.07-1.27.07-.86,0h-1c-1,0-2.05,0-3.07-.1h0a47.31,47.31,0,0,1-23.55-8q-1.37-.93-2.67-1.94t-2.53-2.12a48.23,48.23,0,0,1-4.1-4.17c-.79-.9-1.54-1.84-2.26-2.8A47.71,47.71,0,0,1,4.84,63.85,47.28,47.28,0,0,1,2.9,53.55q-.11-1.36-.12-2.74c0-.3,0-.6,0-.89,0-.67,0-1.33,0-2,0-.88.09-1.76.18-2.63a47.28,47.28,0,0,1,6.63-20q.82-1.35,1.72-2.64c.61-.89,1.26-1.75,1.94-2.58.51-.63,1-1.26,1.58-1.87v0c.43-.48.86-.94,1.32-1.41s1.11-1.12,1.68-1.65c.33-.31.66-.61,1-.9Q20.4,12.86,22,11.65t3.33-2.26c.74-.46,1.49-.9,2.27-1.31S29.17,7.27,30,6.9A45.87,45.87,0,0,1,34.59,5c.81-.28,1.62-.55,2.45-.78h0A47.57,47.57,0,0,1,50.38,2.3q1.14,0,2.28.05,1.85.09,3.66.32h0l1.06.15c.86.12,1.72.27,2.56.45l.68.14q1.62.36,3.2.82,1.84.54,3.61,1.22a47.21,47.21,0,0,1,8.35,4.19l.69.45c.87.56,1.73,1.17,2.56,1.8l0,0q1.49,1.12,2.89,2.37a47.36,47.36,0,0,1,5.9,6.25c.43.55.84,1.1,1.25,1.66l.6.86.58.86q.57.87,1.1,1.77c.35.6.7,1.21,1,1.82q1,1.84,1.81,3.77a46.84,46.84,0,0,1,3.39,12.48c0,.21.06.42.08.64s0,.15,0,.22,0,.21,0,.31,0,.21,0,.31,0,0,0,0,0,.3,0,.45c0,.44.07.87.1,1.31v.22C98,48.11,98,49,98,49.92Z" transform="translate(-2.77 -2.3)" style="fill: #a68000"/>
        <path d="M96.81,60.5s0,0,0,0c-.07.29-.14.58-.21.87A47.29,47.29,0,0,1,88.8,78.05l-.23.32L85,78.83l-3.49.41c1-1.84,2.37-4.49,1-4.93-5.29-3.09-11.9,1.32-17.78-1.57-2-.63-3.44-.95-3.71-3-.56-.76-.11-2.52-1.88-3-.88,4.85-1.32,9.26-3.82,13.58-1,2.2-.62,3.26-.1,4.23,1,1.93,2.37,3.8,2.59,6,.44,3.53-4,4.41-6.61,4-4.3,0-7.61-2.48-10-5.69-.7-1.06-1.23-2.21,1.29-3.45,5.64-3.21,9.61-8.5,10-15.11C50,81.58,37.24,86,27.39,82.32l-.58-.23c-1.56,0-2.91,0-4.18-.08A19.11,19.11,0,0,1,12.2,78.36a46.75,46.75,0,0,1-3.71-5.82A13.67,13.67,0,0,0,19,75.76a5.81,5.81,0,0,1,3.88.91c.41.22.86.5,1.35.84,3.22,2.09,7.63,3.85,11.6,1.64-5.29-1.32-9.7-4-11.9-9.26,5.29,0,13.67,7.94,14.55-.44.44-2.65-4-5.29-4-8.82.44-5.73,5.73-11,11.46-9.7,0,.44,0,.88-.88.88a18.09,18.09,0,0,1,4.85.44c-.44,0-1.32.44-1.76.44,5.29,0,9.7,2.65,12.79,7.05-.88,0-1.32-.88-1.76-1.32,0,2.65,2.2,4.85,2.77,7.6.5,1.58,1,2.25,1.6,2.48,4.59,1.83,9.59,2.41,14.59.06,5.29-2.65,5.29-8.82,7.94-13.67,1.76-2.2,4.85-1.76,7.33-1A14.34,14.34,0,0,1,97,56.07,36.61,36.61,0,0,1,96.81,60.5Z" transform="translate(-2.77 -2.3)" style="fill: #ffd630"/>
        <path d="M84.79,82.83q-1,1-2,2l-.3.29h0A27.74,27.74,0,0,1,80,82.81c-.78-.8-1.53-1.64-2.28-2.45.42-5.61-6.19-3.84-9.59-4.69-2.67-.62-4.43-.26-5.59.52a2.57,2.57,0,0,0-1.16,3.42C63.19,84,67.15,88,64.07,93.27a13.17,13.17,0,0,1-2.62,3,47.62,47.62,0,0,1-5.11.92l-.89.11-.9.08-1,.07-1.27.07-.86,0h-1c-1,0-2.05,0-3.07-.1h0a22.1,22.1,0,0,1-8.06-5.84h0c-.36-.42-.7-.85-1-1.29A8.91,8.91,0,0,0,36,89.62h-.09c-4.21,0-8.27-.06-12.13-.2q-1.37-.93-2.67-1.94a4.32,4.32,0,0,0,.22-1.68c2.92,1,5.85-.68,8.84-.74h.16a6.39,6.39,0,0,1,3.07.74c1.53.07,3.76.3,5.37.41-.42,1.38.62,2.89,1.79,4.29A23.26,23.26,0,0,0,44,93.91a17,17,0,0,0,5.49,2.89,12.9,12.9,0,0,0,5.63.21,11.52,11.52,0,0,0,4.51-2c1.76-1.76,3.53-3.53,2.65-6.61-.44-2-2-3.09-3.31-4.24s-2.42-2.37-2-4.58a22.78,22.78,0,0,1,2.45-4.53A8.79,8.79,0,0,1,62,73.71a7.24,7.24,0,0,1,3.86.39,90.3,90.3,0,0,0,13.22,1.09c2.65.44,1.76,3.09.93,5.07a6.69,6.69,0,0,0,2.64,2.36A4,4,0,0,0,84.79,82.83Z" transform="translate(-2.77 -2.3)" style="fill: #eeb700"/>
        <path d="M96.76,49.76a12.31,12.31,0,0,0-.07,1.62c-5.29-3.09-12.35-4.85-16.75.44-2.65,4,0,10.58-5.29,13.23a11.91,11.91,0,0,1-10.1-.34c-.93-.57-.68-2.23-.11-4.52.51-4,1.39-10.57-3-12.33A15.51,15.51,0,0,1,60,50.94c-.64.85-1.77,1.06-4.46-.34-4.71-1.87-10.44-2.75-15.29-.54-7.94,4-7.5,12.79-3.09,19.84.88,1.76-2.65,2.2-4.85,1.76-6.61-1.32-8.82-7.5-10.14-13.23,0-.88-1.32-.44-2.35-.6-.3,0-.88.71-1.47,1.49a79.56,79.56,0,0,1-5.44,7C9.84,69,6.31,60.2,5.35,55.64A2.59,2.59,0,0,0,2.9,53.55q-.11-1.36-.12-2.74,1.58.31,3.26.6c1,.29,1.17,1.79,1.23,3.67C7.63,58,9,63.29,10.28,62c2.6-2.23,5.38-4.64,8.28-6.73,1-.7,1.95-1.36,2.94-2,.24.77,1.12,1.65,1.12,2.53a15.75,15.75,0,0,0,3.09,11.46c2.2,3.09,8.82,6.17,9.26,2.65.44-5.73-4-12.79,1.76-17.64,5.73-5.29,12.79-4.41,19.42-2.9,1.85-.19,2-2,1.74-3.72,0-1.32,1.76-2.2,2.2-1.76,7.05,4.41,5.73,12.35,5.64,19.18a8.5,8.5,0,0,0,3.39,1,4.78,4.78,0,0,0,5.09-3.44c3.09-7.5,7.5-16.31,16.85-13.45A20.6,20.6,0,0,1,96.76,49.76Z" transform="translate(-2.77 -2.3)" style="fill: #eeb700"/>
        <path d="M20,31.1c.86.86.47,3.36-2.37,2.31l-.28-.11c-.88,0-2.65-1.32-2.2-2.65.37-4.38-1.38-8.45-.25-12.48.43-.48.86-.94,1.32-1.41s1.11-1.12,1.68-1.65c-2.43,4.35-1.66,10,1.23,14.69C19.38,30.25,19.67,30.68,20,31.1Z" transform="translate(-2.77 -2.3)" style="fill: #eeb700"/>
        <path d="M61,24.49c-.88.44.44-3.09-.44-2.65C50.4,24.93,40.26,19.64,35.41,11l-.22-.28A5.23,5.23,0,0,0,30.91,8.6a16.36,16.36,0,0,0-5.53.79c.74-.46,1.49-.9,2.27-1.31a18.34,18.34,0,0,1,3.15,0,5.71,5.71,0,0,1,4.33,2.26l.22.34c3.81,6.08,9.48,11.18,17.27,11.18,3.53-.44,7.5-1.76,9.26-5.29.44.44,1.32.88,1.76.44,4-4.41-1.76-9.26-3.53-13.23a1.7,1.7,0,0,1-.16-.5l.68.14q1.62.36,3.2.82C63.71,10.48,69.77,21.29,61,24.49Z" transform="translate(-2.77 -2.3)" style="fill: #eeb700"/>
        <path d="M79,11.83l.05.07,0,0Z" transform="translate(-2.77 -2.3)" style="fill: #eeb700"/>
        <path d="M81.95,14.27a6.48,6.48,0,0,1-2.89-2.37Q80.55,13,81.95,14.27Z" transform="translate(-2.77 -2.3)" style="fill: #eeb700"/>
        <path d="M97.75,46.89C89,40,80.39,43.74,73.65,50.32Q72,52,70.49,53.71c-.69.76-2,1.2-2.45,2.52-1.76-6.17-3.53-12.79-9.7-15.87-1.76-.88-4.85-1.76-5.29.44A6.72,6.72,0,0,0,53,44.11c.18,1.07.53,2.13-.11,2.5-6,.81-13.06.81-17.47,6.54-4,5.73.44,11.9-.88,16.31-.88,4.41-7.94-1.32-10.14-5.29-2.65-4.85.44-9.7-.54-14.41-1.13.46-2.26,1-3.38,1.49-3.37,1.55-6.71,3.17-10.19,3.66-.88,0-1.32-3.53-.61-5.78q-1.82-.22-3.54-.46t-3.3-.51c0-.88.09-1.76.18-2.63a47,47,0,0,1,2-10c.39-1,1.8,0,3.46,1.12a18.22,18.22,0,0,0,15,4.13A13.64,13.64,0,0,0,28,39.28c4.31-1.57,5.19-7.3,6.4-11.09a33.29,33.29,0,0,0,.34-4.71c0-1.59-.08-3.18-.22-4.73,0-.88,1.21-.88,3.3.79,2.87,2.74,6.4,4.5,9,7.15A11,11,0,0,0,41.28,28a27.87,27.87,0,0,0-1.73,2.3,17.74,17.74,0,0,0-3.38,10c0,1.19.06,2.4-2.17,4.25-1.68,2.4-5.2,4.17-4.76,7.69,3.09-4.41,7.94-8.38,13.83-9.39,1.42-1.27,2.46-2.43,3.49-3.45,6.17-6.11,15.47-6.72,23.91-3.21a13.23,13.23,0,0,0,0-5.37c-.16-.92-.36-1.85-.55-2.77,1.66-3.59,2.55-7.55,4.75-10.64,1.32.88,1.32,2.65,1.76,4a10.29,10.29,0,0,1,3.07.79c2.85,1.23,5.06,3.66,7,6.43,1.44,2.51,2.67,3.32,3.95,3.32l3.82-.47A47.2,47.2,0,0,1,97.7,44.59,8,8,0,0,1,97.75,46.89Z" transform="translate(-2.77 -2.3)" style="fill: #ffd630"/>
        <path d="M92.39,27.49a30.74,30.74,0,0,1-3.73.08A28,28,0,0,0,80.43,20a21,21,0,0,1-3.06-2.14c-1-3.09-1-7.5-4.48-9.26C70.68,15.67,71.12,24,65.5,29.71c.11,1.72.82,2.95-1.24,2.54a19.66,19.66,0,0,0-4.62-.64,18.73,18.73,0,0,0-4.42.46,20,20,0,0,0-4.14,1.44A26,26,0,0,0,43,39.74a33.25,33.25,0,0,0-2.27,2.82c-3.89,1.55-4.32,1.44-3.78.72a3.22,3.22,0,0,0,.69-2.49c-1.18-4.41.78-8.43,3.49-11.65a13,13,0,0,1,2-1.92l.29-.21a4.91,4.91,0,0,1,.65,0c2.83,0,8,1.31,6.78-.73-4-4.85-11.46-6.17-15.39-12.38a6.51,6.51,0,0,0-3-1.05h-.05a14,14,0,0,0-3.14.21c-4,.88-8.82,5.29-4.85,7.94l.06,0c4.39,3.07,8.74,6.6,5.67,11.86a11.55,11.55,0,0,1-12.79,5.29,1.62,1.62,0,0,0,1.32-.44c.88-.88.44-1.76,0-2.65,1.76-.44,4.85-.88,4.85-3.09.25-2.22-1.43-3.47-3-4.84-1.27-1.08-2.5-2.23-2.69-4-.88-6.61,4.41-12.35,11-13.23a16.59,16.59,0,0,1,3.92.1,5.27,5.27,0,0,1,2,1l0,0c4.7,8.12,12.62,11.64,21.42,14.28C53.49,28,50.4,28,47,27.75a8.34,8.34,0,0,0-3.78.48c-1.68,1.85-3.41,3.75-3.41,6.39a44.54,44.54,0,0,0,6.28-3.21A9.67,9.67,0,0,1,50.53,30C57.9,29.78,65,25.81,68,19.64,70.76,15,66.61,8.92,67.43,5.44a47.21,47.21,0,0,1,8.35,4.19l.69.45a29.14,29.14,0,0,1,2.1,5.58c1,.62,2.06,1.25,3.08,1.83a31,31,0,0,0,6.2,3c.43.55.84,1.1,1.25,1.66l.6.86.58.86q.57.87,1.1,1.77C91.72,26.27,92.07,26.88,92.39,27.49Z" transform="translate(-2.77 -2.3)" style="fill: #ffd630"/>
        <path d="M11.35,22.65c.61-.89,1.26-1.75,1.94-2.58a37.65,37.65,0,0,1-1.68,4.86A16.12,16.12,0,0,1,11.35,22.65Z" transform="translate(-2.77 -2.3)" style="fill: #ffd630"/>
        <path d="M57.45,18.76c-7.86,7-17.89-1.17-21.61-8.44l-.11-.2c-1.48-2.54-2.91-2.93-4.36-3.17-.47,0-.95-.05-1.42-.05A45.87,45.87,0,0,1,34.59,5a4,4,0,0,1,1.89,2.36,11.76,11.76,0,0,0,.93,2c3.09,5.3,10.69,10.86,13.43,4.59C52,11,51.23,6.82,52.29,3.35a10.08,10.08,0,0,1,.37-1q1.85.09,3.66.32h0l1.06.15a3,3,0,0,0,.51,1.83C60.54,9.5,61.86,14.79,57.45,18.76Z" transform="translate(-2.77 -2.3)" style="fill: #ffd630"/>
        <path d="M56.34,97.16l-.89.11-.9.08-1,.07-1.27.07-.86,0h-1c-1,0-2.05,0-3.07-.1h0a47.31,47.31,0,0,1-23.55-8q-1.37-.93-2.67-1.94t-2.53-2.12a48.23,48.23,0,0,1-4.1-4.17c-.79-.9-1.54-1.84-2.26-2.8A47.71,47.71,0,0,1,4.84,63.85,47.28,47.28,0,0,1,2.9,53.55q-.11-1.36-.12-2.74c0-.3,0-.6,0-.89,0-.67,0-1.33,0-2,0-.88.09-1.76.18-2.63a47.28,47.28,0,0,1,6.63-20q.82-1.35,1.72-2.64c.61-.89,1.26-1.75,1.94-2.58.51-.63,1-1.26,1.58-1.87v0c.43-.48.86-.94,1.32-1.41s1.11-1.12,1.68-1.65c.33-.31.66-.61,1-.9Q20.4,12.86,22,11.65t3.33-2.26c.74-.46,1.49-.9,2.27-1.31S29.17,7.27,30,6.9A45.87,45.87,0,0,1,34.59,5c.81-.28,1.62-.55,2.45-.78h0A47.57,47.57,0,0,1,50.38,2.3q1.14,0,2.28.05,1.85.09,3.66.32c-1.36.17-2.71.4-4,.68q-1.69.36-3.34.84h0A47.38,47.38,0,0,0,37.41,9.31c-.53.32-1.05.66-1.57,1l-.51.34-.15.11-.47.33-.76.56c-.52.38-1,.77-1.52,1.17s-1.12.92-1.65,1.4q-1.4,1.22-2.68,2.56c-.46.47-.9.94-1.33,1.42q-1.21,1.36-2.32,2.8a47.71,47.71,0,0,0-2.92,4.29q-.56.91-1.06,1.85-.72,1.31-1.35,2.67c-.37.78-.71,1.58-1,2.39-.16.4-.32.81-.47,1.22a47.28,47.28,0,0,0-2,7,46.66,46.66,0,0,0-.72,4.86c-.09.87-.15,1.75-.18,2.63,0,.66,0,1.33,0,2,0,.3,0,.6,0,.89q0,1.38.12,2.74v.15q.16,2,.49,4a44.34,44.34,0,0,0,1,4.48c.15.56.3,1.1.47,1.64a47.61,47.61,0,0,0,9.62,17.32c.34.39.68.77,1,1.15q1.32,1.42,2.74,2.72l.33.3a47.75,47.75,0,0,0,5.2,4.07l.31.21h0c1.06.7,2.13,1.36,3.25,2h0A46.43,46.43,0,0,0,44,93.91,47,47,0,0,0,55.15,97Z" transform="translate(-2.77 -2.3)" style="fill: #5d5d5d;opacity: 0.2;mix-blend-mode: multiply"/>
      </g>
    </g>
  </g>
</svg>
