<svg xmlns="http://www.w3.org/2000/svg" viewBox="0 0 95.22 95.21">
  <title>9</title>
  <g style="isolation: isolate">
    <g id="Layer_1" data-name="Layer 1">
      <g>
        <path d="M97.52,56.56c-.12.85-.26,1.68-.43,2.52a47.61,47.61,0,0,1-2,7.25A47,47,0,0,1,92,73,47.56,47.56,0,0,1,43.68,97a48.27,48.27,0,0,1-5.24-1h0A47.63,47.63,0,0,1,5,64.07H5a46.72,46.72,0,0,1-1.53-6.41A47.93,47.93,0,0,1,6.56,31.25q.43-1,.9-2a47.62,47.62,0,0,1,88.8,7.83A47.17,47.17,0,0,1,98,50.42h0A47.4,47.4,0,0,1,97.52,56.56Z" transform="translate(-2.78 -2.24)" style="fill: #7d7e04"/>
        <path d="M43.91,17.85S51.58,2.49,61.39,7.23s10.31,6.24,8.75,10.54,4.4,5.16-5,9.31S41.28,26.29,43.91,17.85Z" transform="translate(-2.78 -2.24)" style="fill: #636303"/>
        <path d="M70.44,16.89C70.18,14.7,67.86,13,61,9.68,51.67,5.16,44.26,19,43.61,20.21a6.48,6.48,0,0,1,.3-2.36S51.58,2.49,61.39,7.23C70.51,11.63,71.59,13.23,70.44,16.89Z" transform="translate(-2.78 -2.24)" style="fill: #494902"/>
        <path d="M63.13,24.76a5.79,5.79,0,0,1-.28-4.27l.13-.37C63.25,22,64.45,23.17,63.13,24.76Z" transform="translate(-2.78 -2.24)" style="fill: #636303"/>
        <path d="M63,20.12a4.63,4.63,0,0,1,.26-2.34c.12-.34.24-.66.33-1A7.52,7.52,0,0,1,63,20.12Z" transform="translate(-2.78 -2.24)" style="fill: #636303"/>
        <path d="M17.42,58.59l-.65.2c-4.81,1.42-10.12,1-13.35-1.13A47.93,47.93,0,0,1,6.56,31.25q.43-1,.9-2c6.81.39,9.23,1.47,9.23,1.47C24.29,43.34,25.49,55.89,17.42,58.59Z" transform="translate(-2.78 -2.24)" style="fill: #636303"/>
        <path d="M17.42,58.59l-.65.2c4.87-4.47,3.1-15.34-3.48-26.26,0,0-1.82-.81-6.73-1.28q.43-1,.9-2c6.81.39,9.23,1.47,9.23,1.47C24.29,43.34,25.49,55.89,17.42,58.59Z" transform="translate(-2.78 -2.24)" style="fill: #494902"/>
        <path d="M23.43,21.26a13.21,13.21,0,0,1-2.56,3.51c-4.24.24-7.84-.72-9.26-2.54a47.17,47.17,0,0,1,5.63-6.55C19.85,17.2,24.9,18.72,23.43,21.26Z" transform="translate(-2.78 -2.24)" style="fill: #636303"/>
        <path d="M34.57,44c-3.76,1.67,2.55-5.85,4.47-5.79a7,7,0,0,1,5.11,2.89,6.35,6.35,0,0,1-1.06,7.44C40.39,51.27,38.23,42.39,34.57,44Z" transform="translate(-2.78 -2.24)" style="fill: #636303"/>
        <path d="M37.56,58.38c1-2.12,1.25-3.41,3.72-1.21s5.38,4.53,5.19,6.36-.76,4-3,4.49-.15,5.19-4.35,0S37.56,58.38,37.56,58.38Z" transform="translate(-2.78 -2.24)" style="fill: #636303"/>
        <path d="M44.8,43.13a7.32,7.32,0,0,0-4.68-2.29c-.88,0-2.68,1.53-4,3.07a2.1,2.1,0,0,0-1.54.09c-3.76,1.66,2.55-5.85,4.47-5.79a7,7,0,0,1,5.11,2.9A6.65,6.65,0,0,1,44.8,43.13Z" transform="translate(-2.78 -2.24)" style="fill: #494902"/>
        <path d="M45.61,66.48c.07-.35.12-.7.15-1,.19-1.83-2.72-4.16-5.19-6.36s-2.75-1-3.66,1.09a6.7,6.7,0,0,1,.64-1.77c1-2.12,1.25-3.41,3.72-1.21s5.38,4.53,5.19,6.36A7,7,0,0,1,45.61,66.48Z" transform="translate(-2.78 -2.24)" style="fill: #494902"/>
        <path d="M9.72,74.59A47.55,47.55,0,0,1,5,64.07l.54.33c2.78,1.79,6,3.64,6.12,5.47S11.52,73.63,9.72,74.59Z" transform="translate(-2.78 -2.24)" style="fill: #636303"/>
        <path d="M97.09,59.08h0A47.22,47.22,0,0,1,92,73a32,32,0,0,1-7.12-2.32c-3.92-2.1-7.73-9.87-8.72-14.85s5.73-15.54,7.7-18c3.42-4.26,8.69-2.87,12.42-.76A47.16,47.16,0,0,1,98,50.42h0c-.32,1.06-.65,2.13-.94,3.17A8.45,8.45,0,0,0,97.09,59.08Z" transform="translate(-2.78 -2.24)" style="fill: #636303"/>
        <path d="M86.4,39.63c-2,2.45-8.69,13-7.7,18,.83,4.15,3.61,10.24,6.78,13.36-.22-.09-.42-.2-.61-.3-3.92-2.09-7.73-9.86-8.72-14.85s5.73-15.54,7.7-18c3.42-4.26,8.69-2.87,12.42-.76.06.21.12.43.17.65C93.07,36.43,89.14,36.22,86.4,39.63Z" transform="translate(-2.78 -2.24)" style="fill: #494902"/>
        <path d="M61.48,96.15a47.51,47.51,0,0,1-17.8.82,48.19,48.19,0,0,1-5.24-1h0a4.33,4.33,0,0,1-1.21-3.49s1.67-9.22,10.58-7.75,14,4.17,13.91,9.27A12.87,12.87,0,0,1,61.48,96.15Z" transform="translate(-2.78 -2.24)" style="fill: #636303"/>
        <path d="M61.48,96.15l-.12,0c0-4.95-5.14-7.59-13.9-9-6.77-1.12-9.36,4-10.22,6.44a3.41,3.41,0,0,1,0-1.15s1.67-9.22,10.58-7.75,14,4.17,13.91,9.27A13.1,13.1,0,0,1,61.48,96.15Z" transform="translate(-2.78 -2.24)" style="fill: #494902"/>
        <path d="M70.32,66s6.44.74,5.82,7-2.25,9.87-5.78,10-6.1-1.55-6.07-5.47S66.69,65.67,70.32,66Z" transform="translate(-2.78 -2.24)" style="fill: #636303"/>
        <path d="M75.82,70a7.77,7.77,0,0,0-4.59-2.4c-3.62-.33-6,7.57-6,11.48a6.78,6.78,0,0,0,.32,2.22,5.47,5.47,0,0,1-1.24-3.82c0-3.92,2.41-11.82,6-11.48C70.32,66,74.55,66.49,75.82,70Z" transform="translate(-2.78 -2.24)" style="fill: #494902"/>
        <path d="M18.65,69.3c2.37-3.86,8.55-4.52,11.24-.77s1.38,5.76-2,7.92S14.84,75.52,18.65,69.3Z" transform="translate(-2.78 -2.24)" style="fill: #636303"/>
        <path d="M31,70.5l-.2-.29c-2.69-3.75-8.88-3.09-11.24.77a4.7,4.7,0,0,0-.76,3.66c-1.16-1.32-1.49-3.13-.14-5.33,2.37-3.86,8.55-4.52,11.24-.77A9,9,0,0,1,31,70.5Z" transform="translate(-2.78 -2.24)" style="fill: #494902"/>
        <path d="M66.06,36c5.21,1.81,7.6,9,3.84,13.17s-6.5,3.13-9.94-.33S57.67,33.11,66.06,36Z" transform="translate(-2.78 -2.24)" style="fill: #636303"/>
        <path d="M70.8,48A8.8,8.8,0,0,0,65.5,37.34c-3.36-1.17-5.56.1-6.77,2.27,1-2.91,3.35-5,7.34-3.58C70.79,37.68,73.19,43.73,70.8,48Z" transform="translate(-2.78 -2.24)" style="fill: #494902"/>
        <path d="M46.89,97.32c-1.07-.07-2.14-.19-3.21-.34a48.19,48.19,0,0,1-5.24-1h0A47.67,47.67,0,0,1,5,64.07H5A47.63,47.63,0,0,1,70.79,6.83,47.63,47.63,0,0,0,21.85,68.52h0a47.7,47.7,0,0,0,25,28.8Z" transform="translate(-2.78 -2.24)" style="fill: #5d5d5d;opacity: 0.2;mix-blend-mode: multiply"/>
      </g>
    </g>
  </g>
</svg>
