<svg id="Layer_1" data-name="Layer 1" xmlns="http://www.w3.org/2000/svg" viewBox="0 0 96.08 92.03">
  <title>1</title>
  <g>
    <path d="M29.32,78.73l.24-.28L30.7,77.1q1.13-1.34,2.31-2.66c1.46-1.65,3-3.25,4.49-4.83a3.6,3.6,0,0,0-5.1-5.1Q29.79,67.2,27.32,70c-1.69,1.92-3.84,4-4.9,6.32-1.7,3.75-.06,7.65,2.29,11l-1.6.34a3.62,3.62,0,0,0-2.52,4.43A3.66,3.66,0,0,0,25,94.61l6.73-1.43a3.55,3.55,0,0,0,2.63-3.38,3.79,3.79,0,0,0-1-3.22A26,26,0,0,1,30.2,82.4,19.76,19.76,0,0,1,29,80.32c-.07-.18-.12-.68-.17-.73s0-.14,0-.14c.09-.17.19-.34.3-.5Z" transform="translate(-1.92 -2.67)" style="fill: #ff5722"/>
    <path d="M68.51,78.73l-.24-.28L67.14,77.1Q66,75.75,64.83,74.44c-1.46-1.65-3-3.25-4.49-4.83a3.6,3.6,0,0,1,5.1-5.1Q68,67.2,70.51,70c1.69,1.92,3.84,4,4.9,6.32,1.7,3.75.06,7.65-2.29,11l1.6.34a3.62,3.62,0,0,1,2.52,4.43,3.66,3.66,0,0,1-4.43,2.52l-6.73-1.43a3.55,3.55,0,0,1-2.63-3.38,3.79,3.79,0,0,1,1-3.22,26,26,0,0,0,3.21-4.17,19.76,19.76,0,0,0,1.16-2.08c.07-.18.12-.68.17-.73s0-.14,0-.14c-.09-.17-.19-.34-.3-.5Z" transform="translate(-1.92 -2.67)" style="fill: #ff5722"/>
    <path d="M70.62,45.42a18.57,18.57,0,0,1,6,.26,20.68,20.68,0,0,1,5,2.54,7.49,7.49,0,0,1,1.71,1.34q.26.26.5.53l.18.22a12.51,12.51,0,0,1,.71,1.14q.18.32.33.65l.06.15a11.91,11.91,0,0,1,.41,1.4v.05a8.94,8.94,0,0,0-3.39,3.12,6,6,0,0,0-.42,6.28,3.62,3.62,0,0,0,4.93,1.29A3.69,3.69,0,0,0,87,64.1l.13.14a3.63,3.63,0,0,0,5.1,0,3.51,3.51,0,0,0,.9-1.55,3.49,3.49,0,0,0,3.79-.78,3.62,3.62,0,0,0,0-5.1,10.6,10.6,0,0,0-4.13-2.27,15.88,15.88,0,0,0-6.64-11.88A29.15,29.15,0,0,0,79.3,39c-2.73-1.06-5.8-1-8.67-.78a3.66,3.66,0,0,0-3.6,3.6A3.62,3.62,0,0,0,70.62,45.42Z" transform="translate(-1.92 -2.67)" style="fill: #ff5722"/>
    <path d="M29.3,45.42a18.57,18.57,0,0,0-6,.26,20.68,20.68,0,0,0-5,2.54,7.49,7.49,0,0,0-1.71,1.34q-.26.26-.5.53l-.18.22a12.51,12.51,0,0,0-.71,1.14q-.18.32-.33.65l-.06.15a11.91,11.91,0,0,0-.41,1.4v.05a8.94,8.94,0,0,1,3.39,3.12,6,6,0,0,1,.42,6.28,3.62,3.62,0,0,1-4.93,1.29,3.69,3.69,0,0,1-.42-.29l-.13.14a3.63,3.63,0,0,1-5.1,0,3.51,3.51,0,0,1-.9-1.55A3.49,3.49,0,0,1,3,61.91a3.62,3.62,0,0,1,0-5.1,10.61,10.61,0,0,1,4.13-2.27,15.88,15.88,0,0,1,6.64-11.88A29.15,29.15,0,0,1,20.62,39c2.73-1.06,5.8-1,8.67-.78a3.66,3.66,0,0,1,3.6,3.6A3.62,3.62,0,0,1,29.3,45.42Z" transform="translate(-1.92 -2.67)" style="fill: #ff5722"/>
    <polygon points="44.44 10.37 27.29 9.55 32.32 13.5 18.2 21 23.46 21 13.21 31.57 21.59 28.85 13.78 43.24 19.05 40.4 17.48 55.68 20.9 49.81 22.75 61.32 25.17 55.68 28.62 66.72 30.51 62.46 35.55 69.28 35.45 65.02 43.44 72.98 44.7 67.29 49.08 77.39 51.25 67.58 53.85 72.42 57.33 65.73 60.46 69.71 63.59 63.02 67.29 67.72 68.58 58.47 72.44 63.17 72.44 51.66 77.41 56.34 74.62 46.13 79.49 49.24 75.94 37.88 80.79 38.98 74.02 29.16 79.75 29.72 70.55 21.63 77.02 21.69 65.25 15.79 71.58 14.64 60.23 12.85 68.56 7.26 54.35 10.26 53.26 0 44.44 10.37" style="fill: #bf360c"/>
    <path d="M73.18,48.88c-.11.17-7.17,11-16.82,14.91A17.83,17.83,0,0,1,50,65.15h-.28l-.76,0h-.08a16.77,16.77,0,0,1-3.39-.54,20.12,20.12,0,0,1-2.87-1c-9.41-4-16.24-14.55-16.35-14.72.06,0,1.39.73,3.66,1.62l.16.06.07,0q.79.31,1.72.64h0l.59.2c.77.26,1.6.53,2.47.78l0,0c.09,0,.17,0,.26,0a3.61,3.61,0,0,0,.94.19h0a5.74,5.74,0,0,1,1.26.39s0,.06.06.07c.84.2,1.72.4,2.63.58v0l.43.08.36.06.44.08.44.07.89.14c.86.12,1.73.23,2.63.31l.52,0,.42,0,.39,0,.6,0,.65,0q.89,0,1.79,0h.84l.63,0,.59,0h.07l1.23-.07h.06c.89-.07,1.77-.15,2.63-.26h0c.85-.11,1.69-.23,2.5-.38h.06c.9-.16,1.78-.34,2.63-.53h0c.87-.19,1.71-.41,2.5-.62l.06,0c.94-.26,1.82-.52,2.64-.79s1.79-.61,2.56-.9A43,43,0,0,0,73.18,48.88Z" transform="translate(-1.92 -2.67)"/>
    <g>
      <circle cx="35.45" cy="34.75" r="11.38" style="fill: #fff"/>
      <circle cx="35.45" cy="34.75" r="6.83" style="fill: #ff5722"/>
      <circle cx="35.45" cy="34.75" r="3.13"/>
      <circle cx="37.7" cy="30.08" r="2.53" style="fill: #fff"/>
    </g>
    <g>
      <circle cx="60.46" cy="34.75" r="11.38" style="fill: #fff"/>
      <circle cx="60.46" cy="34.75" r="6.83" style="fill: #ff5722"/>
      <circle cx="60.46" cy="34.75" r="3.13"/>
      <circle cx="62.72" cy="30.08" r="2.53" style="fill: #fff"/>
    </g>
    <path d="M32.52,51.43V52a1.31,1.31,0,0,1-2.61,0V50.5C30.56,50.79,31.87,51.11,32.52,51.43Z" transform="translate(-1.92 -2.67)" style="fill: #fff"/>
    <path d="M37.75,52.9v.81a1.31,1.31,0,0,1-2.61,0v-1.5A12.87,12.87,0,0,0,37.75,52.9Z" transform="translate(-1.92 -2.67)" style="fill: #fff"/>
    <path d="M43,53.91v1.48a1.31,1.31,0,0,1-2.61,0V53.48A16,16,0,0,0,43,53.91Z" transform="translate(-1.92 -2.67)" style="fill: #fff"/>
    <path d="M48.21,54.39v2.68a1.31,1.31,0,0,1-2.61,0V54.22A25.88,25.88,0,0,0,48.21,54.39Z" transform="translate(-1.92 -2.67)" style="fill: #fff"/>
    <path d="M53.44,54.3v2.77a1.31,1.31,0,0,1-2.61,0V54.42C51.48,54.4,52.13,54.36,53.44,54.3Z" transform="translate(-1.92 -2.67)" style="fill: #fff"/>
    <path d="M58,53.65v1.74c0,.7-.28,1.28-1,1.28s-1-.58-1-1.28V54Q57,53.87,58,53.65Z" transform="translate(-1.92 -2.67)" style="fill: #fff"/>
    <path d="M63.9,52.48v1.24a1.31,1.31,0,0,1-2.61,0v-.6A17.66,17.66,0,0,1,63.9,52.48Z" transform="translate(-1.92 -2.67)" style="fill: #fff"/>
    <path d="M68.47,50.79V52a1.31,1.31,0,0,1-2.61,0v-.35A12.36,12.36,0,0,0,68.47,50.79Z" transform="translate(-1.92 -2.67)" style="fill: #fff"/>
    <path d="M48.86,61.67v3.46A16.92,16.92,0,0,1,43,63.6V61.67c0-1.11.55-2.05,1.66-2.05H47A2,2,0,0,1,48.86,61.67Z" transform="translate(-1.92 -2.67)" style="fill: #fff"/>
    <path d="M56.05,61.84v2a16.28,16.28,0,0,1-5.88,1.36V61.84A2.08,2.08,0,0,1,52,59.62h2.32C55.45,59.62,56.05,60.73,56.05,61.84Z" transform="translate(-1.92 -2.67)" style="fill: #fff"/>
  </g>
</svg>
