<svg id="Layer_1" data-name="Layer 1" xmlns="http://www.w3.org/2000/svg" viewBox="0 0 91.33 95.29">
  <title>10</title>
  <g>
    <path d="M91.7,32.28c-.45-2.09-1.47-4-1.79-6.1C91.57,25.5,93,24.06,93,22.29a2.79,2.79,0,0,0-2.1-2.64,3.25,3.25,0,0,0-2.7-2.6A3.66,3.66,0,0,0,85,18.13l-.19.22a3.83,3.83,0,0,0-3.15,1.2A3.3,3.3,0,0,0,81,23.33c.72,1.21,2.89,1.69,4.13,2.23l.15.06a21.84,21.84,0,0,0,1.53,6.1c.66,1.92,1.42,4.52-.28,6.1-.73.68-5.85,1.32-7.36,1.61-2.93.57-5.83-1.5-8.75-.48-2.72,1-1.49,10,1.25,9l9.62-3.37c2.92-1,6.4-1.75,8.72-3.91S92.29,35.08,91.7,32.28Z" transform="translate(-1.67 -3.33)" style="fill: #e91e63"/>
    <path d="M7,32.28c.45-2.09,1.47-4,1.79-6.1-1.66-.68-3.13-2.12-3.09-3.89a2.79,2.79,0,0,1,2.1-2.64,3.25,3.25,0,0,1,2.7-2.6,3.66,3.66,0,0,1,3.24,1.07l.19.22A3.83,3.83,0,0,1,17,19.55a3.3,3.3,0,0,1,.58,3.78c-.72,1.21-2.89,1.69-4.13,2.23l-.15.06a21.84,21.84,0,0,1-1.53,6.1c-.66,1.92-1.42,4.52.28,6.1.73.68,5.31,1.39,7.36,1.61,3.07.33,5.83-1.5,8.75-.48,2.72,1,1.49,10-1.25,9l-9.62-3.37c-2.92-1-6.4-1.75-8.72-3.91S6.38,35.08,7,32.28Z" transform="translate(-1.67 -3.33)" style="fill: #e91e63"/>
    <path d="M31.56,62.53c-2.59.13-5.19,2.33-7.72,1.76-2.81-.63-5.12-.74-7.6.92-3.81,2.54-3.55,7.28-5,11.12a10.93,10.93,0,0,0-7.76-.58,2.3,2.3,0,0,0-1.82,2A3.12,3.12,0,0,0,3.94,81a16.23,16.23,0,0,0,3.21.72c2.64.44,6.36.32,7.4-.79a2.12,2.12,0,0,0,.63-2.4,27.13,27.13,0,0,0,1.14-4c.42-1.91.88-4,2.32-5.42s3.76-.48,5.53-.14c2.33.46,13.07,5.88,15.44,5.76,1.22-.06-6.06-6.06-6-7.38C33.72,66.17,32.78,62.47,31.56,62.53Z" transform="translate(-1.67 -3.33)" style="fill: #e91e63"/>
    <path d="M60.14,70.06c2.38,1,3.5,2.86,6.07,3.2,2.86.38,5.06,3.9,6.82,6.31,2.7,3.7.83,8.06.86,12.16a10.93,10.93,0,0,1,7.49,2.12,2.3,2.3,0,0,1,1,2.55,3.12,3.12,0,0,1-3.22,2.21,22.11,22.11,0,0,1-3.41-.26c-3.21-.63-3.72-.25-6.56-2.72-.84-.73-.32-2.59.27-3.21a27.16,27.16,0,0,1,.32-4.19c.26-1.94.55-4.06-.31-5.89s-3.37-1.75-5.14-2a29.1,29.1,0,0,1-6.8-2A2.3,2.3,0,0,1,56,75.53C56.29,74.46,59,69.58,60.14,70.06Z" transform="translate(-1.67 -3.33)" style="fill: #e91e63"/>
    <polygon points="72.58 28.7 77.62 31.78 80.86 33.76 78.63 31.33 70.51 22.46 79.1 24.69 65.14 15.8 75.12 14.53 60.25 10.6 47.26 0.07 49.95 7.54 31.04 0 39.62 8.38 19.15 8.38 30.07 11.88 20.36 23.39 27.36 20.22 21.12 33.63 19.21 37.73 17.49 41.43 20.43 38.41 22.75 36.02 21.97 39.19 18.13 54.97 22.75 47.64 21.63 66.87 24.79 57.51 27.2 73.11 28.9 65.63 32.24 73.13 34.12 77.41 34.12 71.62 36.33 75.39 39.71 81.23 39.71 76.88 44.15 85.06 43.65 78.85 47.3 87.28 48.9 79.48 49.97 82.98 52.84 77.73 53.63 81.07 57.76 74.95 58.57 73.75 59.25 78.05 61.76 72.26 62.7 70.09 63.9 74.71 68.91 61.47 70.03 68.66 71.37 50.67 74.33 61.47 73.21 40.95 78.31 47.48 75.3 37.63 73.99 33.34 72.58 28.7" style="fill: #880e4f"/>
    <g>
      <g>
        <circle cx="38.07" cy="25.52" r="7.39" style="fill: #fff"/>
        <circle cx="38.07" cy="25.52" r="4.54" style="fill: #e91e63"/>
        <circle cx="38.07" cy="25.52" r="2.38"/>
        <circle cx="39.8" cy="22.71" r="1.87" style="fill: #fff"/>
      </g>
      <g>
        <circle cx="58.32" cy="25.52" r="7.39" style="fill: #fff"/>
        <circle cx="58.32" cy="25.52" r="4.54" style="fill: #e91e63"/>
        <circle cx="58.32" cy="25.52" r="2.38"/>
        <circle cx="56.59" cy="22.71" r="1.87" style="fill: #fff"/>
      </g>
    </g>
    <g>
      <path d="M66.23,44.7c0,9-7.34,27.76-16.38,27.76S33.46,53.75,33.46,44.7,40.8,44,49.84,44,66.23,35.65,66.23,44.7Z" transform="translate(-1.67 -3.33)"/>
      <path d="M64.23,40.51l-1.48.07s-1.09.34-2.43.79c-.92.31-1.95.66-2.83,1-.32.12-.71.24-1.14.35,0,0-.93.26-.94.23-1.44.33-3.1.62-4.23.8l-1.32.2a10.56,10.56,0,0,1-1.46-.09c-1-.11-3.7-.7-3.7-.7s-2.52-.83-3.58-1.25h0l-1.41-.49v0c-3.85-1.4-4.34-.92-4.39-.85a2.24,2.24,0,0,0,3.91,2c.55,3.18,2,11,3.25,11.27s1.75-5.11,2-8.31A2.24,2.24,0,0,0,48,45.22a2.24,2.24,0,0,0,3.63.1,2.24,2.24,0,0,0,3.2.37c.29,3.21.93,8.5,2,8.24,1.3-.3,2.83-8.75,3.32-11.64a2.24,2.24,0,0,0,4.06-1.77Z" transform="translate(-1.67 -3.33)" style="fill: #fff"/>
      <path d="M41.1,66.64s1.34-7.5,2.92-7,2.42,11.93,2.42,11.93A8.9,8.9,0,0,1,41.1,66.64Z" transform="translate(-1.67 -3.33)" style="fill: #fff"/>
      <path d="M58.68,66.64s-1.34-7.5-2.92-7-2.42,11.93-2.42,11.93A8.9,8.9,0,0,0,58.68,66.64Z" transform="translate(-1.67 -3.33)" style="fill: #fff"/>
    </g>
  </g>
</svg>
