<svg id="Layer_1" data-name="Layer 1" xmlns="http://www.w3.org/2000/svg" viewBox="0 0 65.73 92.96">
  <title>11</title>
  <g>
    <path d="M44.12,88.82,43,87.09l-.64,1.42-1.74-2.19-.47,1.16-1.71-2v1.39l-1.71-1.4C37.46,91.59,39.46,96,41.83,96c1.91,0,3.57-2.85,4.55-7.18l-1.85-1.29Z" transform="translate(-17.16 -3.04)" style="fill: #f44336"/>
    <path d="M58.95,86.82l-1.46,1.61L57,86.82l-1.67,1.74-.77-1.29-1.09,1.54-.5-.45c1,4.58,2.69,7.63,4.66,7.63,2.14,0,4-3.6,4.9-8.84l-.24-1.54-2.7,2.43Z" transform="translate(-17.16 -3.04)" style="fill: #f44336"/>
    <path d="M22.92,72l.22.34-.09-.62Z" transform="translate(-17.16 -3.04)" style="fill: #b71c1c"/>
    <path d="M73,30.89l-.1-.14,0,.06Z" transform="translate(-17.16 -3.04)" style="fill: #b71c1c"/>
    <path d="M62.79,40.74c-.92,3.13-2.15,6.58-3.28,7.13-1,.47-1.94-2-2.75-4.79a31,31,0,0,1-14.31,0c-.81,2.85-1.8,5.31-2.76,4.84-1.14-.56-2.4-4.11-3.32-7.27a18.3,18.3,0,0,1-4.13-3.28c.14,4.43,1,18.86,6,28.28,0-.11,1.41-9.65,3-8.78s3.22,15.27,3.24,15.46A10.42,10.42,0,0,0,49.9,73.5h.26a10.13,10.13,0,0,0,4.89-1c0-.79.32-15.61,1.52-15.9s4.24,10.16,4.28,10.3c6-9.8,6.78-26.61,6.87-30.26A18.27,18.27,0,0,1,62.79,40.74Z" transform="translate(-17.16 -3.04)"/>
    <path d="M57.49,71.11a17.57,17.57,0,0,0,2.92-3.43A20.11,20.11,0,0,1,57.49,71.11Z" transform="translate(-17.16 -3.04)"/>
    <path d="M39.7,47.87c1,.47,2-2,2.76-4.84a23,23,0,0,1-6.08-2.44C37.3,43.76,38.55,47.31,39.7,47.87Z" transform="translate(-17.16 -3.04)" style="fill: #fff"/>
    <path d="M59.51,47.87c1.13-.56,2.36-4,3.28-7.13a23.27,23.27,0,0,1-6,2.34C57.57,45.91,58.56,48.34,59.51,47.87Z" transform="translate(-17.16 -3.04)" style="fill: #fff"/>
    <path d="M39.23,5.72a22.12,22.12,0,0,0-6.78,5.7A26.26,26.26,0,0,1,39.23,5.72Z" transform="translate(-17.16 -3.04)" style="fill: #b71c1c"/>
    <path d="M32.24,11.7l0,0h.1A.14.14,0,0,1,32.24,11.7Z" transform="translate(-17.16 -3.04)" style="fill: #b71c1c"/>
    <path d="M23.05,71.7h0c1.53-3.33,2.9-8.92,3.6-15.34,1.14-10.52,0-19.27-2.45-19.55a1.68,1.68,0,0,0-1.31.59l-1.05,1.66-.31.33c-1.65,3.22-3.17,9.13-3.91,16-1.14,10.52,0,19.27,2.45,19.55.93.1,1.92-1,2.86-2.94l.13-.28Z" transform="translate(-17.16 -3.04)" style="fill: #f44336"/>
    <path d="M77.49,38.55l.38.62Q77.68,38.84,77.49,38.55Z" transform="translate(-17.16 -3.04)" style="fill: #f44336"/>
    <path d="M82.25,55.28c-.86-6.54-2.4-12.2-4-15.47l-.74-.75-1.2-1.89a1.44,1.44,0,0,0-1-.31c-2.49.33-3.4,9.1-2,19.59a55.94,55.94,0,0,0,3.71,14.78c1.09,2.4,2.24,3.77,3.29,3.63C82.72,74.55,83.62,65.78,82.25,55.28Z" transform="translate(-17.16 -3.04)" style="fill: #f44336"/>
    <path d="M41.93,35.48A6.89,6.89,0,1,0,35,28.6,6.89,6.89,0,0,0,41.93,35.48Zm0-11.88a5,5,0,1,1-5,5A5,5,0,0,1,41.93,23.6Z" transform="translate(-17.16 -3.04)" style="fill: #fff"/>
    <path d="M41.93,33.59a5,5,0,1,0-5-5A5,5,0,0,0,41.93,33.59Zm-2-8.57a1.34,1.34,0,0,1,1.34,1.34s0,.06,0,.1a2.23,2.23,0,1,1-1.39,1.24A1.34,1.34,0,0,1,39.95,25Z" transform="translate(-17.16 -3.04)" style="fill: #f44336"/>
    <path d="M39.95,27.7h-.06a2.23,2.23,0,1,0,1.39-1.24A1.33,1.33,0,0,1,39.95,27.7Z" transform="translate(-17.16 -3.04)"/>
    <path d="M39.89,27.7h.06a1.33,1.33,0,0,0,1.33-1.24s0-.06,0-.1a1.34,1.34,0,1,0-1.4,1.33Z" transform="translate(-17.16 -3.04)" style="fill: #fff"/>
    <path d="M57.73,35.48a6.89,6.89,0,1,0-6.89-6.89A6.89,6.89,0,0,0,57.73,35.48Zm0-11.88a5,5,0,1,1-5,5A5,5,0,0,1,57.73,23.6Z" transform="translate(-17.16 -3.04)" style="fill: #fff"/>
    <path d="M57.73,33.59a5,5,0,1,0-5-5A5,5,0,0,0,57.73,33.59Zm0-7.23a2.23,2.23,0,0,1,.69.11,1.32,1.32,0,0,1-.06-.37,1.34,1.34,0,1,1,1.34,1.34h-.07a2.23,2.23,0,1,1-1.9-1.07Z" transform="translate(-17.16 -3.04)" style="fill: #f44336"/>
    <path d="M57.73,30.83a2.23,2.23,0,0,0,1.9-3.39,1.33,1.33,0,0,1-1.21-1,2.23,2.23,0,1,0-.69,4.35Z" transform="translate(-17.16 -3.04)"/>
    <path d="M59.63,27.43h.07a1.34,1.34,0,1,0-1.34-1.34,1.32,1.32,0,0,0,.06.37A1.33,1.33,0,0,0,59.63,27.43Z" transform="translate(-17.16 -3.04)" style="fill: #fff"/>
    <path d="M41.29,56.82C39.7,56,38.4,65.49,38.4,65.6h0c2.58,5.63,6,7,6,7h0C44.42,72.4,42.87,57.7,41.29,56.82Z" transform="translate(-17.16 -3.04)" style="fill: #fff"/>
    <path d="M56.41,56.77c-1.2.29-1.69,15.26-1.69,16.05v0a13.13,13.13,0,0,0,2.6-1.75,21.34,21.34,0,0,0,3-3.43c.29-.42.49-.69.49-.69h-.06C60.71,66.85,57.63,56.48,56.41,56.77Z" transform="translate(-17.16 -3.04)" style="fill: #fff"/>
    <path d="M29.11,32.59h0c1.8,0,3.26-2.4,3.26-5.32S30.93,22,29.11,22a2.25,2.25,0,0,0-1.26.4c-1.2.8-2,2.7-2,4.92a7.53,7.53,0,0,0,.74,3.36A3.07,3.07,0,0,0,29.11,32.59Z" transform="translate(-17.16 -3.04)" style="fill: #f44336"/>
    <path d="M67.15,27.27c0,2.84,1.38,5.15,3.12,5.31h.16c.93,0,1.48-.62,2.34-1.62v-.22l.12.06,0-.06a7.44,7.44,0,0,0,.81-3.48c0-2.32-.92-4.28-2.2-5a2.2,2.2,0,0,0-1.1-.31C68.62,22,67.15,24.33,67.15,27.27Z" transform="translate(-17.16 -3.04)" style="fill: #f44336"/>
    <path d="M36.32,17c1.68.73,0-2.63,0-2.63s3.11,3.37,5,4.26.64-1.64.64-1.64a13.82,13.82,0,0,0,5.36,2.74c3,.67,0-2.61,0-2.61s5.17,3,7.76,2.7,0-2.17,0-2.17,5.61,3,7.67,2.2S61,17,61,17a30.27,30.27,0,0,1,4.64.49c3.12.51.67-.64.67-.64h3.31L67.2,12.17v-.24c-5.41-7.48-17.33-12.19-28-6.09a26,26,0,0,0-6.78,5.64c-.08.09-.15.15-.23.24s0,.39,0,.39,0,.4.08.4H32.2s0-.39,0-.38C32.35,12.39,34.69,16.25,36.32,17Z" transform="translate(-17.16 -3.04)" style="fill: #f44336"/>
    <path d="M77.49,38.55h0l.85.62L77,37.42l.74.47-1-1.63,1.2.7L76,35.05l.78.27-1.36-1.47.93.43L75,33.12h.88l-1.94-1.72h.54L73,30.73h-.16l-.12,0V31c-.86,1-1.41,1.62-2.34,1.62h-.17c-1.74-.15-3.11-2.46-3.11-5.31S68.62,22,70.44,22a2.21,2.21,0,0,1,1.1.31A20.38,20.38,0,0,0,67.2,12.17l2.45,4.64H66.34s2.45,1.15-.67.64A16.49,16.49,0,0,0,61,17.17s3.75,2,1.69,2.74-7.67-2.25-7.67-2.25,2.59,1.83,0,2.15-7.76-2.71-7.76-2.71,3,3.27,0,2.6A13.8,13.8,0,0,1,41.93,17s1.21,2.52-.64,1.63-5-4.26-5-4.26,1.68,3.36,0,2.62-4-5-4.11-5.23a21.91,21.91,0,0,0-4.35,10.62,2.25,2.25,0,0,1,1.26-.4c1.82,0,3.3,2.38,3.3,5.32S31,32.55,29.15,32.59h0a3.07,3.07,0,0,1-2.55-2s-.06-.08-.09,0l-1.59.81h.54l-1.94,1.72h.88L23,34.29l.93-.35-1.36,1.42.78-.29L21.38,37l1.2-.7-1,1.63.74-.47L21,39.17l.85-.62L21,39.94l.53-.55.31-.33,1.05-1.66a1.68,1.68,0,0,1,1.31-.59c2.5.27,3.59,9,2.45,19.55-.7,6.42-2.07,12-3.6,15.34h0l.09.62.58,3.93.35-1.4,1.46,4.28.57-1.78,2,4.07V79.64l1.71,3.59.27-2.12,2.32,3.41V83.06L35,85.8V84.38l1.5,1,1.93,1.4V85.43l1.71,2,.49-1.16,1.73,2.19L43,87.09l1.15,1.74.41-1.14,1.85,1.43h0l.83-1.17,1.93,1.47L50,87.89,51.39,89l.77-1.3.78.7.5.45,1.09-1.54.77,1.29L57,86.82l.51,1.61,1.46-1.61.61,1.23,2.7-2.43,0,0,.22,1.55h0l2-2.52L65,85.74l2.66-3.15v1l2.58-2.68v1.36L71,79.43V81l1.72-3.45v1.61l1.72-2.64V77.8l1.29-3.19.43,1.61V73.06l.58,1.05.16-2.87a56,56,0,0,1-3.71-14.78c-1.37-10.5-.47-19.27,2-19.59a1.44,1.44,0,0,1,1,.31l1.2,1.89.74.75.13.13-.47-.77ZM57.73,21.71a6.89,6.89,0,1,1-6.89,6.89A6.89,6.89,0,0,1,57.73,21.71Zm-15.8,0A6.89,6.89,0,1,1,35,28.6,6.89,6.89,0,0,1,41.93,21.71ZM60.85,67h0s-.16.27-.44.69a18.29,18.29,0,0,1-3.08,3.43,13.13,13.13,0,0,1-2.6,1.75v-.14a9.3,9.3,0,0,1-4.56.78H49.9c-2,0-3.77,0-5.49-.91h0s-3.44-1.36-6-7h0c-5.15-9.42-6-23.85-6.1-28.28a18.15,18.15,0,0,0,4.1,3.28A22.94,22.94,0,0,0,42.47,43a30.92,30.92,0,0,0,14.3,0,23.25,23.25,0,0,0,6-2.34,18.14,18.14,0,0,0,4.93-4.05C67.63,40.34,66.87,57.18,60.85,67Z" transform="translate(-17.16 -3.04)" style="fill: #b71c1c"/>
  </g>
</svg>
