<svg id="Layer_1" data-name="Layer 1" xmlns="http://www.w3.org/2000/svg" viewBox="0 0 94.25 78.69">
  <title>12</title>
  <g>
    <path d="M45.21,24.33s-8.64,1.77-13.7-4a13,13,0,0,0,5.62,8.57c-2.53.11-11.94-1.27-16.28-4.29C22.47,28.09,27,30.27,28.43,31c-2.53.72-15.27-.76-17.85-2.1,1.94,2.28,7.77,4.09,9.72,5.17-2.35.36-6.51,3.62-11.22,2.17,2.89,2.89,7.44,3.16,7.73,2.89C12,40.58,6.19,41.52,4.92,44.76c3.62-1.47,2.92-1.76,5.66-1.65C8.9,45.46,3.66,49.62,2.75,54c2.53-2.53,4.77-3.54,6.33-3.47-1.81,2.74-6,10.12-4.88,13.3,2-2.42,3.39-6.55,5.25-6.94-.9,6.15-2,12.33,0,14.49.54-5.8,1.49-8.87,3.08-9.24.36,4.88-.36,13,2.53,14.83-.72-5.79.54-9.67,1.63-9.63.54,5.29.36,11.62,3.62,13.79-.72-7.06,1.27-9.74,2.45-9.75.45,2.7,2.79,11,5.69,12.65-1.26-4-1.09-8.86.72-9s3.63,10.31,5.43,12.3c-.54-6,1.63-9.23,2.53-9.77s8.35,8,8.61,11.94C46.35,82.91,51,78.75,52.45,78c1.13,1.45,5.11,5.25,5.11,10.67.72-5.43-.18-9.41,3.08-11.4,2.53,2.17,7.57,7.06,8.22,9.95,1.19-6.33.88-10.58-.59-11.66,3.59,4.34,6.13,0,8.66,3.67-1.45-5.07-1-4.66-3.61-6.2,1.27-1,7.08-2.11,9.25,2.13-1.27-5.16-.17-9.19-1.64-9,5,1.85,8.48.93,9,2.57-.54-3.25-2.17-7.77-4.16-7,4.16.18,6.33-.72,7.6.9-1.27-3.08-3.08-6.87-4.7-6.51,4-.72,6.51-7.11,8.32-5.64-4-2.5-7.42-1.3-8.5,0,.18-2.32,2.71-9.2,5.61-9.2-2.71-1.63-6.87-2.35-8.32-.18-.36-3.8,2.17-8.14,5.07-7.6-2.53-2-9.32-.4-12.06,1.77-1.47-1.09,4.28-9,7.17-9.19-3.44-.54-12.25,2.64-13.9,4.92-1.11-1.7-1.47-10.35,3.23-10.71-1.63-2.17-7.53,4.45-9.64,7.53C65.34,25.49,65.86,14,68.86,12c-5.14-.36-10.93,7.71-11.29,11.87-1.81.72-5.31-12-5.44-13.13C50.54,13.8,49.88,20.68,45.21,24.33Z" transform="translate(-2.75 -10.73)" style="fill: #880e4f"/>
    <g>
      <circle cx="23.2" cy="41.22" r="12.07" style="fill: #fff"/>
      <circle cx="23.2" cy="41.22" r="7.19" style="fill: #9c27b0"/>
      <circle cx="23.2" cy="41.22" r="3.21"/>
      <circle cx="25.68" cy="36.69" r="3.08" style="fill: #fff"/>
    </g>
    <g>
      <circle cx="66.1" cy="41.22" r="12.07" style="fill: #fff"/>
      <circle cx="66.1" cy="41.22" r="7.19" style="fill: #9c27b0"/>
      <circle cx="66.1" cy="41.22" r="3.21"/>
      <circle cx="68.59" cy="36.69" r="3.08" style="fill: #fff"/>
    </g>
    <path d="M37.12,64s12.12,8.22,20.44-.21C57.56,72,42.91,81.28,37.12,64Z" transform="translate(-2.75 -10.73)"/>
    <polygon points="37.25 54.85 38.97 58.75 39.63 55.8 37.25 54.85" style="fill: #fff"/>
    <polygon points="49.7 56.25 50.87 58.91 51.51 55.49 49.7 56.25" style="fill: #fff"/>
    <path d="M43.31,72.75,44.76,70,46,73.68A4.11,4.11,0,0,1,43.31,72.75Z" transform="translate(-2.75 -10.73)" style="fill: #fff"/>
    <path d="M50.63,73.05l.64-3.42L53,71.78A12.81,12.81,0,0,1,50.63,73.05Z" transform="translate(-2.75 -10.73)" style="fill: #fff"/>
    <path d="M45.73,67.38l1.91,4.09,1.76-3.9A16,16,0,0,0,45.73,67.38Z" transform="translate(-2.75 -10.73)" style="fill: #fff"/>
    <g>
      <g style="opacity: 0.15">
        <path d="M82.58,44c1.71,1.93,2.5,7.26-.43,12.58a14.78,14.78,0,0,1-15.93,7.69c-7.39-1.22-10.8-8.6-11.91-13.06a7.86,7.86,0,0,1,2.42-7.8l.18-.14c7-4.33,15.13-3.85,18-3.51A12.26,12.26,0,0,1,82.58,44Z" transform="translate(-2.75 -10.73)" style="fill: #e1f5fe"/>
      </g>
      <g style="opacity: 0.15">
        <path d="M38.27,43.36a7.86,7.86,0,0,1,2.42,7.8C39.59,55.61,36.18,63,28.79,64.22a14.78,14.78,0,0,1-15.93-7.69C9.93,51.21,10.73,45.88,12.43,44a12.26,12.26,0,0,1,7.66-4.24c2.87-.34,11-.82,18,3.51Z" transform="translate(-2.75 -10.73)" style="fill: #e1f5fe"/>
      </g>
      <path d="M82.58,44a12.26,12.26,0,0,0-7.66-4.24c-2.87-.34-11-.82-18,3.51l-.18.14a7.86,7.86,0,0,0-2.42,7.8c1.1,4.46,4.52,11.84,11.91,13.06a14.78,14.78,0,0,0,15.93-7.69C85.09,51.21,84.29,45.88,82.58,44ZM12.43,44c-1.71,1.93-2.5,7.26.43,12.58a14.78,14.78,0,0,0,15.93,7.69c7.39-1.22,10.8-8.6,11.91-13.06a7.86,7.86,0,0,0-2.42-7.8l-.18-.14c-7-4.33-15.13-3.85-18-3.51A12.26,12.26,0,0,0,12.43,44ZM9.2,46.45c.9-1.49,4.27-7.32,9.33-8.31,4.7-.91,15.47-.77,20.64,3.2a1.12,1.12,0,0,0,.82.24c1.36-.15,13.69-.15,15,0a1.14,1.14,0,0,0,.82-.24c5.16-4,15.95-4.11,20.64-3.2,5.06,1,8.45,6.82,9.35,8.31a1.2,1.2,0,0,0,.56.45l1.83.73a1.26,1.26,0,0,1,.82,1v1.67a1.21,1.21,0,0,1-1,1c-1.87.46-2.92,3.14-2.92,3.14s-2.75,6.65-7,9.46-12.45,3-17.52.31-7.39-9.47-8.24-12a10.74,10.74,0,0,1-.79-4.64c.12-.43,1.1-.26,1.1-2,0-1.13-10.45-1.13-10.45,0,0,1.7,1,1.53,1.1,2a10.73,10.73,0,0,1-.79,4.64c-.85,2.56-3.17,9.34-8.24,12S21,66.78,16.83,64s-7-9.46-7-9.46-.93-2.68-2.79-3.14a1.08,1.08,0,0,1-.86-1V48.67a1.13,1.13,0,0,1,.69-1l1.76-.73A1.13,1.13,0,0,0,9.2,46.45Z" transform="translate(-2.75 -10.73)" style="fill: #9c27b0"/>
    </g>
  </g>
</svg>
