<svg id="Layer_1" data-name="Layer 1" xmlns="http://www.w3.org/2000/svg" viewBox="0 0 89.6 92.74">
  <title>13</title>
  <g>
    <ellipse cx="16.49" cy="41.16" rx="16.49" ry="9.96" style="fill: #2196f3"/>
    <ellipse cx="73.11" cy="40.46" rx="16.49" ry="9.96" style="fill: #2196f3"/>
    <ellipse cx="30.11" cy="77.11" rx="9.23" ry="15.63" style="fill: #2196f3"/>
    <ellipse cx="58.53" cy="77.11" rx="9.23" ry="15.63" style="fill: #2196f3"/>
    <path d="M46.16,3.59l0,8.53L36.58,6.55l2.23,6.74L28.58,9.59l2.36,6.51-9.3,1.72,5.78,2.78-8.19,5.1,4.14,1.73-4.74,6,3.56.37L18.66,45.15l3-1.21-2,8.54,2.81-.8L20.91,63.06,23.37,60,25.27,70.8l2.15-2.67,3.52,10.12,1.42-2.53,3.32,6.75,1.86-1.69,5,4.92,1-2.39,6.8,4.78,5-4.36V86l6.77-5.21s.73,3.23,1.09,3.09S69.19,75,69.19,75l2.26,3L75,66.58l2.34,3.65L76.73,56l3.88,3.09-2.35-14L82,46.75,76.72,32.63l3.91-1L72.72,23,75,19.75l-9.22-3.51,3.69-4.41-7.26.89,2.17-7.45L57,11.47l-.08-8.21L51.71,11Z" transform="translate(-5.59 -3.26)" style="fill: #0d47a1"/>
    <g>
      <circle cx="30.69" cy="33.03" r="8.86" style="fill: #fff"/>
      <circle cx="30.69" cy="33.03" r="5.34" style="fill: #2196f3"/>
      <circle cx="30.69" cy="33.03" r="2.53"/>
      <circle cx="33.22" cy="29.37" r="1.27" style="fill: #fff"/>
    </g>
    <g>
      <circle cx="57.56" cy="33.03" r="8.86" style="fill: #fff"/>
      <circle cx="57.56" cy="33.03" r="5.34" style="fill: #2196f3"/>
      <circle cx="57.56" cy="33.03" r="2.53"/>
      <circle cx="60.1" cy="29.37" r="1.27" style="fill: #fff"/>
    </g>
    <path d="M72.07,46.39C79,56.88,61.29,76.79,50,76.79S21.62,57,28,46.39C30.05,43,38.79,52,50,52S69.89,43.08,72.07,46.39Z" transform="translate(-5.59 -3.26)"/>
    <path d="M29,45.68s.38,6.1,2,6.77,3.38-3.82,4.76-2.67,2.79,5.21,4.38,5.67,3.95-2.93,4.86-2.33,3.47,5,4.58,5.18,3.88-4.58,4.79-4.38,1.95,2.79,3.52,3,3.24-5,4.4-4.79,3.16,2,4.74,1.81.11-4.38,1.55-4.78,3,1.19,3.52,1.19.72-2.25.34-3.2c-1.1-2.76-1-2.08-11.73,2.53a27.74,27.74,0,0,1-23.08-.83S31.83,44.85,29,45.68Z" transform="translate(-5.59 -3.26)" style="fill: #fff"/>
    <path d="M37.54,71s2-3.07,3.84-2c1.4.83,1.27,3.42,2.87,3.62s3.16-3.46,4.32-3.26c1.54.26,2.65,3.67,4.24,3.27s2.11-3.35,3.58-3.75,5.41,2.78,5.41,2.78a20.22,20.22,0,0,1-10.56,5.16C47.22,77.48,41.45,74.85,37.54,71Z" transform="translate(-5.59 -3.26)" style="fill: #fff"/>
  </g>
</svg>
