<svg id="Layer_1" data-name="Layer 1" xmlns="http://www.w3.org/2000/svg" viewBox="0 0 79.06 91.13">
  <title>14</title>
  <g>
    <g>
      <g>
        <path d="M27,52.41c-1.37,1.28-2.82,2.62-4.3,4.1C15.46,63.77,10.22,70.36,11,71.15s7.13-4,14.25-11.31h-.51Z" transform="translate(-10.94 -5.14)" style="fill: #9c27b0"/>
        <path d="M78,56.67a7.1,7.1,0,0,0-2.46-2.17v.61l-1.72-2.24,3.29,8.06-1.62-2.51.27,1.22C83,66.75,89.19,71.9,89.93,71.16S85.3,63.92,78,56.67Z" transform="translate(-10.94 -5.14)" style="fill: #9c27b0"/>
        <path d="M65.84,95.22c.59,0,1-4.94,1-11.87L64.4,85.43C64.76,91.27,65.31,95.23,65.84,95.22Z" transform="translate(-10.94 -5.14)" style="fill: #9c27b0"/>
        <path d="M34.74,86.08l-.28-.41c.37,6,.94,10.16,1.48,10.14s.92-4.35,1-10.61l-2.09-2Z" transform="translate(-10.94 -5.14)" style="fill: #9c27b0"/>
        <path d="M77.28,60.93l-3.41-8.06,1.72,2.24V48.59L77,50.81V41.93l1.91-.31L76.06,33.3l1.45-.23-4.85-3.75L75,28.2,67.18,24l-3.86-8.21L59,18,57.32,5.14,52,15.62,47.83,6.49l-2.22,9s-2.68-5.35-3.1-4.95-2.27,7.25-2.27,7.25l-6-1.63-1.59,9.49-9.09,5.8h2.72l-4.6,8.27,3-2.31-3,9.91L24.22,44l.13,5.71,1.19-1.57.69,4.43.94-.79-.17.65-2.25,7.43h1l-2.23,7.57,1.74-2.09v9.73l1.75-2.63,2.09,10.21.69-3.76,4.61,6.79.28.41.11-2.9,1.91,2,3.13,3.21V86.15l6.47,3.17-.72-3.24,4.09,5.69,2.55-5.1v2.65l4.37-2.38v2.38l4.86-4.26,1.22,1.75,1.66-1.38,2.48-2.07,1-.85,1.21,1.88,3.23-5.78.81,1.61L74.46,75,75,77.13l1.13-6.55,1.15,1.85-1.15-7.11,1.15,1.61-1.44-7.3-.24-1.22Z" transform="translate(-10.94 -5.14)" style="fill: #4a148c"/>
      </g>
      <g>
        <circle cx="26.04" cy="32.53" r="7.79" style="fill: #fff"/>
        <circle cx="26.04" cy="32.53" r="5.52" style="fill: #9c27b0"/>
        <circle cx="26.04" cy="32.53" r="3.45"/>
        <circle cx="27.79" cy="28.13" r="1.51" style="fill: #fff"/>
      </g>
      <g>
        <circle cx="52.99" cy="32.53" r="7.79" style="fill: #fff"/>
        <circle cx="52.99" cy="32.53" r="5.71" style="fill: #9c27b0"/>
        <circle cx="52.99" cy="32.53" r="3.35"/>
        <circle cx="54.73" cy="27.97" r="1.51" style="fill: #fff"/>
      </g>
      <path d="M56,49.56c0,3-2.47,7.25-5.52,7.25S45,52.61,45,49.56s2.47-4.83,5.52-4.83S56,46.51,56,49.56Z" transform="translate(-10.94 -5.14)" style="fill: #9c27b0"/>
      <path d="M69.64,56.56c0,1.71-8.42,14-18.8,14S32,58.26,32,56.56s8.42,3.25,18.8,3.25S69.64,54.85,69.64,56.56Z" transform="translate(-10.94 -5.14)"/>
      <path d="M35.49,56.91s1.35,3.43,2.42,3.7,2-1.34,2-1.34.75,4.21,2,4.12,2.4-1.84,2.4-1.84,1.49,3.76,2.43,3.76,2.34-2.82,2.34-2.82,2.09,2.83,3.11,2.82c.82,0,2.8-2.82,2.8-2.82s1.05,2.15,1.86,2.28S60,60.93,60,60.93s.62,2.15,1.56,2.47,3.62-6.16,3.62-6.16-9.08,2.65-12.44,2.58C45.06,59.67,35.49,56.91,35.49,56.91Z" transform="translate(-10.94 -5.14)" style="fill: #fff"/>
      <path d="M63.91,26.38a11.3,11.3,0,0,0-11.17,9.54,9.73,9.73,0,0,0-2.43-.25,10.45,10.45,0,0,0-2.22.2,11.3,11.3,0,1,0,0,3.62,10.45,10.45,0,0,0,2.22.2,9.73,9.73,0,0,0,2.43-.25A11.3,11.3,0,1,0,63.91,26.38Zm-27,20.42a9.12,9.12,0,1,1,9.12-9.12A9.12,9.12,0,0,1,36.94,46.8Zm27,0A9.12,9.12,0,1,1,73,37.68,9.12,9.12,0,0,1,63.91,46.8Z" transform="translate(-10.94 -5.14)" style="fill: #9c27b0"/>
    </g>
    <path d="M35.2,92.63H27.54c-1.27,0-2.31,1.46-2.31,3.64H37.51C37.51,94.09,36.47,92.63,35.2,92.63Z" transform="translate(-10.94 -5.14)" style="fill: #9c27b0"/>
    <path d="M66.86,92.63h7.66c1.27,0,2.31,1.46,2.31,3.64H64.54C64.54,94.09,65.59,92.63,66.86,92.63Z" transform="translate(-10.94 -5.14)" style="fill: #9c27b0"/>
  </g>
</svg>
