<svg id="Layer_1" data-name="Layer 1" xmlns="http://www.w3.org/2000/svg" viewBox="0 0 93.84 77.97">
  <title>15</title>
  <g>
    <path d="M38.78,56.77a2.83,2.83,0,0,0-.7-2.72A15.71,15.71,0,0,1,36.56,52l-.27-.43A35.9,35.9,0,0,1,33,43c-1.25-4.45-3.38-9.52-8-9.76-4.38-.23-7.29,3.93-9.21,7.91-2.1,4.36-4.15,8.76-6.21,13.14-3,.88-7,3.61-6.26,7.56a3.19,3.19,0,0,0,4.37,2.71,2.4,2.4,0,0,0,.44-.23c0,.39.06.78.12,1.16.25,1.79,2.46,2.81,3.53,1.35a1.91,1.91,0,0,0,3.4.29A6.09,6.09,0,0,0,16,62.28c-.33-1.58-1.27-3-1.23-4.67.07-3.16,2.22-6.08,3.74-8.51,1-1.56,2-3.08,3-4.58q.74-1.06,1.51-2.1c.22-.29.63-.85.92-.94.74-.23,1.75,6.4,1.9,7.2a33.39,33.39,0,0,0,2.66,8.81c1.22,2.4,3.41,5.6,6.21,4.76A3.25,3.25,0,0,0,36,61.54a3.75,3.75,0,0,0,2.59-2.44A3.94,3.94,0,0,0,38.78,56.77Z" transform="translate(-3.16 -8.36)" style="fill: #f9a825"/>
    <path d="M61.32,57.61A2.84,2.84,0,0,1,62,54.87a15.84,15.84,0,0,0,1.49-2.09l.26-.44a36.1,36.1,0,0,0,3.19-8.61c1.18-4.47,3.23-9.59,7.88-9.93,4.38-.32,7.35,3.77,9.34,7.71,2.17,4.31,4.29,8.67,6.42,13,3.06.81,7,3.46,6.38,7.43a3.2,3.2,0,0,1-4.33,2.81,2.4,2.4,0,0,1-.45-.22c0,.39,0,.78-.1,1.17-.22,1.8-2.42,2.86-3.51,1.43a1.92,1.92,0,0,1-3.39.36,6.08,6.08,0,0,1-1-4.86c.3-1.59,1.22-3,1.15-4.69-.12-3.16-2.32-6-3.88-8.43-1-1.54-2-3-3.1-4.51-.5-.7-1-1.39-1.54-2.07-.22-.29-.64-.83-.94-.92-.75-.22-1.64,6.43-1.79,7.24a33.53,33.53,0,0,1-2.52,8.87c-1.18,2.43-3.32,5.67-6.13,4.89a3.23,3.23,0,0,1-1.28-.7,3.72,3.72,0,0,1-2.63-2.39A3.93,3.93,0,0,1,61.32,57.61Z" transform="translate(-3.16 -8.36)" style="fill: #f9a825"/>
    <path d="M41.9,48.45a3.68,3.68,0,0,0-5.34-2.65c-.94.57-1.63,2-2.2,3a22.06,22.06,0,0,0-1.65,3.85,21.74,21.74,0,0,0-1.07,7.53c-.55,2-1,4-1.55,6-.3,1.12-1.33,2-2,2.85a42.26,42.26,0,0,0-2.67,3.92c-1.55,2.51-2.86,5.2-4.17,7.88A2.67,2.67,0,0,0,22,84c1.54,1.36,3.59.68,5-.6l.12-.12a4.84,4.84,0,0,0,3.3,3A2.22,2.22,0,0,0,33,84.49l.14.18c1.11,1.42,3,.54,3.46-1.05.92-3-.89-5.49-2.46-7.67a1.76,1.76,0,0,1-.45-1.79,28.08,28.08,0,0,1,1.93-2.72C37,69.27,37,66.28,37.26,63.72a21.24,21.24,0,0,1,2.35-7.2C40.82,54,42.62,51.48,41.9,48.45Z" transform="translate(-3.16 -8.36)" style="fill: #f9a825"/>
    <path d="M58.18,48.45a3.68,3.68,0,0,1,5.34-2.65c.94.57,1.63,2,2.2,3a22.06,22.06,0,0,1,1.65,3.85,21.74,21.74,0,0,1,1.07,7.53c.55,2,1,4,1.55,6,.3,1.12,1.33,2,2,2.85a42.3,42.3,0,0,1,2.67,3.92c1.55,2.51,2.86,5.2,4.17,7.88A2.67,2.67,0,0,1,78.08,84c-1.54,1.36-3.59.68-5-.6L73,83.33a4.84,4.84,0,0,1-3.3,3,2.22,2.22,0,0,1-2.59-1.8l-.14.18c-1.11,1.42-3,.54-3.46-1.05-.92-3,.89-5.49,2.46-7.67a1.76,1.76,0,0,0,.45-1.79,28.15,28.15,0,0,0-1.93-2.72c-1.38-2.17-1.41-5.16-1.66-7.71a21.24,21.24,0,0,0-2.35-7.2C59.27,54,57.46,51.48,58.18,48.45Z" transform="translate(-3.16 -8.36)" style="fill: #f9a825"/>
    <polygon points="83.77 35.34 81.05 30.05 79.25 26.56 80.38 24.38 72.41 21.18 73.06 17.98 65.22 19.32 68.66 9.51 58.55 15.97 57.92 4.49 54.21 11.99 51.33 0 47.69 10.23 42.95 4.31 41.2 11.66 35.97 9.4 34.11 15.21 27.2 13.92 27.12 18.38 16.38 20.64 18.81 23.8 11.02 28.1 12.95 30.52 14.4 32.27 9.68 37.29 12.56 37.29 12.33 39.75 11.86 44.65 15.13 42.68 15.44 46.64 17.78 45.22 20.11 51.32 20.58 48.09 20.99 48.77 24.47 54.38 23.69 49.89 29.23 56.35 28.2 52.22 29.71 53.83 34.27 58.68 33.67 53.84 39.21 68.01 39.21 62.74 42.94 68.01 42.94 62.32 47.03 71.96 48.88 63.53 49.52 68.01 53.5 61.55 53.5 66.34 57.85 61.02 57.85 64.44 64.19 52.44 64.69 52.22 64.69 54.99 68.83 50.61 69.36 53.84 72.99 49.41 74.01 48.09 74.01 50.97 77.35 44.33 79.39 46.65 80.33 40.08 82.98 42.7 82.46 40.16 81.4 35.12 83.77 35.34" style="fill: #e65100"/>
    <g>
      <path d="M63.36,46.41c0,6.34-6.88,19.86-12.38,19.86S38.6,52.75,38.6,46.41,45.48,50.3,51,50.3,63.36,40.07,63.36,46.41Z" transform="translate(-3.16 -8.36)"/>
      <path d="M41.25,45s5.85,14.52,6.86,15.11,1.68-9.92,1.68-9.92S43.63,45.11,41.25,45Z" transform="translate(-3.16 -8.36)" style="fill: #fff"/>
      <path d="M61.17,44.83s-5.85,14.52-6.86,15.11S52.63,50,52.63,50,58.8,45,61.17,44.83Z" transform="translate(-3.16 -8.36)" style="fill: #fff"/>
      <path d="M42.05,57.5l1.75-2.75,1.72,8S44,61.79,42.05,57.5Z" transform="translate(-3.16 -8.36)" style="fill: #fff"/>
      <path d="M59.93,57.5l-1.75-2.75-1.72,8S58,61.79,59.93,57.5Z" transform="translate(-3.16 -8.36)" style="fill: #fff"/>
    </g>
    <g>
      <ellipse cx="27.32" cy="34.28" rx="6.27" ry="7.23" style="fill: #fff"/>
      <ellipse cx="27.32" cy="34.28" rx="3.91" ry="4.51" style="fill: #4fc3f7"/>
      <ellipse cx="27.32" cy="32.82" rx="1.82" ry="2.1"/>
      <ellipse cx="26.2" cy="30.47" rx="1.07" ry="1.24" style="fill: #fff"/>
    </g>
    <g>
      <ellipse cx="68.8" cy="34.92" rx="6.27" ry="7.23" style="fill: #fff"/>
      <ellipse cx="68.8" cy="34.92" rx="3.91" ry="4.51" style="fill: #4fc3f7"/>
      <ellipse cx="68.8" cy="33.46" rx="1.82" ry="2.1"/>
      <ellipse cx="67.68" cy="31.11" rx="1.07" ry="1.24" style="fill: #fff"/>
    </g>
    <g>
      <ellipse cx="48.27" cy="25.48" rx="6.27" ry="7.23" style="fill: #fff"/>
      <ellipse cx="48.27" cy="25.48" rx="3.91" ry="4.51" style="fill: #4fc3f7"/>
      <ellipse cx="48.27" cy="24.03" rx="1.82" ry="2.1"/>
      <ellipse cx="47.16" cy="21.68" rx="1.07" ry="1.24" style="fill: #fff"/>
    </g>
  </g>
</svg>
