<svg id="Layer_1" data-name="Layer 1" xmlns="http://www.w3.org/2000/svg" viewBox="0 0 93.23 81.49">
  <title>16</title>
  <g>
    <path d="M33.3,42.82c-2,1.88-4.15,3.85-6.32,6C16.32,59.51,8.62,69.2,9.79,70.37s10.48-5.91,21-16.63Z" transform="translate(-3.77 -7.19)" style="fill: #b2ebf2"/>
    <path d="M34.11,35.58c-2.47,1.23-5.06,2.54-7.76,4C13.13,46.83,3,54,3.81,55.43s11.72-2.74,24.78-10.08Z" transform="translate(-3.77 -7.19)" style="fill: #9c27b0"/>
    <path d="M42,31.64c-2.44-1.29-5-2.64-7.77-4C20.6,21.11,8.91,17,8.19,18.52s9,7.95,22.6,14.31Z" transform="translate(-3.77 -7.19)" style="fill: #b71c1c"/>
    <path d="M70.9,45.15c-1.38-1.38-1.87-2.73-4.57-4l-.1,7.26.51,2.26C80,63.88,91.59,73.43,93,72.05S84.36,58.62,70.9,45.15Z" transform="translate(-3.77 -7.19)" style="fill: #b2ebf2"/>
    <path d="M69.46,33.34c-1.65-1-2.42-2.25-5.35-2.91l1.51,7.1,1,2.09c15.88,10,29.28,16.72,30.32,15.07S85.57,43.49,69.46,33.34Z" transform="translate(-3.77 -7.19)" style="fill: #9c27b0"/>
    <path d="M57.33,26.32c-1.53,1.22-2.92,1.55-4.5,4.1l7.21.9,2.3-.25C76.95,19.33,87.73,8.89,86.51,7.37S72.2,14.43,57.33,26.32Z" transform="translate(-3.77 -7.19)" style="fill: #b71c1c"/>
    <path d="M45.13,81c.35-4.78.58-12,.65-20.65l-3.69-5.18-.68,6.18c.31,7.16.69,13.65,1.11,17.55H29.15c-2.25,0-4.09,3.9-4.09,9.76H46.8C46.8,84.78,46.13,82.63,45.13,81Z" transform="translate(-3.77 -7.19)" style="fill: #9c27b0"/>
    <path d="M77.7,88.68c0-5.85-1.84-9.76-4.09-9.76H60.06c-.23,0-.45.2-.67.28.39-5.36.64-13.65.68-23.66l-4.36,5.31c.4,9.19.92,16.67,1.48,20.94-.76,1.62-1.23,3-1.23,6.89Z" transform="translate(-3.77 -7.19)" style="fill: #9c27b0"/>
    <path d="M50.58,19.27c-3.5.13-13.87,1.87-13.87,1.87l2.69.52L28.72,26.79l4.15-.38-9.81,8.15,4.38-.83-4.38,9.66,3.32-2.11L24,53l2.64-2,1.13,10.51L29.25,58,32,67.4l1.66-3.47,5,9.66.79-5.25,4.41,7.74,3.62-4.76L51,82.11l4.35-11.4,1.75,4.08,4.68-6.46,1.66,3L67.3,64.9,69,68.34l1.76-8,3.57,4.3V54.79l3.49,3.92L76.19,48.37l3.7,2.72L76.5,41.94l3.4,1.76-5.43-8.41,3.32.71-7.1-7.1,4.34.75-10.3-6.42,6.49.83s-9-3.67-12.15-4.3A48.05,48.05,0,0,0,50.58,19.27Z" transform="translate(-3.77 -7.19)" style="fill: #0091ea"/>
    <g>
      <path d="M54.29,59.58h0a12.24,12.24,0,0,1-1.48.5l-.41.09-.15,0-.24,0c-.26,0-1.17,0-1.41.07a19.4,19.4,0,0,1-3-.62c-3.51-1.41-6.64-6.39-8.78-8.64a22.81,22.81,0,0,0,8.78,2.14c1,0,6.37.08,6.68.08,4.22,0,7.93-1.93,9-2.25C65.54,50.36,59.34,57.53,54.29,59.58Z" transform="translate(-3.77 -7.19)"/>
      <path d="M50.49,53.27v1.9c0,.88-.45,1.6-1.33,1.6s-1.33-.72-1.33-1.6v-2C48.5,53.23,49.16,53.26,50.49,53.27Z" transform="translate(-3.77 -7.19)" style="fill: #fff"/>
      <path d="M54.49,53.31v1.86a1.67,1.67,0,0,1-3.33,0V53.28Z" transform="translate(-3.77 -7.19)" style="fill: #fff"/>
      <path d="M50.49,59.62v.71a4.94,4.94,0,0,1-2.66-.55v-.16A1.5,1.5,0,0,1,49.31,58a1.16,1.16,0,0,1,.92.47A1.47,1.47,0,0,1,50.49,59.62Z" transform="translate(-3.77 -7.19)" style="fill: #fff"/>
      <path d="M54.31,59.59a10,10,0,0,1-3.15.74v-.71A1.57,1.57,0,0,1,52.71,58a1.6,1.6,0,0,1,1.6,1.56Z" transform="translate(-3.77 -7.19)" style="fill: #fff"/>
    </g>
    <g>
      <g>
        <circle cx="37.01" cy="33.73" r="4.62" style="fill: #fdd835"/>
        <path d="M41.93,40.91a6.07,6.07,0,0,1-1.16,3.33,6.07,6.07,0,0,1-1.16-3.33,6.07,6.07,0,0,1,1.16-3.33A6.07,6.07,0,0,1,41.93,40.91Z" transform="translate(-3.77 -7.19)"/>
      </g>
      <g>
        <circle cx="57.73" cy="33.73" r="4.62" style="fill: #fdd835"/>
        <path d="M60.34,40.91a6.07,6.07,0,0,0,1.16,3.33,6.07,6.07,0,0,0,1.16-3.33,6.07,6.07,0,0,0-1.16-3.33A6.07,6.07,0,0,0,60.34,40.91Z" transform="translate(-3.77 -7.19)"/>
      </g>
    </g>
    <path d="M71,36.08c-.14-1.35-.68-4-2.56-4.56s-12.36-1.26-13.69.42-1.24,3.35-1.65,3.44a20.15,20.15,0,0,1-3.35,0c-.41-.09-.31-1.77-1.65-3.44s-11.82-1-13.69-.42S32,34.73,31.86,36.08s-1.65,1.54-1.65,1.54V41c1.46.29,2,.92,2.16,3s.72,4.56,2.22,5.58,10.18.37,11.71,0,2.77-6.74,3.14-8.54a2,2,0,0,1,4,0c.38,1.8,1.61,8.17,3.14,8.54s10.21,1,11.71,0,2-3.53,2.22-5.58.7-2.68,2.16-3V37.62S71.15,37.43,71,36.08ZM46.37,48c-2,2-11.27.79-11.75,0-.66-1.09-2-7.61-1.19-12.92a2.53,2.53,0,0,1,2.42-2.42c1.4-.09,10.93-1.16,11.78,1.21S48.34,46,46.37,48Zm21.87,0c-.48.79-9.73,2-11.75,0S54.38,36.27,55.24,33.9,65.62,32.6,67,32.69a2.53,2.53,0,0,1,2.42,2.42C70.24,40.42,68.91,46.94,68.25,48Z" transform="translate(-3.77 -7.19)" style="fill: #b71c1c"/>
  </g>
</svg>
