<svg id="Layer_1" data-name="Layer 1" xmlns="http://www.w3.org/2000/svg" viewBox="0 0 93.93 79.36">
  <title>17</title>
  <g>
    <path d="M75.11,39.23c1-.42,2.14-.89,3.3-1.41L73.83,35Z" transform="translate(-4.07 -8.93)" style="fill: none"/>
    <path d="M16.23,30.82c-8.06-5.56,4.88,6.7,14.82,12.41l1.75-3.75A84.89,84.89,0,0,1,16.23,30.82Z" transform="translate(-4.07 -8.93)" style="fill: #e91e63"/>
    <path d="M26.41,43.85q.72.38,1.4.71l.7-2.88Z" transform="translate(-4.07 -8.93)" style="fill: #e91e63"/>
    <path d="M85.06,30.94a78.3,78.3,0,0,1-11.5,6.47l2,2.21-2.94-1.8c-1.16.52-2.26,1-3.3,1.41l1.19,3.91C80.37,37.44,93,25.46,85.06,30.94Z" transform="translate(-4.07 -8.93)" style="fill: #e91e63"/>
    <path d="M38.86,67.79,37.15,63.9c-3.18,10.86-3.71,29.77-1.9,20A84.53,84.53,0,0,1,40.84,66l-2-3.43Z" transform="translate(-4.07 -8.93)" style="fill: #e91e63"/>
    <path d="M61.09,64.46l-.74,1.09a84.78,84.78,0,0,1,5.82,18.3C68,93.91,67.38,73.81,64,63.11l-2.29,5.26Z" transform="translate(-4.07 -8.93)" style="fill: #e91e63"/>
    <polygon points="69.75 26.09 74.34 28.9 77.28 30.7 75.25 28.48 67.87 20.42 75.69 22.45 62.99 14.37 72.07 13.21 58.55 9.64 46.73 0.06 49.18 6.85 31.99 0 39.79 7.62 21.18 7.62 31.11 10.8 22.28 21.26 28.64 18.38 22.97 30.58 21.24 34.3 19.67 37.67 22.34 34.92 24.45 32.75 23.75 35.63 20.25 49.98 24.45 43.32 23.43 60.8 26.31 52.29 28.5 66.47 30.04 59.67 33.08 66.49 34.79 70.38 34.79 65.11 36.8 68.55 39.87 73.86 39.87 69.9 43.91 77.33 43.45 71.69 46.77 79.36 48.23 72.27 49.2 75.45 51.81 70.67 52.53 73.71 56.28 68.15 57.02 67.05 57.64 70.96 59.92 65.7 60.78 63.73 61.86 67.92 66.42 55.89 67.44 62.42 68.66 46.07 71.35 55.89 70.33 37.24 74.96 43.17 72.23 34.21 71.04 30.31 69.75 26.09" style="fill: #880e4f"/>
    <g>
      <circle cx="47.41" cy="31.6" r="8.34" style="fill: #fff"/>
      <circle cx="47.41" cy="31.6" r="5.07" style="fill: #880e4f"/>
      <circle cx="47.41" cy="31.6" r="2.29"/>
      <circle cx="49.7" cy="28.33" r="2.29" style="fill: #fff"/>
    </g>
    <path d="M69,49.72C69,57.48,59.31,74,51.56,74S34.1,57.48,34.1,49.72s9.7,4.75,17.46,4.75S69,42,69,49.72Z" transform="translate(-4.07 -8.93)"/>
    <path d="M37.84,48s8.25,17.75,9.67,18.48,2.37-12.13,2.37-12.13S41.19,48.13,37.84,48Z" transform="translate(-4.07 -8.93)" style="fill: #fff"/>
    <path d="M65.94,47.78s-8.25,17.75-9.67,18.48-2.37-12.13-2.37-12.13S62.58,48,65.94,47.78Z" transform="translate(-4.07 -8.93)" style="fill: #fff"/>
    <path d="M39,63.28l2.46-3.37,2.43,9.81S41.69,68.53,39,63.28Z" transform="translate(-4.07 -8.93)" style="fill: #fff"/>
    <path d="M64.18,63.28l-2.46-3.37-2.43,9.81S61.46,68.53,64.18,63.28Z" transform="translate(-4.07 -8.93)" style="fill: #fff"/>
    <path d="M15.22,30.33s5.9-4.62,5.11-6.4-5.52,3.86-5.52,3.86S10.23,19.43,9,20.62s3.18,7.94,3.18,7.94S4,30.15,4.07,31c.14,1.08,10.64-.66,10.64-.66Z" transform="translate(-4.07 -8.93)" style="fill: #e91e63"/>
    <path d="M86.85,30.33S81.19,26.18,82,24.4s5.29,3.39,5.29,3.39,4.57-8.36,5.76-7.16-3.18,7.94-3.18,7.94S98.11,30.15,98,31c-.14,1.08-10.64-.66-10.64-.66Z" transform="translate(-4.07 -8.93)" style="fill: #e91e63"/>
    <path d="M34.28,84s-9.34,0-10.53,2,10.53,1.59,10.53,1.59S36.66,86.56,34.28,84Z" transform="translate(-4.07 -8.93)" style="fill: #e91e63"/>
    <path d="M67.38,84s9.34,0,10.53,2-10.53,1.59-10.53,1.59S65,86.56,67.38,84Z" transform="translate(-4.07 -8.93)" style="fill: #e91e63"/>
  </g>
</svg>
