<svg id="Layer_1" data-name="Layer 1" xmlns="http://www.w3.org/2000/svg" viewBox="0 0 80.07 87.98">
  <title>18</title>
  <g>
    <path d="M56.15,53.83s2.92,12.5,3.31,16.28,1,12.93,1.36,14.19,7.48,5.49,5.4,5.91-4.48-1.72-4.84-.94-3.08,4.09-3.67,4.09-.58-5.68-1.56-5.27-6,.57-5.65,0,6.43-3.66,7-5.13-4.67-26.4-5.26-28.34S55.63,51.54,56.15,53.83Z" transform="translate(-9.93 -5.37)" style="fill: #7a0017"/>
    <path d="M37.5,53.83s-2.92,12.5-3.31,16.28S33.22,83,32.83,84.3s-7.48,5.49-5.4,5.91,4.48-1.72,4.84-.94,3.08,4.09,3.67,4.09.58-5.68,1.56-5.27,6,.57,5.65,0-6.43-3.66-7-5.13,4.67-26.4,5.26-28.34S38,51.54,37.5,53.83Z" transform="translate(-9.93 -5.37)" style="fill: #7a0017"/>
    <polygon points="31.08 26.86 11.72 26.86 19.47 29.43 5.96 34.52 10.71 35.22 2.98 43.52 7.04 42.03 5.15 56.93 7.76 54.93 10.03 63.06 11.83 58.72 18.47 66.72 18.47 62.52 26.63 69.43 26.56 65.5 35.16 71.33 35.16 68.27 45.05 70.65 43.45 67.13 54.27 67.81 52.63 64.96 62.93 64.28 60.35 62.24 68.48 58.45 65.36 57.77 72.69 49.77 69.84 50.72 72.01 38.14 69.43 42.85 60.89 27.44 61.3 31.18 47.95 23.05 48.07 26.03 34.85 19.93 36.24 24.14 22.95 22.24 31.08 26.86" style="fill: #009688"/>
    <path d="M56.26,59.62s-15-3.21-15.47-4.93a13.4,13.4,0,0,0,.76,8.12C43.35,63.26,50.26,62.53,56.26,59.62Z" transform="translate(-9.93 -5.37)"/>
    <path d="M42.46,55.82s-.29,4.24.5,4.72,2.79-3.26,2.83-3.55S42.83,55.9,42.46,55.82Z" transform="translate(-9.93 -5.37)" style="fill: #fff"/>
    <path d="M45,62.81s1-3.07,1.39-3.2,2.07,2.39,2.07,2.64S45.58,62.87,45,62.81Z" transform="translate(-9.93 -5.37)" style="fill: #fff"/>
    <path d="M48.76,57.82s.61,2.37,1,2.47,1.61-1.61,1.65-1.79A7.75,7.75,0,0,0,48.76,57.82Z" transform="translate(-9.93 -5.37)" style="fill: #fff"/>
    <g>
      <circle cx="25.31" cy="39.14" r="7.63" style="fill: #fff"/>
      <circle cx="25.31" cy="39.14" r="4.76" style="fill: #80cbc4"/>
      <circle cx="25.31" cy="38.86" r="2.22"/>
      <circle cx="26.67" cy="36.39" r="1.3" style="fill: #fff"/>
    </g>
    <g>
      <circle cx="50.27" cy="41.03" r="5.78" style="fill: #fff"/>
      <circle cx="50.27" cy="41.03" r="3.61" style="fill: #80cbc4"/>
      <circle cx="50.27" cy="40.82" r="1.68"/>
      <circle cx="49.24" cy="38.94" r="0.99" style="fill: #fff"/>
    </g>
    <path d="M26.82,78.34l-.66-.65c-.06-.06-.6-.66-.6-.65a20.7,20.7,0,0,1-1.38-1.93,22.42,22.42,0,0,1-1.26-2.3l-.08-.17-.22-.55c-.17-.42-.32-.85-.46-1.28a27.32,27.32,0,0,1-.74-2.68c0-.1-.19-1-.2-1-.06-.41-.12-.83-.17-1.25-.11-1-.16-1.94-.18-2.93,0-.49,0-1,0-1.49v-.11c0-.25,0-2.79.06-3,.19-2.15-.71-4-2.57-4-1.63,0-2.2,1.78-2.68,3.89-2.25,10,.84,21.32,6.76,26.89,1.28,1.2,3.45.51,4.61-1.28A4.39,4.39,0,0,0,26.82,78.34Z" transform="translate(-9.93 -5.37)" style="fill: #009688"/>
    <path d="M69.4,29.38a8.11,8.11,0,0,0,.21-1.14l1.22-11.41a8.21,8.21,0,0,0-7.27-9L41,5.42a8.21,8.21,0,0,0-9,7.27L30.79,24.1a8.12,8.12,0,0,0,0,1.18C18.41,23.35,10.07,21.69,9.93,23,9.72,25,26.54,36.9,48.61,39.25s41-5.77,41.23-7.71C90,30.22,81.66,30.07,69.4,29.38Z" transform="translate(-9.93 -5.37)" style="fill: #f9a825"/>
    <path d="M77.93,48.93l.66-.65c.06-.06.6-.66.6-.65a20.7,20.7,0,0,0,1.38-1.93,22.4,22.4,0,0,0,1.26-2.3l.08-.17.22-.55c.17-.42.32-.85.46-1.28a27.38,27.38,0,0,0,.74-2.68c0-.1.19-1,.2-1,.06-.41.12-.83.17-1.25.11-1,.16-1.94.18-2.93,0-.49,0-5.28,2.81-5.83,1.6-.31,3,1.74,3.14,3.89.86,9.93-1.62,18.47-7.54,24-1.28,1.2-3.45.51-4.61-1.28A4.39,4.39,0,0,1,77.93,48.93Z" transform="translate(-9.93 -5.37)" style="fill: #009688"/>
  </g>
</svg>
