<svg id="Layer_1" data-name="Layer 1" xmlns="http://www.w3.org/2000/svg" viewBox="0 0 63.55 93.51">
  <title>19</title>
  <g>
    <path d="M36.94,65.07l-.22-.44s-.19-.43-.19-.43a12,12,0,0,1-.65-2.45v-.09c0-.1,0-.19,0-.29s0-.44,0-.66a12.4,12.4,0,0,1,0-1.32s0-.46,0-.46c0-.19.06-.38.1-.57a11.9,11.9,0,0,1,.33-1.28c.06-.21.14-.42.22-.62l0,0,.13-.3A1.76,1.76,0,0,0,36,53.76a1.73,1.73,0,0,0-2.35.65,14.08,14.08,0,0,0,.28,12.36,1.73,1.73,0,1,0,3-1.7Z" transform="translate(-20.54 -4.49)" style="fill: #b71c1c"/>
    <path d="M65,64.81l.22-.44s.19-.43.19-.43a12,12,0,0,0,.65-2.45v-.09c0-.1,0-.19,0-.29s0-.44,0-.66a12.41,12.41,0,0,0,0-1.32s0-.46,0-.46c0-.19-.06-.38-.1-.57a11.89,11.89,0,0,0-.33-1.28c-.06-.21-.14-.42-.22-.62l0,0-.13-.3a1.76,1.76,0,0,1,.65-2.35,1.73,1.73,0,0,1,2.35.65A14.08,14.08,0,0,1,68,66.51a1.73,1.73,0,0,1-3-1.7Z" transform="translate(-20.54 -4.49)" style="fill: #b71c1c"/>
    <g>
      <path d="M56.62,72.08,55.3,91.74s8.58,7.08,11,5.4-12.27-3.62-5.8-21.59C58.68,68,56.62,72.08,56.62,72.08Z" transform="translate(-20.54 -4.49)" style="fill: #1b5e20"/>
      <path d="M46.64,72.52l1.71,19.63s-8.44,7.25-10.92,5.62,12.2-3.86,5.37-21.7C44.5,68.47,46.64,72.52,46.64,72.52Z" transform="translate(-20.54 -4.49)" style="fill: #1b5e20"/>
      <g>
        <polygon points="41.48 49.63 41.42 50.84 41.22 53.87 41.15 54.96 41.09 55.87 41.01 57.03 40.87 59.08 40.8 60.07 40.68 61.7 40.6 62.83 40.51 64.1 40.44 65.08 40.27 67.48 40.19 68.61 40.15 69.11 40.09 70.09 39.86 73.25 39.73 75.1 39.44 79.13 39.37 80.1 39.33 80.66 34.95 80.56 33.68 80.54 33.68 70.48 27.64 70.48 27.64 70.65 27.65 72.81 27.65 73.81 27.65 74.76 27.66 75.79 27.67 78.09 27.67 79.14 27.67 80.08 27.67 80.54 27.19 80.55 23.13 80.63 23.1 80.33 23 79.38 22.59 75.47 22.49 74.53 22.43 73.89 22.3 72.72 22.08 70.62 21.98 69.67 21.8 67.9 21.68 66.73 21.57 65.77 21.48 64.82 21.17 61.91 20.97 59.96 20.56 56.05 20.42 54.31 19.98 49.63 41.48 49.63" style="fill: #b71c1c"/>
        <path d="M48.21,84.57l-.48.48h.48Zm7.08-.22V85l.7,0ZM62,54.12h-.33l-1.76,1.76-1.76-1.76H56.33l-1.76,1.76-1.76-1.76H51l-1.76,1.76-1.76-1.76H45.6l-1.76,1.76-1.76-1.76H41l2.28,2.72-2.16,2.37-.2-.09.14,1.36.06,0,2.16,2.17-1.81,1.82.2,2L43.32,68,42,69.31l.1.95,1.73-1.73L46,70.69l-2.16,2.16-1.63-1.63.12,1.17,1,1-.79.79.1.95,1.22-1.22L46,76l-2.16,2.16-1-1L43,78.38l.35.35L43,79l.1.95.71-.71L46,81.42l-2.46,2.46.1.95,2.88-2.88,1.69,1.69V82.57L47,81.42l1.15-1.15v-1l-1.67,1.67-2.16-2.16,2.16-2.16,1.67,1.67V77.19L47,76l2.16-1.93.63.86h1.05L49.73,73.6l2.16-2.27L54,73.66,52.9,75h1l.63-.86,1.6,2-1.94,1.27v1l2.47-1.91,2.44,2.16-2.58,2.16L54.22,79v1l1.38,1.38L54.22,82.8v1l2.47-1.91,2.94,2.66.21-1-2.13-2.2,2.19-2.16.35.33.14-1.85-.46.46L57.77,76l2.16-2.16.69.69.07-1-.23-.23.27-.27L60.81,72l-.88.87-2.16-2.16,2.16-2.16,1,1,.07-1L60.46,68l.68-.68.08-1.13-1.29,1.29-2.16-2.16,2.16-2.16,1.4,1.4.07-1-.95-.95,1.09-1.09.08-1.13-1.7,1.7L57.78,60l2.16-2.16,1.76,1.76.07-1-1.3-1.31L62,55.34ZM56.73,60l-2.16,2.16L52.41,60l2.16-2.16Zm-7.52,3.21,2.16,2.16-2.16,2.16L47,65.32ZM46.52,64.8l-2.16-2.16,2.16-2.16,2.16,2.16Zm3.21-2.16,2.16-2.16L54,62.64,51.89,64.8Zm4.84.52,2.16,2.16-2.16,2.16-2.16-2.16Zm-2.68-8L54,57.28l-2.16,2.16-2.16-2.16ZM51.37,60l-2.16,2.16L47,60l2.16-2.16Zm-4.84-4.84,2.16,2.16-2.16,2.16-2.16-2.16ZM41.69,60l2.16-2.16L46,60l-2.16,2.16Zm0,5.36,2.16-2.16L46,65.32l-2.16,2.16ZM44.37,68l2.16-2.16L48.68,68l-2.16,2.16Zm2.16,7.52-2.16-2.16,2.16-2.16,2.16,2.16Zm2.68-2.68L47,70.69l2.16-2.16,2.16,2.16ZM49.73,68l2.16-2.16L54,68l-2.16,2.16Zm2.68,2.68,2.16-2.16,2.16,2.16-2.16,2.16Zm7,2.68-2.16,2.16-2.16-2.16,2.16-2.16Zm0-5.36-2.16,2.16L55.09,68l2.16-2.16Zm0-5.37L57.25,64.8l-2.16-2.16,2.16-2.16Zm-2.16-3.21-2.16-2.16,2.16-2.16,2.16,2.16Z" transform="translate(-20.54 -4.49)" style="fill: #1b5e20"/>
      </g>
      <polygon points="18.77 6.62 7.91 11.62 10.99 11.96 3.02 16.04 6.5 16.04 0.67 23.06 3.75 21.9 0 28.88 2.28 27.59 0 35.34 2.15 33.84 0.67 41.15 3.02 38.47 4.56 46.67 5.42 43.74 8.04 52.28 9.16 48.93 12.83 56.25 12.83 52.13 19.78 59.12 19.78 55.45 22.68 60.73 22.68 57.51 26.73 65.02 26.73 60.83 30.98 67.84 34.75 59.52 35.94 62.74 39.74 57.78 40.73 59.52 44.79 54.83 46.21 57.24 49.81 51.88 51.61 54.3 52.82 49.2 55.1 51.08 56.17 45.37 57.96 47.98 58.85 41.92 61 43.94 59.98 37.23 62.07 39.51 61 30.93 63.55 32.71 59.98 23.39 62.74 24.4 56.98 17.96 59.98 17.83 52.42 12.47 55.91 11.93 43.99 7.37 48.72 6.62 37.4 4.69 42.5 2.95 30.63 4.29 32.44 0.67 27.61 4.29 18.07 0 21.79 3.62 11.93 5.61 18.77 6.62" style="fill: #1b5e20"/>
      <g>
        <path d="M55.27,48.87h0a13.84,13.84,0,0,1-1.68.56l-.46.11-.18,0-.27,0c-.29,0-1.33,0-1.59.08a22,22,0,0,1-3.39-.7c-4-1.6-7.53-5.13-10-7.67,0,0,4.53.17,10,.3,1.18,0,7.22.09,7.58.09,4.79,0,9-.07,10.2-.42C68,40.54,61,46.55,55.27,48.87Z" transform="translate(-20.54 -4.49)"/>
        <path d="M51,41.72v2.15c0,1-.51,1.81-1.51,1.81s-1.51-.81-1.51-1.81V41.64C48.69,41.67,49.45,41.7,51,41.72Z" transform="translate(-20.54 -4.49)" style="fill: #fff"/>
        <path d="M55.49,41.76v2.1a1.89,1.89,0,0,1-3.78,0V41.72C52.47,41.74,54,41.76,55.49,41.76Z" transform="translate(-20.54 -4.49)" style="fill: #fff"/>
        <path d="M51,48.92v.8a5.6,5.6,0,0,1-3-.62v-.18a1.7,1.7,0,0,1,1.67-1.81,1.31,1.31,0,0,1,1,.53A1.67,1.67,0,0,1,51,48.92Z" transform="translate(-20.54 -4.49)" style="fill: #fff"/>
        <path d="M55.29,48.88a11.38,11.38,0,0,1-3.57.84v-.81a1.78,1.78,0,0,1,1.76-1.81,1.82,1.82,0,0,1,1.81,1.77Z" transform="translate(-20.54 -4.49)" style="fill: #fff"/>
      </g>
      <path d="M77.71,27.56h-.94c0-.37,0-.54,0-.54L70.2,20.1H60.61L54.4,26.44H50.05L43.84,20.1H34.26L27.68,27s0,.16,0,.54h-.94c-.48,0-.79.24-.79.71v1.34a.86.86,0,0,0,.79.92h.95s0,.39,0,.54c.7.68.81,3,.81,3l6,5.73h9.81l4.52-5.65s1.25-3.78,1.56-4.3,1.37-.48,1.81-.48,1.56.07,1.81.48,1.56,4.3,1.56,4.3l4.52,5.65h9.81l6-5.73s.11-2.37.81-3c0-.16,0-.54,0-.54h.95a.86.86,0,0,0,.79-.92V28.27C78.5,27.79,78.19,27.56,77.71,27.56Zm-29.4,1.5A10.74,10.74,0,0,1,47.53,34h0A9.89,9.89,0,0,1,46,36.16l-1,1.07a3.38,3.38,0,0,1-2.52,1.12H36.36a3.61,3.61,0,0,1-2.51-1l-3.22-3.1A3.1,3.1,0,0,1,29.68,32V27.73a2.28,2.28,0,0,1,.61-1.56l3.28-3.52A3.33,3.33,0,0,1,36,21.59h5.61a4.67,4.67,0,0,1,3.19,1.26l2.36,2.21a4.47,4.47,0,0,1,1.14,3.48Zm26.46,3a3.1,3.1,0,0,1-.95,2.23l-3.22,3.1a3.61,3.61,0,0,1-2.51,1H61.89a3.38,3.38,0,0,1-2.52-1.12l-1-1.07A9.9,9.9,0,0,1,56.93,34h0a10.75,10.75,0,0,1-.79-4.92v-.52a4.47,4.47,0,0,1,1.14-3.48l2.36-2.21a4.67,4.67,0,0,1,3.19-1.26h5.61a3.33,3.33,0,0,1,2.43,1.06l3.28,3.52a2.28,2.28,0,0,1,.61,1.56Z" transform="translate(-20.54 -4.49)" style="fill: #b71c1c"/>
      <g>
        <circle cx="18.07" cy="25.51" r="8.34" style="fill: #fff"/>
        <circle cx="18.07" cy="25.51" r="4.77" style="fill: #4caf50"/>
        <circle cx="17.29" cy="25.51" r="2.12"/>
        <circle cx="19.41" cy="22.07" r="2.38" style="fill: #fff"/>
      </g>
      <g>
        <circle cx="44.81" cy="25.51" r="8.77" style="fill: #fff"/>
        <circle cx="44.81" cy="25.51" r="5.01" style="fill: #4caf50"/>
        <circle cx="43.99" cy="25.51" r="2.23"/>
        <circle cx="46.21" cy="21.89" r="2.51" style="fill: #fff"/>
      </g>
    </g>
  </g>
</svg>
