<svg id="Layer_1" data-name="Layer 1" xmlns="http://www.w3.org/2000/svg" viewBox="0 0 96.62 96.32">
  <title>2</title>
  <g>
    <path d="M10.79,65.39l-.8.16c.09-.8.56-5.61-.72-6.11s-.9,5.08-.9,5.08-7-2.05-7-.76,6,2.58,6,2.58S3.79,71.67,4.3,72.07s4.42-4.76,5.25-5.9a70.38,70.38,0,0,0,16-2.08l-1.09-3A65,65,0,0,1,10.79,65.39Z" transform="translate(-1.38 -1.68)" style="fill: #f44336"/>
    <path d="M91.76,37.56s3.35-5.17,2.43-6.08S89.78,37,89.78,37s-3.44-4-4-2.59c-.51,1.15,2.46,3.56,3.42,4.31-.28.17-.63.4-1.07.7a60,60,0,0,1-8.8,5l-.7.32c-.89.4-1.73.76-2.53,1.08l.91,3C82,45.76,88.09,41,89.63,38.87h.22s8,1.36,8.15.53C98.08,38.76,91.76,37.56,91.76,37.56Z" transform="translate(-1.38 -1.68)" style="fill: #f44336"/>
    <path d="M34.27,93.22a108.27,108.27,0,0,1,7.16-22.94l-2.54-4.39L36.7,67.65c-2.41,8.21-3.62,20-3.74,25.72-.85,0-12,.1-13.43,2.55S33,98,33,98a2.19,2.19,0,0,0,1-3.29C34.07,94.25,34.16,93.78,34.27,93.22Z" transform="translate(-1.38 -1.68)" style="fill: #f44336"/>
    <path d="M77.53,95.92C76,93.38,64,93.37,64,93.37s-.17.2-.26.3c-.1-5.81-1.43-18.66-4.08-27L56,68.37,55,69.77a108.6,108.6,0,0,1,7.45,23.44c.14.77.27,1.39.39,1.89A2.16,2.16,0,0,0,64,98S79.05,98.47,77.53,95.92Z" transform="translate(-1.38 -1.68)" style="fill: #f44336"/>
    <polygon points="47.72 3.74 38.65 0.26 39.71 4.39 31.56 4.39 33.58 5.35 24.94 8.17 29.14 8.88 21.6 13.48 24.12 13.61 19.84 23.59 14.78 38.34 16.58 37.65 14.77 50.27 17.08 48.34 17.08 58.2 19.31 55.48 19.31 64.77 21.3 63.56 23.1 68.58 24.87 67.15 35.93 82.05 36.67 80.07 41.67 84.56 42.6 82.05 46.33 86.36 48.43 83.35 49.51 85.1 53.53 83.35 54.46 84.74 58.95 80.25 59.82 82.05 69.85 66.05 69.85 68.16 72.05 64.09 72.94 65.74 74.47 59.07 75.06 61.4 75.06 52.05 77.28 54.58 77.28 45.7 79.29 48.34 77.17 37.65 79.38 38.86 71.39 16.41 73.66 15.41 67.56 9.47 71.6 7.99 61.64 5.39 64.79 2.15 55.94 4.94 58.23 0 47.72 3.74" style="fill: #1b5e20"/>
    <g>
      <path d="M73.85,50.51c-.12.18-7.63,11.74-17.9,15.87a19,19,0,0,1-6.75,1.45h-.3l-.8,0H48a17.83,17.83,0,0,1-3.61-.57,21.4,21.4,0,0,1-3.06-1.06c-10-4.3-17.28-15.48-17.4-15.66.06,0,1.48.77,3.89,1.72l.18.07.07,0q.84.33,1.83.68h0l.63.22c.82.28,1.7.56,2.63.83l.05,0c.09,0,.18,0,.28,0a3.84,3.84,0,0,0,1,.2h0a6.08,6.08,0,0,1,1.34.41s0,.07.06.07c.9.21,1.83.43,2.8.62v0l.46.08.38.07.46.08.47.08,1,.15c.91.13,1.85.24,2.8.33l.55,0,.44,0,.42,0,.64,0,.69,0q.94,0,1.9,0h.89l.67,0,.63,0h.07l1.3-.08h.06c1-.07,1.88-.16,2.8-.28h0c.91-.11,1.8-.25,2.67-.4h.06c1-.17,1.9-.36,2.8-.56h0c.93-.21,1.82-.43,2.67-.66l.06,0c1-.27,1.94-.56,2.81-.84s1.91-.64,2.73-1A45.7,45.7,0,0,0,73.85,50.51Z" transform="translate(-1.38 -1.68)"/>
      <path d="M30.59,53.23v.64a1.39,1.39,0,0,1-2.78,0V52.23C28.51,52.55,29.9,52.89,30.59,53.23Z" transform="translate(-1.38 -1.68)" style="fill: #fff"/>
      <path d="M36.16,54.79v.87a1.39,1.39,0,0,1-2.78,0v-1.6A13.73,13.73,0,0,0,36.16,54.79Z" transform="translate(-1.38 -1.68)" style="fill: #fff"/>
      <path d="M41.72,55.87v1.58a1.39,1.39,0,0,1-2.78,0v-2A17,17,0,0,0,41.72,55.87Z" transform="translate(-1.38 -1.68)" style="fill: #fff"/>
      <path d="M47.29,56.38v2.85a1.39,1.39,0,0,1-2.78,0v-3A27.51,27.51,0,0,0,47.29,56.38Z" transform="translate(-1.38 -1.68)" style="fill: #fff"/>
      <path d="M52.85,56.28v3a1.39,1.39,0,0,1-2.78,0V56.41C50.76,56.39,51.46,56.35,52.85,56.28Z" transform="translate(-1.38 -1.68)" style="fill: #fff"/>
      <path d="M57.72,55.59v1.86c0,.75-.29,1.36-1,1.36s-1-.61-1-1.36V56Q56.68,55.83,57.72,55.59Z" transform="translate(-1.38 -1.68)" style="fill: #fff"/>
      <path d="M64,54.35v1.31a1.39,1.39,0,0,1-2.78,0V55A18.83,18.83,0,0,1,64,54.35Z" transform="translate(-1.38 -1.68)" style="fill: #fff"/>
      <path d="M68.85,52.55v1.32a1.39,1.39,0,0,1-2.78,0V53.5A13.15,13.15,0,0,0,68.85,52.55Z" transform="translate(-1.38 -1.68)" style="fill: #fff"/>
      <path d="M48,64.12v3.69a18,18,0,0,1-6.26-1.64v-2c0-1.18.58-2.18,1.76-2.18H46A2.09,2.09,0,0,1,48,64.12Z" transform="translate(-1.38 -1.68)" style="fill: #fff"/>
      <path d="M55.63,64.3v2.08a17.33,17.33,0,0,1-6.26,1.45V64.3a2.21,2.21,0,0,1,2-2.36h2.47C55,61.94,55.63,63.12,55.63,64.3Z" transform="translate(-1.38 -1.68)" style="fill: #fff"/>
    </g>
    <g>
      <g>
        <circle cx="38.01" cy="43.2" r="4.31" style="fill: #fff"/>
        <circle cx="38.01" cy="43.2" r="0.87"/>
      </g>
      <g>
        <circle cx="56.46" cy="43.2" r="4.31" style="fill: #fff"/>
        <circle cx="56.46" cy="43.2" r="0.87"/>
      </g>
    </g>
    <path d="M66.63,40.2s-.25-3.35-7-2.88-9.21,3.6-9.21,3.6a13.83,13.83,0,0,0-2.25-.14h0s0,0,0,0,0,0,0,0h0A13.61,13.61,0,0,0,46,41.4s-3-2.54-9.75-1.57S30,44.12,30,44.12a8.88,8.88,0,0,0,4.14,7.14c2.34,1.49,6.46,1,8.31.45s4.09-4.83,4.42-6.29a2.09,2.09,0,0,1,.63-1.12,1.76,1.76,0,0,1,2-.22,2.09,2.09,0,0,1,.86,1c.64,1.36,3.73,5,5.66,5.21s6.05-.24,8-2.2A8.88,8.88,0,0,0,66.63,40.2ZM44.11,49.31a4.31,4.31,0,0,1-3.54,2.12c-2.59.25-3.69.69-6.11-1a5.72,5.72,0,0,1-2.11-4.9,3.45,3.45,0,0,1,2.5-3.4c2.64-.8,7.51-1.68,10-.15S44.35,49,44.11,49.31Zm19.49-2c-2,2.18-3.17,2-5.75,2.28a4.31,4.31,0,0,1-3.9-1.33c-.3-.21-4.49-5-2.33-7s7.1-2.2,9.85-2a3.45,3.45,0,0,1,3.16,2.8A5.72,5.72,0,0,1,63.6,47.31Z" transform="translate(-1.38 -1.68)" style="fill: #f44336"/>
  </g>
</svg>
