<svg id="Layer_1" data-name="Layer 1" xmlns="http://www.w3.org/2000/svg" viewBox="0 0 86.04 94.86">
  <title>20</title>
  <g>
    <path d="M45.51,31.86S28.22,16.55,31.31,6.45c2.43,5.32,6.75,12,15,13.32S45.51,31.86,45.51,31.86Z" transform="translate(-8.52 -2.14)"/>
    <path d="M56.74,27.56S74,12.24,71,2.14c-2.43,5.32-6.75,12-15,13.32S56.74,27.56,56.74,27.56Z" transform="translate(-8.52 -2.14)"/>
    <path d="M35.67,70.62S32.65,96,35.49,97,43.8,71.41,43.8,71.41Z" transform="translate(-8.52 -2.14)" style="fill: #f44336"/>
    <path d="M63.92,70.62s3,25.37.19,26.36S55.8,71.41,55.8,71.41Z" transform="translate(-8.52 -2.14)" style="fill: #f44336"/>
    <path d="M28.61,46s-17.81,10.9-20,15.13,20.45-9.26,20.45-9.26Z" transform="translate(-8.52 -2.14)" style="fill: #f44336"/>
    <path d="M74.46,46s17.81,10.9,20,15.13S74,51.85,74,51.85Z" transform="translate(-8.52 -2.14)" style="fill: #f44336"/>
    <polygon points="42.64 12.87 34.43 10.72 32.98 14.59 21.69 19.5 27.07 19.5 14.84 28.38 20.93 27.5 12.68 36.47 18.14 35.12 12.68 47.78 17.76 46.98 13.95 55.04 18.52 52.25 16.49 64.17 20.17 59.53 21.06 70.85 24.23 64.3 27.14 76.48 28.79 70.01 33.63 79.91 34.76 72.04 38.18 80.92 39.46 73.44 42.73 83.2 45.17 73.44 46.94 79.4 49.34 72.42 51.5 76.35 53.8 70.01 56.66 74.07 58.74 66.2 61.4 70.85 63.81 61.62 66.6 66.08 65.64 53.22 69.39 59.53 67.36 45.91 70.91 49.46 65.64 36.48 70.15 39.4 62.79 28.28 67.61 30.18 58.74 21.17 64.57 22.82 53.8 15.34 61.02 16.48 50.42 12.82 50.4 9.39 42.64 12.87" style="fill: #b71c1c"/>
    <g>
      <circle cx="31.09" cy="44.85" r="8.37" style="fill: #fff"/>
      <circle cx="31.09" cy="44.85" r="6.2" style="fill: #f44336"/>
      <circle cx="31.09" cy="44.85" r="3.76"/>
      <circle cx="34.49" cy="40.82" r="2.28" style="fill: #fff"/>
    </g>
    <g>
      <circle cx="53.54" cy="44.85" r="8.37" style="fill: #fff"/>
      <circle cx="53.54" cy="44.85" r="5.2" style="fill: #f44336"/>
      <circle cx="53.54" cy="44.85" r="3.12"/>
      <circle cx="56.08" cy="41.68" r="2.28" style="fill: #fff"/>
    </g>
    <path d="M37.31,58.84s20.71,5.33,27.86.51a17.9,17.9,0,0,1-13.93,8.12C48.6,67.46,41.75,68.48,37.31,58.84Z" transform="translate(-8.52 -2.14)"/>
    <path d="M40.61,59.58l1,3.58,1.65-3.07,1.53,3.07,2.31-2.45,1.78,3.05,2.26-2.39,1.93,2.39,1.73-2.39,2.11,2.39,1.44-2.39L60,63.76l.85-2.83A134.11,134.11,0,0,1,40.61,59.58Z" transform="translate(-8.52 -2.14)" style="fill: #fff"/>
    <path d="M45.24,66.87l2.39-2.42,1.28,3.05A4.45,4.45,0,0,1,45.24,66.87Z" transform="translate(-8.52 -2.14)" style="fill: #fff"/>
    <path d="M52.38,67.39l1.35-2.95,1.83,2.23A9.05,9.05,0,0,1,52.38,67.39Z" transform="translate(-8.52 -2.14)" style="fill: #fff"/>
  </g>
</svg>
