<svg id="Layer_1" data-name="Layer 1" xmlns="http://www.w3.org/2000/svg" viewBox="0 0 95.13 95.74">
  <title>21</title>
  <g>
    <ellipse cx="33.67" cy="79.99" rx="19.41" ry="7.36" transform="translate(-49.24 44.97) rotate(-45)" style="fill: #4caf50"/>
    <ellipse cx="66.78" cy="80.22" rx="7.36" ry="19.41" transform="translate(-39.71 68.46) rotate(-45)" style="fill: #4caf50"/>
    <ellipse cx="17.22" cy="30.66" rx="7.36" ry="19.41" transform="translate(-19.18 18.9) rotate(-45)" style="fill: #4caf50"/>
    <ellipse cx="82.99" cy="30.66" rx="19.41" ry="7.36" transform="translate(0.08 65.4) rotate(-45)" style="fill: #4caf50"/>
    <polygon points="47.33 4.15 37.28 0.29 38.46 4.87 29.42 4.87 31.66 5.93 22.08 9.05 26.74 9.84 18.38 14.94 21.17 15.09 16.43 26.15 10.82 42.51 12.81 41.74 10.8 55.73 13.37 53.59 13.37 64.52 15.84 61.5 15.84 71.8 18.05 70.46 20.04 76.03 22 74.44 34.27 90.96 35.08 88.77 40.63 93.75 41.66 90.96 45.8 95.74 48.12 92.41 49.32 94.35 53.78 92.41 54.81 93.95 59.78 88.97 60.75 90.96 71.88 73.23 71.88 75.56 74.31 71.06 75.3 72.88 76.99 65.48 77.64 68.07 77.64 57.71 80.11 60.51 80.11 50.66 82.34 53.59 79.99 41.74 82.44 43.09 73.58 18.19 76.1 17.09 69.33 10.5 73.81 8.86 62.77 5.97 66.27 2.38 56.45 5.47 58.99 0 47.33 4.15" style="fill: #1b5e20"/>
    <path d="M76.89,40.6c0,15-12.12,45.86-27.07,45.86S22.75,55.55,22.75,40.6s12.12-1.23,27.07-1.23S76.89,25.65,76.89,40.6Z" transform="translate(-2.54 -2.26)"/>
    <path d="M40.38,37.75h0l-.18-.05Z" transform="translate(-2.54 -2.26)" style="fill: none"/>
    <path d="M60.55,37.32,59,37.7S60.55,37.32,60.55,37.32Z" transform="translate(-2.54 -2.26)" style="fill: none"/>
    <path d="M33,35.18l2.33.81c-.84-.34-1.62-.63-2.32-.88Z" transform="translate(-2.54 -2.26)" style="fill: none"/>
    <path d="M73.58,33.68l-2.45.12s-1.8.57-4,1.31c-1.51.51-3.22,1.09-4.68,1.63-.53.2-1.17.39-1.88.58,0,0-1.53.43-1.56.38-2.38.55-5.13,1-7,1.32l-2.19.34a17.44,17.44,0,0,1-2.41-.14c-1.61-.18-6.11-1.16-6.11-1.16S37.13,36.69,35.37,36h0L33,35.18v-.07c-6.36-2.31-7.17-1.52-7.25-1.4A3.7,3.7,0,0,0,32.27,37c.9,5.25,3.32,18.15,5.38,18.62,1.82.42,2.88-8.44,3.35-13.72a3.7,3.7,0,0,0,5.76-.43,3.7,3.7,0,0,0,6,.16,3.7,3.7,0,0,0,5.29.61c.47,5.3,1.54,14,3.34,13.62,2.14-.49,4.68-14.46,5.48-19.23a3.7,3.7,0,0,0,6.71-2.93Z" transform="translate(-2.54 -2.26)" style="fill: #fff"/>
    <path d="M33.05,35.11c.7.25,1.47.55,2.32.88h0a112.51,112.51,0,0,0,12,3.22,17.44,17.44,0,0,0,2.41.14L52,39c1.86-.3,4.61-.78,7-1.32l1.56-.38c.71-.19,1.36-.38,1.88-.58,1.46-.54,3.17-1.13,4.68-1.63,2.22-.74,4-1.31,4-1.31l2.45-.12L75.37,31l-25.78.39-25,.13,1.17,2.19h0C25.89,33.6,26.69,32.81,33.05,35.11Z" transform="translate(-2.54 -2.26)" style="fill: #1b5e20"/>
    <path d="M35.37,76.85s2.21-12.4,4.83-11.55,4,19.71,4,19.71A14.71,14.71,0,0,1,35.37,76.85Z" transform="translate(-2.54 -2.26)" style="fill: #fff"/>
    <path d="M64.41,76.85s-2.21-12.4-4.83-11.55-4,19.71-4,19.71A14.7,14.7,0,0,0,64.41,76.85Z" transform="translate(-2.54 -2.26)" style="fill: #fff"/>
    <g>
      <circle cx="47.21" cy="20.64" r="13.53" style="fill: #fff"/>
      <circle cx="47.21" cy="20.64" r="8.59" style="fill: #4caf50"/>
      <circle cx="47.21" cy="20.64" r="4"/>
      <circle cx="51.21" cy="14.97" r="2.8" style="fill: #fff"/>
    </g>
  </g>
</svg>
