<svg id="Layer_1" data-name="Layer 1" xmlns="http://www.w3.org/2000/svg" viewBox="0 0 71.9 94.75">
  <title>22</title>
  <g>
    <ellipse cx="23.31" cy="78.64" rx="10.31" ry="15.85" style="fill: #f57f17"/>
    <ellipse cx="50.32" cy="78.9" rx="10.82" ry="15.85" style="fill: #f57f17"/>
    <ellipse cx="11.86" cy="55.3" rx="11.86" ry="24.87" style="fill: #ffee58"/>
    <ellipse cx="60.52" cy="56.31" rx="11.38" ry="24.87" style="fill: #ffee58"/>
    <path d="M53.17,8.75,50.4,15S42.87,4.64,43,5,45,13.71,45,13.71L34.86,8.17l7,6.8L29,12.53l7.59,6.26-11.9,2.49,4.73,5.42L19.87,35.9l7.37.18L19.81,48.61l7.56-3.78L20.31,57.68l6.93-5.38L24,67.37,28.75,62l-1.26,13.1,5.16-6.55L33,81.11l4.1-7.05L40,79.72l3.58-3L44,81.86l3.28-2.39,3.67,5.9,5.48-6.65,5.09.75,2.42-4.28,4.75,3.15,2-9.07,3.15,3.28L75,62.71l3,3.38v-11l1.92,3.76-2-12.3,3.71,3.28-5.2-13.1,5.15,1.76-8.32-11,6.29.13L68.68,21.9l6.94-5.29L63.93,18,68.67,8l-9.06,6.3L63.8,2.25,55.2,13.84Z" transform="translate(-14.24 -2.25)" style="fill: #f9a825"/>
    <g>
      <g>
        <circle cx="26.05" cy="49.29" r="8.03" style="fill: #fff"/>
        <circle cx="26.05" cy="49.29" r="5.94" style="fill: #f44336"/>
        <circle cx="26.05" cy="49.29" r="3.61"/>
        <circle cx="29.3" cy="45.42" r="2.19" style="fill: #fff"/>
      </g>
      <g>
        <circle cx="47.57" cy="49.29" r="8.03" style="fill: #fff"/>
        <circle cx="47.57" cy="49.29" r="4.99" style="fill: #f44336"/>
        <circle cx="47.57" cy="49.29" r="2.99"/>
        <circle cx="50" cy="46.25" r="2.19" style="fill: #fff"/>
      </g>
      <path d="M38.09,62.89S57.95,68,64.8,63.37a17.16,17.16,0,0,1-13.35,7.78C48.91,71.15,42.35,72.13,38.09,62.89Z" transform="translate(-14.24 -2.25)"/>
      <path d="M41.26,63.6l1,3.43,1.58-2.94L45.27,67l2.22-2.35,1.71,2.93,2.16-2.29,1.85,2.29,1.66-2.29,2,2.29,1.38-2.29,1.58,2.29.82-2.71A128.56,128.56,0,0,1,41.26,63.6Z" transform="translate(-14.24 -2.25)" style="fill: #fff"/>
      <path d="M45.69,70.58,48,68.26l1.23,2.93A4.27,4.27,0,0,1,45.69,70.58Z" transform="translate(-14.24 -2.25)" style="fill: #fff"/>
      <path d="M52.53,71.08l1.3-2.83,1.75,2.14A8.68,8.68,0,0,1,52.53,71.08Z" transform="translate(-14.24 -2.25)" style="fill: #fff"/>
    </g>
  </g>
</svg>
