<?xml version="1.0" encoding="utf-8"?>
<!-- Generator: Adobe Illustrator 21.1.0, SVG Export Plug-In . SVG Version: 6.00 Build 0)  -->
<svg version="1.1" id="Layer_1" xmlns="http://www.w3.org/2000/svg" xmlns:xlink="http://www.w3.org/1999/xlink" x="0px" y="0px"
	 viewBox="0 0 100 100" style="enable-background:new 0 0 100 100;" xml:space="preserve">
<style type="text/css">
	.st0{fill:none;}
	.st1{fill:#E91E63;}
	.st2{fill:#880E4F;}
	.st3{fill:#FFFFFF;}
</style>
<g>
	<path class="st0" d="M74.6,38.9c1.1-0.4,2.2-0.9,3.4-1.4l-4.7-2.9L74.6,38.9z"/>
	<path class="st1" d="M14.5,30.3c-8.2-5.7,5,6.8,15.1,12.7l1.8-3.8C26.7,37.3,20.4,34.3,14.5,30.3z"/>
	<path class="st1" d="M24.9,43.6c0.5,0.3,1,0.5,1.4,0.7l0.7-2.9L24.9,43.6z"/>
	<path class="st1" d="M84.8,30.4c-3.9,2.7-8,4.9-11.7,6.6l2.1,2.3l-3-1.8c-1.2,0.5-2.3,1-3.4,1.4l1.2,4C80,37,92.9,24.8,84.8,30.4z"
		/>
	<path class="st1" d="M37.6,68l-1.7-4c-3.2,11.1-3.8,30.4-1.9,20.4c1.3-7.1,3.7-13.7,5.7-18.3l-2-3.5V68z"/>
	<path class="st1" d="M60.3,64.6l-0.8,1.1c2,4.6,4.6,11.4,5.9,18.7c1.9,10.3,1.2-10.3-2.2-21.2l-2.3,5.4L60.3,64.6z"/>
	<polygon class="st2" points="73.3,34.6 78,37.4 81,39.3 78.9,37 71.4,28.8 79.4,30.8 66.4,22.6 75.7,21.4 61.9,17.8 49.8,8 
		52.3,14.9 34.7,7.9 42.7,15.7 23.7,15.7 33.8,19 24.8,29.6 31.3,26.7 25.5,39.2 23.8,43 22.2,46.4 24.9,43.6 27,41.4 26.3,44.3 
		22.8,59 27,52.2 26,70 28.9,61.3 31.2,75.8 32.8,68.9 35.9,75.8 37.6,79.8 37.6,74.4 39.7,77.9 42.8,83.4 42.8,79.3 46.9,86.9 
		46.5,81.1 49.8,89 51.3,81.7 52.3,85 55,80.1 55.7,83.2 59.6,77.5 60.3,76.4 60.9,80.4 63.3,75 64.1,73 65.3,77.3 69.9,65 
		70.9,71.7 72.2,55 74.9,65 73.9,46 78.6,52 75.8,42.9 74.6,38.9 	"/>
	<g>
		<circle class="st3" cx="50.5" cy="40.2" r="8.5"/>
		<circle class="st2" cx="50.5" cy="40.2" r="5.2"/>
		<circle cx="50.5" cy="40.2" r="2.3"/>
		<circle class="st3" cx="52.8" cy="36.9" r="2.3"/>
	</g>
	<path d="M68.4,49.6c0,7.9-9.9,24.8-17.8,24.8S32.7,57.5,32.7,49.6s9.9,4.8,17.8,4.8S68.4,41.7,68.4,49.6z"/>
	<path class="st3" d="M36.6,47.8c0,0,8.4,18.1,9.9,18.9s2.4-12.4,2.4-12.4S40,48,36.6,47.8z"/>
	<path class="st3" d="M65.3,47.6c0,0-8.4,18.1-9.9,18.9C53.9,67.2,53,54.1,53,54.1S61.8,47.8,65.3,47.6z"/>
	<path class="st3" d="M37.7,63.4l2.5-3.4l2.5,10C42.7,70,40.5,68.8,37.7,63.4z"/>
	<path class="st3" d="M63.5,63.4L61,60l-2.5,10C58.5,70,60.7,68.8,63.5,63.4z"/>
	<path class="st1" d="M13.5,29.8c0,0,6-4.7,5.2-6.5c-0.8-1.8-5.6,3.9-5.6,3.9s-4.7-8.5-5.9-7.3c-1.2,1.2,3.2,8.1,3.2,8.1
		S2,29.6,2.1,30.5c0.1,1.1,10.9-0.7,10.9-0.7H13.5z"/>
	<path class="st1" d="M86.6,29.8c0,0-5.8-4.2-5-6.1c0.8-1.8,5.4,3.5,5.4,3.5s4.7-8.5,5.9-7.3c1.2,1.2-3.2,8.1-3.2,8.1
		s8.4,1.6,8.3,2.5c-0.1,1.1-10.9-0.7-10.9-0.7H86.6z"/>
	<path class="st1" d="M32.9,84.6c0,0-9.5,0-10.8,2c-1.2,2,10.8,1.6,10.8,1.6S35.4,87.2,32.9,84.6z"/>
	<path class="st1" d="M66.7,84.6c0,0,9.5,0,10.8,2c1.2,2-10.8,1.6-10.8,1.6S64.3,87.2,66.7,84.6z"/>
</g>
</svg>
