<svg id="Layer_1" data-name="Layer 1" xmlns="http://www.w3.org/2000/svg" viewBox="0 0 96.14 65.58">
  <title>24</title>
  <g>
    <path d="M33.89,34a1.87,1.87,0,0,0-.48-.89,1.88,1.88,0,0,0-2.94-1C25.58,36,14.92,47,13.12,47.3a8.89,8.89,0,0,0-2-.89c-2.69-.76-8.48-.77-8.15,3.31a1.84,1.84,0,0,0,1.63,1.55l1.9.07c-.3.24-5.25,2.4-3.68,5.4,1,1.92,3.84,1.28,5.36.48l.19-.11a9.63,9.63,0,0,0-.06,4.23c.39,1.21,1.87,2.54,3.26,2.14A3.2,3.2,0,0,0,14,60.45c.11-1.11.11-2.24.13-3.36A18.78,18.78,0,0,1,19,56.23c1.66-.09,5.23,0,5.36.07,1.33.24,2.66.47,4,.8s2.71,1,4.09,1.42a3.55,3.55,0,0,0,3.89-1.25c1-1.14.91-2.92.75-4.32C36.29,46.59,35.21,40.26,33.89,34Z" transform="translate(-2.51 -18.78)" style="fill: #8bc34a"/>
    <path d="M63.86,51.06c.06,1.4.24,3.18,1.42,4.15a3.55,3.55,0,0,0,4,.61c1.29-.66,2.47-1.48,3.81-2.05s2.52-1,3.79-1.42c.13,0,3.62-.74,5.28-.92a18.78,18.78,0,0,1,4.92.08c.19,1.1.37,2.22.66,3.3a3.2,3.2,0,0,0,2.89,2.63c1.44.17,2.68-1.38,2.88-2.63a9.63,9.63,0,0,0-.73-4.17l.2.07c1.63.55,4.25.68,5.26-1.05,1.34-2.29-1.41-3.68-3-4.56l-1-.56,1.32-.29A1.84,1.84,0,0,0,97,42.48c-.32-4.08-6-3.15-8.57-2a8.9,8.9,0,0,0-1.84,1.2c-1.83,0-14.1-9.2-19.54-12.21a1.88,1.88,0,0,0-2.76,1.41,1.87,1.87,0,0,0-.33,1C63.65,38.24,63.58,44.66,63.86,51.06Z" transform="translate(-2.51 -18.78)" style="fill: #8bc34a"/>
    <path d="M35,57.85c-.41-2.38-6.3-5.63-6.65-5.26-4,4.34-3.45,14.75-3.61,20.22,0,.86.29,2.09-.7,2.41-1.22.4-2.53.39-3.75.83a8.2,8.2,0,0,0-5.46,5.68,1.88,1.88,0,0,0,1.79,2.35c4.52.13,14.59-2.31,15.19-2.83,1.24-1.06,1.07-3,1.18-4.47l.39-5.4c.13-1.73.27-3.45.4-5.18l.13-.61C34.47,63.13,35.47,60.37,35,57.85Z" transform="translate(-2.51 -18.78)" style="fill: #8bc34a"/>
    <path d="M64.26,58.13c.41-2.38,8.25-5.63,8.6-5.26,4,4.34,1.5,14.75,1.66,20.22,0,.86-.29,2.09.7,2.41,1.22.4,2.53.39,3.75.83A8.2,8.2,0,0,1,84.42,82a1.88,1.88,0,0,1-1.79,2.35C78.12,84.49,68,82,67.44,81.53c-1.24-1.06-1.07-3-1.18-4.47l-.39-5.4c-.13-1.73-.27-3.45-.4-5.18l-.13-.61C64.83,63.41,63.83,60.65,64.26,58.13Z" transform="translate(-2.51 -18.78)" style="fill: #8bc34a"/>
    <path d="M51.29,23.86,33,18.78l7.61,5.73L23.08,28l9.13,1L21.76,40l9.48-2.87-9.48,14,7.82-5.64-3.42,9.72,4.3-3.5L28.93,63.52l3.64-3.61L31.23,71.15l3.54-4.33,2.84,7.82,2.67-5.29,4.42,7.46,4.85-3.95,2,4.91,2.55-5.58,3,5.2L58.44,70l3.66,3.64.55-6.83S68,68.37,68,68s.71-8.21.71-8.21L72,62.64V51.18l2.51,4-2.46-12,3.4,2.39L69.93,34.09l4.4,1.12-8.71-7,6.5-.55Z" transform="translate(-2.51 -18.78)" style="fill: #558b2f"/>
    <g>
      <path d="M57,58.15c0,4.49-4.7,8.13-7.07,8.13s-7.07-3.64-7.07-8.13c0-1.4,3-3.33,3.3-3.69.73-.79,2.14,1.46,3.77,1.46s3-2.25,3.77-1.46C54,54.82,57,56.75,57,58.15Z" transform="translate(-2.51 -18.78)"/>
      <path d="M46.66,54.31s.24,2.71.84,3.21,1.13-2,1.13-2-.75-1.1-1.38-1.2S46.66,54.31,46.66,54.31Z" transform="translate(-2.51 -18.78)" style="fill: #fff"/>
      <path d="M53.1,54.33s-.24,2.69-.84,3.19-1.13-2-1.13-2,.76-1.15,1.38-1.24S53.1,54.33,53.1,54.33Z" transform="translate(-2.51 -18.78)" style="fill: #fff"/>
    </g>
    <g>
      <g>
        <circle cx="36.88" cy="28.53" r="5.27" style="fill: #fff"/>
        <circle cx="36.88" cy="28.53" r="3.9" style="fill: #8bc34a"/>
        <circle cx="36.88" cy="28.53" r="2.37"/>
        <circle cx="39.01" cy="26" r="1.44" style="fill: #fff"/>
      </g>
      <g>
        <circle cx="58.66" cy="28.53" r="5.27" style="fill: #fff"/>
        <circle cx="58.66" cy="28.53" r="3.9" style="fill: #8bc34a"/>
        <circle cx="58.66" cy="28.53" r="2.37"/>
        <circle cx="56.52" cy="26" r="1.44" style="fill: #fff"/>
      </g>
    </g>
  </g>
</svg>
