<svg id="Layer_1" data-name="Layer 1" xmlns="http://www.w3.org/2000/svg" viewBox="0 0 60.49 93">
  <title>25</title>
  <g>
    <g>
      <g>
        <path d="M45.54,93.1c.19-1.81.31-4.56.35-7.83l-2-2-.37,2.34c.17,2.71.38,5.18.6,6.66H36.84c-1.23,0-2.23,1.48-2.23,3.7H46.45A4,4,0,0,0,45.54,93.1Z" transform="translate(-20.45 -3)" style="fill: #f57f17"/>
        <rect x="22.51" y="58.81" width="3.42" height="26.79" style="fill: #ffeb3b"/>
      </g>
      <g>
        <path d="M55.83,93.1c-.19-1.81-.31-4.56-.35-7.83l2-2,.37,2.34c-.17,2.71-.38,5.18-.6,6.66h7.28c1.23,0,2.23,1.48,2.23,3.7H54.92A4,4,0,0,1,55.83,93.1Z" transform="translate(-20.45 -3)" style="fill: #f57f17"/>
        <rect x="34.54" y="58.81" width="3.42" height="26.79" style="fill: #ffeb3b"/>
      </g>
      <g>
        <path d="M34.57,42.1S23.75,82,25.08,84s13.45-36.2,13.45-36.2S37.66,43.2,34.57,42.1Z" transform="translate(-20.45 -3)" style="fill: #f57f17"/>
        <polygon points="8.25 59.26 13.09 61.56 20.53 40.68 14.13 37.59 8.25 59.26" style="fill: #ffeb3b"/>
      </g>
      <g>
        <path d="M66.8,41.84s10.82,40,9.49,41.94-13.45-36.2-13.45-36.2S63.71,42.94,66.8,41.84Z" transform="translate(-20.45 -3)" style="fill: #f57f17"/>
        <polygon points="52.21 59 47.38 61.3 39.93 40.42 46.33 37.33 52.21 59" style="fill: #ffeb3b"/>
      </g>
      <polygon points="23.57 7.62 9.07 23.14 16.33 21.32 9.08 37.84 15.36 34.37 9.38 47.12 16.34 44.53 11.23 58.38 16.34 53.44 13.87 65.92 17.22 62.94 18.8 75 21.47 70.71 25.38 81.94 26.68 75.67 31.04 85.08 32.75 76.99 35.32 81.45 38.29 71.7 40.8 75.67 43.4 64.1 46.25 69.88 45.59 52.83 47.36 54.48 46.44 41.59 52.37 43.12 46.66 28.85 51.54 29.08 44 18.5 49.06 19.82 40.14 10.24 44.27 9.09 38.29 7.6 39.14 0.99 36.15 4.63 33.03 0.99 33.03 4.51 24.61 0 27.24 3.63 17.92 4.63 23.57 7.62" style="fill: #f57f17"/>
      <g>
        <circle cx="23.79" cy="30.39" r="3.15" style="fill: #fdd835"/>
        <path d="M45,33.39a4.13,4.13,0,0,1-.79,2.26,3.65,3.65,0,0,1,0-4.53A4.13,4.13,0,0,1,45,33.39Z" transform="translate(-20.45 -3)"/>
      </g>
      <g>
        <circle cx="37.34" cy="30.39" r="3.15" style="fill: #fdd835"/>
        <path d="M57,33.39a4.13,4.13,0,0,0,.79,2.26,3.65,3.65,0,0,0,0-4.53A4.13,4.13,0,0,0,57,33.39Z" transform="translate(-20.45 -3)"/>
      </g>
      <ellipse cx="30.74" cy="38.5" rx="2.42" ry="5.64" style="fill: #ffeb3b"/>
      <g>
        <path d="M51.11,61.61c3.79,0,6.87-4.42,6.87-6.87H44.24C44.24,57.19,47.32,61.61,51.11,61.61Z" transform="translate(-20.45 -3)"/>
        <path d="M46.19,54.74s1,2.31,1.35,2.44,1.31-2.44,1.31-2.44Z" transform="translate(-20.45 -3)" style="fill: #fff"/>
        <path d="M52.68,54.74s.55,2.07,1,2.15,1.33-2.15,1.33-2.15Z" transform="translate(-20.45 -3)" style="fill: #fff"/>
      </g>
      <path d="M64.75,31s-.68-.09-.89-.4a3.13,3.13,0,0,0-1.73-1.38,12.43,12.43,0,0,0-1.86-.26s-5-.2-6.29.22c-.66.22-1.57,1.27-1.86,1.3a6.18,6.18,0,0,1-.73,0h-.22a6.44,6.44,0,0,1-.75,0c-.29,0-1.21-1.08-1.87-1.3-1.27-.43-6.29-.22-6.29-.22a12.43,12.43,0,0,0-1.86.26,3.13,3.13,0,0,0-1.73,1.38c-.21.31-.88.4-.88.4s0,1.68,0,2.18c.48.19.88.44,1,1.41a4.31,4.31,0,0,0,1.94,2.8,17.1,17.1,0,0,0,6.74,0c1.31-.47,2.33-3.15,2.67-4a1.18,1.18,0,0,1,.59-.63,1.29,1.29,0,0,1,1.13,0,1.19,1.19,0,0,1,.58.63c.34.83,1.35,3.5,2.67,4a17.08,17.08,0,0,0,6.73,0,4.3,4.3,0,0,0,1.94-2.8c.1-1,.5-1.22,1-1.41C64.76,32.67,64.75,31,64.75,31ZM47.19,36.65c-1.28.55-6,.31-6.55-.13s-1.13-1.83-1-4a4.57,4.57,0,0,1,.26-1.72c.09-.15,1.39-1.06,4.38-1s4.72.26,4.8,2.12S48.48,36.1,47.19,36.65Zm14.71-.13c-.55.45-5.27.68-6.55.13s-1.94-2.86-1.86-4.72,1.81-2.07,4.8-2.12,4.29.86,4.38,1a4.57,4.57,0,0,1,.26,1.72C63,34.69,62.45,36.07,61.9,36.52Z" transform="translate(-20.45 -3)" style="fill: #009688"/>
      <g>
        <path d="M52.59,68s-2.52,4.34-5.64,4.34S45.09,70.39,45.09,68s-1.25-4.34,1.86-4.34S52.59,68,52.59,68Z" transform="translate(-20.45 -3)" style="fill: #ffeb3b"/>
        <path d="M50.23,68s2.52,4.34,5.64,4.34,1.86-1.94,1.86-4.34,1.25-4.34-1.86-4.34S50.23,68,50.23,68Z" transform="translate(-20.45 -3)" style="fill: #ffeb3b"/>
        <ellipse cx="30.96" cy="64.97" rx="1.18" ry="1.64"/>
      </g>
      <g>
        <path d="M26.19,82.07a1.58,1.58,0,0,1-1.41,1.74c-.87.09-4.24-.26-4.33-1.13s3.13-1.93,4-2A1.58,1.58,0,0,1,26.19,82.07Z" transform="translate(-20.45 -3)" style="fill: #f57f17"/>
        <path d="M26.7,84.24c-.35.95-2.32,3.87-3.26,3.51s-.51-3.85-.16-4.79a1.83,1.83,0,1,1,3.42,1.28Z" transform="translate(-20.45 -3)" style="fill: #f57f17"/>
        <path d="M29.83,85c-.47.62-3.43-.81-4.05-1.28a1.41,1.41,0,1,1,1.69-2.25C28.08,82,30.3,84.41,29.83,85Z" transform="translate(-20.45 -3)" style="fill: #f57f17"/>
      </g>
      <g>
        <path d="M75.2,82.33a1.58,1.58,0,0,0,1.41,1.74c.87.09,4.24-.26,4.33-1.13s-3.13-1.92-4-2A1.58,1.58,0,0,0,75.2,82.33Z" transform="translate(-20.45 -3)" style="fill: #f57f17"/>
        <path d="M74.7,84.5C75,85.44,77,88.36,78,88s.51-3.85.16-4.79A1.83,1.83,0,1,0,74.7,84.5Z" transform="translate(-20.45 -3)" style="fill: #f57f17"/>
        <path d="M71.56,85.29c.47.62,3.43-.81,4.05-1.28a1.41,1.41,0,0,0-1.69-2.25C73.31,82.23,71.1,84.67,71.56,85.29Z" transform="translate(-20.45 -3)" style="fill: #f57f17"/>
      </g>
    </g>
    <path d="M47.23,60s1.07-1.9,1.62-1.55,1.7,3.08,1.7,3.08A3.74,3.74,0,0,1,47.23,60Z" transform="translate(-20.45 -3)" style="fill: #fff"/>
    <path d="M53.33,61.1s.46-1.47.77-1.62.83.6.83.6A3.66,3.66,0,0,1,53.33,61.1Z" transform="translate(-20.45 -3)" style="fill: #fff"/>
  </g>
</svg>
