<svg id="Layer_1" data-name="Layer 1" xmlns="http://www.w3.org/2000/svg" viewBox="0 0 90.52 73.54">
  <title>26</title>
  <g>
    <ellipse cx="19.36" cy="28.61" rx="4.44" ry="15.24" transform="translate(-20.16 18.58) rotate(-65.66)" style="fill: #2196f3"/>
    <ellipse cx="19.38" cy="28.75" rx="3.11" ry="10.67" transform="translate(-20.28 18.68) rotate(-65.66)" style="fill: #0d47a1"/>
    <ellipse cx="82.12" cy="29.42" rx="15.24" ry="4.44" transform="translate(-10.3 20.58) rotate(-24.34)" style="fill: #2196f3"/>
    <ellipse cx="82.1" cy="29.56" rx="10.67" ry="3.11" transform="translate(-10.36 20.59) rotate(-24.34)" style="fill: #0d47a1"/>
    <path d="M59.57,83a4.67,4.67,0,0,1-2.67-5.69c1.07-3.44,4.29-8.69,4.29-10.68,0-6.74-6.61-3.07-9-3.07s-9.61-3.46-9.61,3.28c0,2,3.69,7,4.82,10.43A4.68,4.68,0,0,1,44.74,83c-3.87,1.66-6.44,4.84-6.44,5.88,0,1.61,6.21-1.14,13.88-1.14s13.88,2.75,13.88,1.14C66.06,87.87,63.47,84.66,59.57,83Z" transform="translate(-5.48 -15.88)" style="fill: #2196f3"/>
    <polygon points="46.93 2.43 36.38 1.25 37.99 2.48 25.05 6.72 31.39 6.72 16.6 17.51 21.45 16.16 18.09 27.25 21.94 23.35 20.08 36.75 22.69 34.02 25.29 45.69 26.78 42.58 35.19 53.38 34.6 48.91 42.59 56.98 43.3 51.89 46.92 60.71 49.84 52.02 51.26 55.99 54.14 50.65 56.35 53.51 60.79 48.17 63.68 51.65 66.1 43.2 69.66 45.69 69.66 35.92 73.66 37.44 71.45 25.66 75.68 27.13 70.16 16.51 74.83 17.45 66.14 9.9 71.1 10.43 60.79 5.71 66.14 4.72 54.38 2.41 58.78 0 46.93 2.43" style="fill: #0d47a1"/>
    <path d="M71.54,43c0,7.92-4.8,16.17-11.65,19.09h0a18.92,18.92,0,0,1-4.43,1.27,19.21,19.21,0,0,1-3,.24c-.47,0-.94,0-1.4-.05s-.92-.08-1.38-.15l-.87-.14a19.08,19.08,0,0,1-2.61-.7q-.49-.17-1-.36C38.17,59.37,33.23,51,33.23,43h0a17.68,17.68,0,0,0,7,1.47H64.52A17.44,17.44,0,0,0,71,43.21Z" transform="translate(-5.48 -15.88)"/>
    <g>
      <circle cx="36.37" cy="18.57" r="8.67" style="fill: #fff"/>
      <circle cx="36.37" cy="18.57" r="6.21" style="fill: #2196f3"/>
      <circle cx="36.37" cy="18.57" r="3.32"/>
      <circle cx="37.99" cy="14.72" r="2.73" style="fill: #fff"/>
    </g>
    <g>
      <circle cx="57.47" cy="18.57" r="8.67" style="fill: #fff"/>
      <circle cx="57.47" cy="18.57" r="6.21" style="fill: #2196f3"/>
      <circle cx="57.47" cy="18.57" r="3.32"/>
      <circle cx="59.08" cy="14.72" r="2.73" style="fill: #fff"/>
    </g>
    <path d="M49.39,44.43V50a1.52,1.52,0,0,1-1.5,1.71H42.49A1.52,1.52,0,0,1,41,50V44.43Z" transform="translate(-5.48 -15.88)" style="fill: #fff"/>
    <path d="M63.94,44.43V50c0,1-.44,1.71-1.41,1.71H57.14C56.17,51.71,55,51,55,50V44.43Z" transform="translate(-5.48 -15.88)" style="fill: #fff"/>
    <path d="M49.39,61.46v2a37.36,37.36,0,0,1-4.48-1.2v-.76a2.15,2.15,0,0,1,2-1.92h.92A1.73,1.73,0,0,1,49.39,61.46Z" transform="translate(-5.48 -15.88)" style="fill: #fff"/>
    <path d="M59.46,61.46v.65c-.56.59-2.24,1-3.92,1.27V61.46a1.81,1.81,0,0,1,1.64-1.92h.92C59.07,59.54,59.46,60.49,59.46,61.46Z" transform="translate(-5.48 -15.88)" style="fill: #fff"/>
  </g>
</svg>
