<svg id="Layer_1" data-name="Layer 1" xmlns="http://www.w3.org/2000/svg" viewBox="0 0 93.42 78">
  <title>27</title>
  <g>
    <path d="M46.66,24.19s-8.57,1.76-13.58-4a12.86,12.86,0,0,0,5.57,8.5c-2.51.11-11.83-1.26-16.14-4.25,1.61,3.46,6.12,5.61,7.52,6.33-2.5.72-15.13-.75-17.69-2.08C14.26,31,20,32.76,22,33.83c-2.33.36-6.46,3.59-11.12,2.15,2.87,2.87,7.38,3.13,7.67,2.87C13.73,40.29,8,41.23,6.73,44.43c3.59-1.46,2.89-1.74,5.61-1.64-1.66,2.33-6.86,6.46-7.76,10.76C7.09,51,9.31,50,10.86,50.12,9.06,52.84,4.94,60.15,6,63.31c2-2.4,3.36-6.49,5.2-6.88-.9,6.1-2,12.22,0,14.36.54-5.75,1.48-8.79,3-9.16.36,4.84-.36,12.91,2.51,14.7-.72-5.74.54-9.58,1.61-9.54C18.93,72,18.75,78.3,22,80.45c-.72-7,1.26-9.65,2.42-9.67.44,2.68,2.76,10.92,5.64,12.54-1.25-3.94-1.08-8.79.72-9s3.59,10.22,5.39,12.19c-.54-5.92,1.61-9.14,2.51-9.68s8.28,7.89,8.53,11.83c.61-6.46,5.19-10.58,6.66-11.3C55,78.84,58.91,82.6,58.91,88c.72-5.38-.18-9.32,3-11.3,2.51,2.15,7.5,7,8.14,9.86,1.18-6.28.87-10.48-.59-11.56,3.56,4.3,6.07,0,8.58,3.63-1.43-5-1-4.62-3.58-6.15,1.26-1,7-2.09,9.17,2.12-1.26-5.11-.16-9.11-1.62-8.89,5,1.84,8.4.92,8.94,2.54-.54-3.22-2.15-7.7-4.12-7,4.12.18,6.28-.72,7.53.9-1.25-3-3-6.81-4.66-6.46C93.7,55,96.21,48.66,98,50.12c-3.94-2.48-7.35-1.28-8.43,0,.18-2.3,2.69-9.12,5.56-9.12-2.69-1.61-6.81-2.33-8.25-.18-.36-3.77,2.15-8.07,5-7.53-2.51-2-9.24-.39-12,1.76-1.46-1.08,4.24-8.93,7.11-9.11-3.41-.54-12.14,2.62-13.78,4.88-1.1-1.69-1.46-10.26,3.2-10.62-1.61-2.15-7.46,4.41-9.56,7.46-.3-2.33.2-13.73,3.18-15.71C65,11.6,59.27,19.6,58.91,23.72c-1.79.72-5.26-11.94-5.39-13C52,13.75,51.29,20.56,46.66,24.19Z" transform="translate(-4.58 -10.7)" style="fill: #f9a825"/>
    <g>
      <g>
        <g>
          <path d="M46.22,46.11s-4.68,4.81-10.46,4.81S25.3,46.11,25.3,46.11,30,41.29,35.76,41.29,46.22,46.11,46.22,46.11Z" transform="translate(-4.58 -10.7)" style="fill: #fff"/>
          <circle cx="31.18" cy="35.4" r="3.85" style="fill: #81d4fa"/>
          <circle cx="31.18" cy="35.4" r="1.64"/>
          <circle cx="33.74" cy="32.52" r="1.25" style="fill: #fff"/>
        </g>
        <g>
          <path d="M26,45.44s-6.45-.66-6.12-1.37C20.06,43.74,26,45.44,26,45.44Z" transform="translate(-4.58 -10.7)" style="fill: #fff"/>
          <path d="M26.84,44.77s-6.26-1.58-6-2.45C20.88,42,26.84,44.77,26.84,44.77Z" transform="translate(-4.58 -10.7)" style="fill: #fff"/>
          <path d="M28,44s-6.4-2.9-5.83-3.68C22.34,40,28,44,28,44Z" transform="translate(-4.58 -10.7)" style="fill: #fff"/>
          <path d="M29,43.22s-5.53-4.42-4.73-5.15C24.42,37.9,29,43.22,29,43.22Z" transform="translate(-4.58 -10.7)" style="fill: #fff"/>
          <path d="M30.23,42.66s-4.69-6.16-4-6.59C26.47,35.92,30.23,42.66,30.23,42.66Z" transform="translate(-4.58 -10.7)" style="fill: #fff"/>
          <path d="M31.35,42.17s-3.66-6.83-2.92-7.23C28.62,34.84,31.35,42.17,31.35,42.17Z" transform="translate(-4.58 -10.7)" style="fill: #fff"/>
          <path d="M32.45,41.79s-2.61-6.85-1.9-7.11C30.78,34.6,32.45,41.79,32.45,41.79Z" transform="translate(-4.58 -10.7)" style="fill: #fff"/>
          <path d="M33.51,41.53s-1.6-6.68-1.06-6.84C32.66,34.62,33.51,41.53,33.51,41.53Z" transform="translate(-4.58 -10.7)" style="fill: #fff"/>
          <path d="M34.67,41.35s-1.38-7.29-.55-7.45C34.41,33.83,34.67,41.35,34.67,41.35Z" transform="translate(-4.58 -10.7)" style="fill: #fff"/>
          <path d="M45.37,45.33s6-.89,5.94-1.26C51.27,43.2,45.37,45.33,45.37,45.33Z" transform="translate(-4.58 -10.7)" style="fill: #fff"/>
          <path d="M44.5,44.63s6-2,5.92-2.3C50.12,41.35,44.5,44.63,44.5,44.63Z" transform="translate(-4.58 -10.7)" style="fill: #fff"/>
          <path d="M43.33,43.81s5.9-3.25,5.74-3.54C48.57,39.37,43.33,43.81,43.33,43.81Z" transform="translate(-4.58 -10.7)" style="fill: #fff"/>
          <path d="M42.33,43.2s4.75-4.88,4.66-5.13C46.66,37.2,42.33,43.2,42.33,43.2Z" transform="translate(-4.58 -10.7)" style="fill: #fff"/>
          <path d="M41,42.54s4.15-6.26,4-6.46C44.5,35.55,41,42.54,41,42.54Z" transform="translate(-4.58 -10.7)" style="fill: #fff"/>
          <path d="M39.9,42.07s3.08-7,2.89-7.12C42.21,34.67,39.9,42.07,39.9,42.07Z" transform="translate(-4.58 -10.7)" style="fill: #fff"/>
          <path d="M38.84,41.72s2.07-7,1.83-7C39.9,34.54,38.84,41.72,38.84,41.72Z" transform="translate(-4.58 -10.7)" style="fill: #fff"/>
          <path d="M37.71,41.47s1.24-6.66,1.06-6.78C38.25,34.34,37.71,41.47,37.71,41.47Z" transform="translate(-4.58 -10.7)" style="fill: #fff"/>
          <path d="M36.18,41.3s-.42-7.11.41-7.24C36.84,34,36.18,41.3,36.18,41.3Z" transform="translate(-4.58 -10.7)" style="fill: #fff"/>
        </g>
      </g>
      <g>
        <g>
          <path d="M56.71,46.11s4.68,4.81,10.46,4.81,10.46-4.81,10.46-4.81-4.68-4.81-10.46-4.81S56.71,46.11,56.71,46.11Z" transform="translate(-4.58 -10.7)" style="fill: #fff"/>
          <circle cx="62.59" cy="35.4" r="3.85" style="fill: #81d4fa"/>
          <circle cx="62.59" cy="35.4" r="1.64"/>
          <circle cx="60.03" cy="32.52" r="1.25" style="fill: #fff"/>
        </g>
        <g>
          <path d="M76.91,45.44s6.45-.66,6.12-1.37C82.88,43.74,76.91,45.44,76.91,45.44Z" transform="translate(-4.58 -10.7)" style="fill: #fff"/>
          <path d="M76.1,44.77s6.26-1.58,6-2.45C82.05,42,76.1,44.77,76.1,44.77Z" transform="translate(-4.58 -10.7)" style="fill: #fff"/>
          <path d="M75,44s6.4-2.9,5.83-3.68C80.59,40,75,44,75,44Z" transform="translate(-4.58 -10.7)" style="fill: #fff"/>
          <path d="M74,43.22s5.53-4.42,4.73-5.15C78.51,37.9,74,43.22,74,43.22Z" transform="translate(-4.58 -10.7)" style="fill: #fff"/>
          <path d="M72.71,42.66s4.69-6.16,4-6.59C76.46,35.92,72.71,42.66,72.71,42.66Z" transform="translate(-4.58 -10.7)" style="fill: #fff"/>
          <path d="M71.59,42.17s3.66-6.83,2.92-7.23C74.31,34.84,71.59,42.17,71.59,42.17Z" transform="translate(-4.58 -10.7)" style="fill: #fff"/>
          <path d="M70.48,41.79s2.61-6.85,1.9-7.11C72.15,34.6,70.48,41.79,70.48,41.79Z" transform="translate(-4.58 -10.7)" style="fill: #fff"/>
          <path d="M69.42,41.53s1.6-6.68,1.06-6.84C70.27,34.62,69.42,41.53,69.42,41.53Z" transform="translate(-4.58 -10.7)" style="fill: #fff"/>
          <path d="M68.26,41.35s1.38-7.29.55-7.45C68.52,33.83,68.26,41.35,68.26,41.35Z" transform="translate(-4.58 -10.7)" style="fill: #fff"/>
          <path d="M57.56,45.33s-6-.89-5.94-1.26C51.66,43.2,57.56,45.33,57.56,45.33Z" transform="translate(-4.58 -10.7)" style="fill: #fff"/>
          <path d="M58.44,44.63s-6-2-5.92-2.3C52.81,41.35,58.44,44.63,58.44,44.63Z" transform="translate(-4.58 -10.7)" style="fill: #fff"/>
          <path d="M59.6,43.81s-5.9-3.25-5.74-3.54C54.37,39.37,59.6,43.81,59.6,43.81Z" transform="translate(-4.58 -10.7)" style="fill: #fff"/>
          <path d="M60.61,43.2s-4.75-4.88-4.66-5.13C56.27,37.2,60.61,43.2,60.61,43.2Z" transform="translate(-4.58 -10.7)" style="fill: #fff"/>
          <path d="M61.9,42.54s-4.15-6.26-4-6.46C58.44,35.55,61.9,42.54,61.9,42.54Z" transform="translate(-4.58 -10.7)" style="fill: #fff"/>
          <path d="M63,42.07S60,35,60.15,34.95C60.72,34.67,63,42.07,63,42.07Z" transform="translate(-4.58 -10.7)" style="fill: #fff"/>
          <path d="M64.1,41.72s-2.07-7-1.83-7C63,34.54,64.1,41.72,64.1,41.72Z" transform="translate(-4.58 -10.7)" style="fill: #fff"/>
          <path d="M65.23,41.47S64,34.81,64.17,34.69C64.69,34.34,65.23,41.47,65.23,41.47Z" transform="translate(-4.58 -10.7)" style="fill: #fff"/>
          <path d="M66.75,41.3s.42-7.11-.41-7.24C66.09,34,66.75,41.3,66.75,41.3Z" transform="translate(-4.58 -10.7)" style="fill: #fff"/>
        </g>
      </g>
    </g>
    <g>
      <g>
        <path d="M79.28,52.33c0,2.53-12.5,20.82-27.92,20.82S23.44,54.86,23.44,52.33s12.5,4.83,27.92,4.83S79.28,49.8,79.28,52.33Z" transform="translate(-4.58 -10.7)"/>
        <path d="M28.58,52.86s2,5.1,3.6,5.49,3-2,3-2,1.11,6.25,2.91,6.12,3.57-2.73,3.57-2.73,2.22,5.58,3.61,5.58,3.47-4.19,3.47-4.19,3.1,4.19,4.62,4.19c1.22,0,4.15-4.19,4.15-4.19s1.56,3.19,2.76,3.39,4.62-5.72,4.62-5.72.92,3.2,2.32,3.66,5.38-9.15,5.38-9.15S59.14,57,54.15,56.94C42.79,56.73,28.58,52.86,28.58,52.86Z" transform="translate(-4.58 -10.7)" style="fill: #fff"/>
      </g>
      <path d="M40,70s1.68-3.41,2.82-3.29,2.54,5.55,2.54,5.55A11.38,11.38,0,0,1,40,70Z" transform="translate(-4.58 -10.7)" style="fill: #fff"/>
      <path d="M55.85,72.65s.61-4.85,2.09-5.14,4.88,2.43,4.88,2.43S58.62,72.64,55.85,72.65Z" transform="translate(-4.58 -10.7)" style="fill: #fff"/>
    </g>
  </g>
</svg>
