<svg id="Layer_1" data-name="Layer 1" xmlns="http://www.w3.org/2000/svg" viewBox="0 0 95.68 85.53">
  <title>28</title>
  <g>
    <g>
      <path d="M10.56,54.52l5.29-14.65a48.87,48.87,0,0,0-4.38,3.89C4.27,51,.55,58.91,3.15,61.52c2,2,7.09.29,12.59-3.83l.77-7Z" transform="translate(-2.32 -6.26)" style="fill: #ffeb3b"/>
      <path d="M32.53,77.6l-2.65-3.51c-1.81,9.53-1.21,17,1.51,17.2,2.27.14,6.91-5,10-12.22l-4.63-5.3Z" transform="translate(-2.32 -6.26)" style="fill: #ffeb3b"/>
      <path d="M69.5,70.51,60.94,78l-1.37-4.44L57.83,76.4C60.77,85.23,66.46,91.95,69,91.79c2.8-.17,3.35-8.13,1.34-18.06l-1.72,2.15Z" transform="translate(-2.32 -6.26)" style="fill: #ffeb3b"/>
      <path d="M88.72,43.77c-.9-.9-1.81-1.74-2.71-2.53l1.31,4.06-2.57-1.09-.61,12.54c5.74,4.53,11.12,6.55,13.11,4.56C99.73,58.82,95.91,51,88.72,43.77Z" transform="translate(-2.32 -6.26)" style="fill: #ffeb3b"/>
      <polygon points="84.98 39.04 83.68 34.97 80.83 26.09 84.39 26.61 74.58 18.26 78.84 15.35 65.02 11.64 69.89 6.64 58.73 9.42 60.57 0 47.29 10.11 26.39 10.11 33.07 12.2 14.2 19.55 20.72 19.55 9.23 32.88 14.7 30.47 13.53 33.66 8.24 48.28 14.2 44.46 13.42 51.43 12.54 59.35 17.18 53.89 19.83 66.97 22.15 60.68 27.55 67.83 30.21 71.34 34.45 67.5 39.08 72.81 40.92 74.91 41.85 67.46 47.54 79.72 50.62 68.97 52.88 74.42 55.5 70.14 57.25 67.3 58.62 71.74 67.18 64.25 66.34 69.62 68.37 67.47 75.71 58.69 75.71 63.73 80.43 49.51 81.75 54.88 81.89 50.48 82.45 37.95 84.98 39.04" style="fill: #f9a825"/>
    </g>
    <g>
      <circle cx="48.64" cy="31.8" r="17.71" style="fill: #fff"/>
      <circle cx="48.64" cy="31.8" r="10.89" style="fill: #ffeb3b"/>
      <circle cx="48.64" cy="31.8" r="5.71"/>
      <circle cx="52.79" cy="25.05" r="4.48" style="fill: #fff"/>
    </g>
    <path d="M28.77,55.7s33.09,7.83,41.55-1C69,62,64.06,69.88,55.11,69.88S35,65.38,28.77,55.7Z" transform="translate(-2.32 -6.26)"/>
    <path d="M37.95,57.47s.5,3.28,2.12,4.31,3.72-3.53,3.72-3.53Z" transform="translate(-2.32 -6.26)" style="fill: #fff"/>
    <path d="M57.66,58.81a7,7,0,0,0,2.73,2.62c1.45.53,2.71-3.3,2.7-3.3Z" transform="translate(-2.32 -6.26)" style="fill: #fff"/>
  </g>
</svg>
