<svg id="Layer_1" data-name="Layer 1" xmlns="http://www.w3.org/2000/svg" viewBox="0 0 73.75 94.45">
  <title>29</title>
  <g>
    <path d="M50.55,9.53l-25.14-7,10.45,7.87L11.8,15.25l12.54,1.36L10,31.75l13-3.94L10,47l10.75-7.75L16,52.6l5.9-4.8L19.83,64l5-5L23,74.48l4.86-5.95,3.91,10.75L35.42,72,41.5,87.63l6.66-10.78L50.93,97l3.5-21.06,4.09,7.14,1.85-10.14,5,5,.76-9.39s7.42,2.11,7.42,1.66,1-11.28,1-11.28L79,62.79V47.05l3.45,5.55L79.07,36.08l4.67,3.28L76.16,23.58l6,1.54-12-9.57,8.93-.76Z" transform="translate(-9.99 -2.55)" style="fill: #558b2f"/>
    <g>
      <path d="M66.67,35.8A4.17,4.17,0,0,0,64,35c0,.31,0,.63,0,1,0,2.72-.92,4.93-2,4.93s-2-2.21-2-4.93c0-.15,0-.3,0-.45-.53.12-1.07.25-1.61.39a11.23,11.23,0,0,1,.15,1.85c0,2.72-.92,4.93-2,4.93s-2-2.21-2-4.93q0-.41,0-.79a17.06,17.06,0,0,1-3.88.67,13.79,13.79,0,0,1-3-.45c0,.19,0,.38,0,.57,0,2.72-.91,4.93-2,4.93s-2-2.21-2-4.93a11.4,11.4,0,0,1,.11-1.62l-1.57-.41q0,.12,0,.24c0,2.72-.92,4.93-2,4.93s-2-2.21-2-4.93c0-.32,0-.64,0-.94a4.91,4.91,0,0,0-3.54.82c-4.26,3.67-.24,12,5.53,17.62.34-1.55,1-2.61,1.8-2.61,1.13,0,2,2.21,2,4.93,0,.27,0,.54,0,.8q.74.49,1.48.9c0-2.68.93-4.84,2-4.84s2,2.21,2,4.93a11.52,11.52,0,0,1-.08,1.39,7.66,7.66,0,0,0,1.26.11H51a11.51,11.51,0,0,1-.1-1.49c0-2.72.92-4.93,2-4.93s2,2.21,2,4.93c0,.13,0,.25,0,.37q.76-.36,1.53-.83a11.58,11.58,0,0,1-.08-1.33c0-2.72.91-4.93,2-4.93.9,0,1.66,1.39,1.93,3.33C66.55,48.54,71.12,39.63,66.67,35.8Z" transform="translate(-9.99 -2.55)"/>
      <path d="M40,40.85c1.13,0,2-2.21,2-4.93q0-.12,0-.24a23.46,23.46,0,0,0-4-.7c0,.31,0,.62,0,.94C38,38.64,38.91,40.85,40,40.85Z" transform="translate(-9.99 -2.55)" style="fill: #fff"/>
      <path d="M45.58,42.64c1.13,0,2-2.21,2-4.93,0-.19,0-.38,0-.57-1.23-.29-2.58-.68-4-1.05a11.4,11.4,0,0,0-.11,1.62C43.53,40.43,44.45,42.64,45.58,42.64Z" transform="translate(-9.99 -2.55)" style="fill: #fff"/>
      <path d="M56.47,42.64c1.13,0,2-2.21,2-4.93a11.23,11.23,0,0,0-.15-1.85c-1.33.35-2.67.73-3.91,1.05q0,.39,0,.79C54.43,40.43,55.35,42.64,56.47,42.64Z" transform="translate(-9.99 -2.55)" style="fill: #fff"/>
      <path d="M62,40.85c1.13,0,2-2.21,2-4.93,0-.33,0-.65,0-1a17,17,0,0,0-4,.51c0,.15,0,.3,0,.45C60,38.64,60.88,40.85,62,40.85Z" transform="translate(-9.99 -2.55)" style="fill: #fff"/>
      <path d="M41.83,50.81c-.78,0-1.46,1.06-1.8,2.61a27.17,27.17,0,0,0,3.82,3.12c0-.26,0-.53,0-.8C43.87,53,43,50.81,41.83,50.81Z" transform="translate(-9.99 -2.55)" style="fill: #fff"/>
      <path d="M47.36,52.6c-1.12,0-2,2.16-2,4.84a12.83,12.83,0,0,0,4,1.48,11.52,11.52,0,0,0,.08-1.39C49.41,54.81,48.49,52.6,47.36,52.6Z" transform="translate(-9.99 -2.55)" style="fill: #fff"/>
      <path d="M52.9,52.6c-1.13,0-2,2.21-2,4.93A11.51,11.51,0,0,0,51,59a10.78,10.78,0,0,0,4-1.12c0-.12,0-.25,0-.37C54.95,54.81,54,52.6,52.9,52.6Z" transform="translate(-9.99 -2.55)" style="fill: #fff"/>
      <path d="M58.44,50.81c-1.13,0-2,2.21-2,4.93a11.58,11.58,0,0,0,.08,1.33,25.19,25.19,0,0,0,3.9-2.94C60.1,52.21,59.34,50.81,58.44,50.81Z" transform="translate(-9.99 -2.55)" style="fill: #fff"/>
      <path d="M50.58,11.53A26.24,26.24,0,1,0,76.82,37.76,26.24,26.24,0,0,0,50.58,11.53Zm9.79,42.62a25.19,25.19,0,0,1-3.9,2.94q-.77.46-1.53.83A10.78,10.78,0,0,1,51,59h-.37a7.66,7.66,0,0,1-1.26-.11,12.83,12.83,0,0,1-4-1.48q-.74-.41-1.48-.9A27.17,27.17,0,0,1,40,53.42c-5.78-5.62-9.79-14-5.53-17.62A4.91,4.91,0,0,1,38,35a23.46,23.46,0,0,1,4,.7l1.57.41c1.38.37,2.73.76,4,1.05a13.79,13.79,0,0,0,3,.45,17.06,17.06,0,0,0,3.88-.67c1.24-.32,2.58-.71,3.91-1.05.54-.14,1.08-.27,1.61-.39A17,17,0,0,1,64,35a4.17,4.17,0,0,1,2.66.84C71.12,39.63,66.55,48.54,60.37,54.14Z" transform="translate(-9.99 -2.55)" style="fill: #558b2f"/>
    </g>
    <circle cx="40.87" cy="22.57" r="11.15" style="fill: #fff"/>
    <circle cx="40.87" cy="22.57" r="6.63" style="fill: #8bc34a"/>
    <circle cx="40.87" cy="22.57" r="2.69"/>
    <circle cx="42.91" cy="19.06" r="1.97" style="fill: #fff"/>
  </g>
</svg>
