<svg id="Layer_1" data-name="Layer 1" xmlns="http://www.w3.org/2000/svg" viewBox="0 0 93.5 66.16">
  <title>Untitled-3</title>
  <g>
    <path d="M48.95,68.28c0,5.11-2.23,14.81-5,14.81s-5-9.69-5-14.81S41.2,59,44,59,48.95,63.17,48.95,68.28Z" transform="translate(-3.25 -16.92)" style="fill: #9c27b0"/>
    <path d="M63.94,68.28c0,5.11-2.23,14.81-5,14.81s-5-9.69-5-14.81S56.2,59,59,59,63.94,63.17,63.94,68.28Z" transform="translate(-3.25 -16.92)" style="fill: #9c27b0"/>
    <path d="M96.75,45.45c0,1.5-23.91,4.56-46.56,4.56S3.25,46.95,3.25,45.45s24.28-4.56,46.94-4.56S96.75,44,96.75,45.45Z" transform="translate(-3.25 -16.92)" style="fill: #9c27b0"/>
    <polygon points="47.23 1.87 35.72 0 40.58 3.17 27.93 9.56 32.56 9.56 24.51 18.23 30.43 15.86 23.77 27.95 27.93 25.16 24.69 38.48 28.12 34.31 30.06 48 31.82 44.13 35.5 53.37 35.89 48.47 38.92 55.31 39.15 50.45 44.4 60.31 44.81 54.48 48.48 62.72 51.18 54.39 53.1 57.35 55.37 51.56 57.12 55.31 61.56 47.17 62.36 50.45 65.34 41.99 67.4 45.6 68 34.68 70.04 38.29 68.83 27.37 71.33 30.98 67.4 19.28 72.26 21.17 65.34 13.89 70.5 14.6 62.36 8.3 68.37 8.86 57.43 4.33 62.73 0.53 47.23 1.87" style="fill: #6a1b9a"/>
    <path d="M65.82,47.54C65.82,51.69,59.1,68,51.73,68S37.07,51.69,37.07,47.54s7.09,3.59,14.47,3.59S65.82,43.39,65.82,47.54Z" transform="translate(-3.25 -16.92)"/>
    <g>
      <circle cx="38.6" cy="20.47" r="7.69" style="fill: #fff"/>
      <circle cx="38.6" cy="20.47" r="4.7" style="fill: #9c27b0"/>
      <circle cx="38.6" cy="20.47" r="2.29"/>
      <circle cx="40.43" cy="17.6" r="2.06" style="fill: #fff"/>
    </g>
    <g>
      <circle cx="58.21" cy="20.47" r="7.69" style="fill: #fff"/>
      <circle cx="58.21" cy="20.47" r="4.7" style="fill: #9c27b0"/>
      <circle cx="58.21" cy="20.47" r="2.29"/>
      <circle cx="60.05" cy="17.6" r="2.06" style="fill: #fff"/>
    </g>
    <ellipse cx="48.29" cy="41.36" rx="6.77" ry="3.11" style="fill: #9c27b0"/>
    <path d="M42.17,48.17s.65,6.11,1.59,6.43,1.75-4.87,1.75-4.87A3.94,3.94,0,0,0,42.17,48.17Z" transform="translate(-3.25 -16.92)" style="fill: #fff"/>
    <path d="M50.09,51.08s.53,5,1.45,5.76S53,51.08,53,51.08,51.1,50.34,50.09,51.08Z" transform="translate(-3.25 -16.92)" style="fill: #fff"/>
    <path d="M57.31,49.82s.05,5,1.3,5,1.2-6.2,1.2-6.2A11.23,11.23,0,0,0,57.31,49.82Z" transform="translate(-3.25 -16.92)" style="fill: #fff"/>
    <path d="M46.47,65.53s.75-4,1.38-3.56,1.45,5.48,1.45,5.48A8.38,8.38,0,0,1,46.47,65.53Z" transform="translate(-3.25 -16.92)" style="fill: #fff"/>
    <path d="M53.89,67.56s.4-6,1.18-5.62,1.73,3.67,1.73,3.67A3.18,3.18,0,0,1,53.89,67.56Z" transform="translate(-3.25 -16.92)" style="fill: #fff"/>
    <path d="M72.66,35.17l-.93-.4a.61.61,0,0,1-.29-.25c-.5-.83-2.35-4-5.15-4.58-2.59-.5-8.53-.42-11.37,1.76a.6.6,0,0,1-.44.13c-.28,0-1.45-.05-2.75-.06s-2.47,0-2.75.06a.61.61,0,0,1-.44-.13c-2.85-2.18-8.78-2.27-11.37-1.76-2.79.54-4.65,3.75-5.15,4.58a.61.61,0,0,1-.29.25l-.8.4c-.23.1-.21.32-.21.57v.92c0,.28,0,.5.3.57,1,.25,1.45,1.73,1.45,1.73s1.47,3.67,3.79,5.22,6.84,1.65,9.64.17,4.06-5.22,4.53-6.63a5.85,5.85,0,0,0,.43-2.56c-.07-.24-.62-.14-.62-1.08,0-.21.75-.35,1.49-.42s1.49.21,1.49.42c0,.94-.55.84-.61,1.08A5.89,5.89,0,0,0,53,37.72c.47,1.41,1.75,5.15,4.54,6.63s7.33,1.38,9.65-.17S71.05,39,71.05,39s.49-1.48,1.52-1.73a.56.56,0,0,0,.44-.57v-.92A.59.59,0,0,0,72.66,35.17ZM49.38,37.11c-.61,2.46-2.49,6.53-6.56,7.2A8.15,8.15,0,0,1,34,40.07c-1.62-2.93-1.18-5.87-.24-6.93A6.76,6.76,0,0,1,38,30.8a16.05,16.05,0,0,1,9.93,1.94l.1.07A4.34,4.34,0,0,1,49.38,37.11Zm20,3a8.15,8.15,0,0,1-8.78,4.24c-4.07-.67-6-4.75-6.56-7.2a4.34,4.34,0,0,1,1.34-4.3l.1-.07a16.05,16.05,0,0,1,9.93-1.94,6.76,6.76,0,0,1,4.22,2.34C70.6,34.2,71,37.15,69.42,40.07Z" transform="translate(-3.25 -16.92)" style="fill: #f9a825"/>
  </g>
</svg>
