<svg id="Layer_1" data-name="Layer 1" xmlns="http://www.w3.org/2000/svg" viewBox="0 0 93.01 61.75">
  <title>30</title>
  <g>
    <g>
      <path d="M9.09,52.15l5.21-4.81-1.59-1.7a8.5,8.5,0,0,0-3.09-.55C6,45.09,3,47.29,3,50S6,54.9,9.61,54.9a8.68,8.68,0,0,0,2.4-.39l.25-2.36Z" transform="translate(-2.99 -16.41)" style="fill: #ff9800"/>
      <path d="M96,50c0-2.71-3-4.9-6.62-4.9a8.89,8.89,0,0,0-1.42.11l3,5.07-2.61-.22,1.16,4.84C93.11,54.85,96,52.68,96,50Z" transform="translate(-2.99 -16.41)" style="fill: #ff9800"/>
      <path d="M30.68,70.42l-6.12-6.19.86,4.3-3.84-5.38A9.94,9.94,0,0,0,20.38,68c0,4.27,2.52,7.74,5.52,7.74s5.52-3.47,5.52-7.74h0l-1.76-1.54Z" transform="translate(-2.99 -16.41)" style="fill: #ff9800"/>
      <path d="M74.45,64.92l-4.58,4.2V66.47l-.51.2A11,11,0,0,0,69.19,68c0,4.27,2.38,7.74,5.37,7.74S80,72.29,80,68a10.21,10.21,0,0,0-.9-4.24L75,68Z" transform="translate(-2.99 -16.41)" style="fill: #ff9800"/>
      <polygon points="87.97 33.87 84.97 28.8 82.98 25.46 84.22 23.37 75.41 20.3 76.14 17.23 67.47 18.51 71.27 9.12 60.1 15.31 59.4 4.3 55.31 11.49 52.12 0 48.1 9.8 42.87 4.13 40.93 11.18 35.15 9.01 33.09 14.57 25.46 13.34 25.36 17.61 13.49 19.78 16.18 22.81 7.58 26.93 9.71 29.25 11.3 30.93 6.1 35.74 9.27 35.74 9.02 38.1 8.5 42.8 12.12 40.91 12.46 44.7 15.04 43.34 17.62 49.19 18.14 46.1 18.59 46.74 22.44 52.12 21.58 47.82 27.69 54.01 26.56 50.05 28.23 51.59 33.27 56.24 32.61 51.6 38.72 57.97 38.72 52.91 42.84 57.97 42.84 52.51 47.37 61.75 49.42 53.66 50.12 57.97 54.52 51.77 54.52 56.36 59.33 51.26 59.33 54.53 66.33 50.26 66.88 50.05 66.88 52.71 71.46 48.51 72.05 51.6 76.06 47.35 77.18 46.1 77.18 48.85 80.87 42.48 83.13 44.71 84.17 38.42 87.1 40.92 86.52 38.49 85.36 33.66 87.97 33.87" style="fill: #e65100"/>
    </g>
    <path d="M57.59,54.31c0,7.72-3.3,14-7.37,14s-7.37-6.26-7.37-14c0-2.41.32-5.72.89-6.34,1.25-1.36,3.68,2.51,6.48,2.51S55.45,46.6,56.7,48C57.27,48.58,57.59,51.89,57.59,54.31Z" transform="translate(-2.99 -16.41)"/>
    <g>
      <circle cx="27.69" cy="33.87" r="10.84" style="fill: #fff"/>
      <circle cx="27.69" cy="33.87" r="7.05" style="fill: #ff9800"/>
      <circle cx="27.69" cy="33.87" r="4.83"/>
      <circle cx="30.1" cy="30.43" r="2.41" style="fill: #fff"/>
    </g>
    <g>
      <circle cx="66.46" cy="33.87" r="10.84" style="fill: #fff"/>
      <circle cx="66.46" cy="33.87" r="7.05" style="fill: #ff9800"/>
      <circle cx="66.46" cy="33.87" r="4.91"/>
      <circle cx="68.87" cy="30.43" r="2.41" style="fill: #fff"/>
    </g>
    <path d="M44.62,47.69s.41,4.66,1.44,5.52S48,49.78,48,49.78s-1.3-1.9-2.38-2.06S44.62,47.69,44.62,47.69Z" transform="translate(-2.99 -16.41)" style="fill: #fff"/>
    <path d="M55.69,47.74s-.41,4.62-1.44,5.48-1.94-3.37-1.94-3.37,1.3-2,2.38-2.13S55.69,47.74,55.69,47.74Z" transform="translate(-2.99 -16.41)" style="fill: #fff"/>
  </g>
</svg>
