<svg id="Layer_1" data-name="Layer 1" xmlns="http://www.w3.org/2000/svg" viewBox="0 0 79.99 98">
  <title>4</title>
  <g>
    <path d="M24.85,38.49l-.7-.23L23.5,38a17.86,17.86,0,0,1-3.28-1.91L20.11,36l-.33-.27c-.25-.21-.5-.43-.74-.65a18.55,18.55,0,0,1-1.36-1.42l-.44-.54c-.17-.23-.33-.46-.5-.7a17.81,17.81,0,0,1-1-1.69c-.15-.29-.29-.59-.43-.89l0-.07-.17-.45a2.63,2.63,0,0,0-3.17-1.8,2.59,2.59,0,0,0-1.8,3.17A21,21,0,0,0,23.48,43.46a2.58,2.58,0,0,0,1.37-5Z" transform="translate(-10 -1)" style="fill: #3f51b5"/>
    <path d="M75.33,34.76l.69-.23.64-.25A17.62,17.62,0,0,0,79.9,32.4l.11-.08.33-.27c.25-.21.49-.43.73-.65A18.26,18.26,0,0,0,82.42,30l.44-.53c.17-.23.33-.46.49-.69a17.56,17.56,0,0,0,1-1.67c.15-.29.29-.58.42-.87l0-.07.17-.45a2.6,2.6,0,0,1,3.13-1.78,2.55,2.55,0,0,1,1.78,3.13,20.76,20.76,0,0,1-13.19,12.6,2.55,2.55,0,1,1-1.35-4.91Z" transform="translate(-10 -1)" style="fill: #3f51b5"/>
    <path d="M56.69,74.14,52,92s6.65,8,9.2,6.9S50.58,93.41,59.68,78C59.31,70.74,56.69,74.14,56.69,74.14Z" transform="translate(-10 -1)" style="fill: #3f51b5"/>
    <path d="M45.19,76.75l-9.36,15.9S25.46,93.6,24.45,91s11.4,3.68,15.89-13.64C45.76,72.5,45.19,76.75,45.19,76.75Z" transform="translate(-10 -1)" style="fill: #3f51b5"/>
    <path d="M46.7,1.32l0,8.24L37.44,4.18l2.16,6.52L29.7,7.12,32,13.41l-9,1.67,5.59,2.68-7.92,4.93,4,1.67-4.59,5.76,3.44.36-3.4,11L23,40.32l-1.9,8.25,2.72-.77-1.5,11,2.37-3,1.84,10.47,2.07-2.58L32,73.48,33.36,71l3.21,6.52,1.8-1.63,4.86,4.76,1-2.31L50.75,83l4.87-4.21V81l6.54-5s.7,3.13,1.05,3S69,70.36,69,70.36l2.18,2.85,3.42-11,2.26,3.53L76.25,52,80,55,77.73,41.51,81.39,43,76.24,29.39,80,28.44l-7.65-8.32,2.25-3.18-8.91-3.39,3.56-4.26-7,.86,2.1-7.2-7.21,6L57.06,1l-5,7.48Z" transform="translate(-10 -1)" style="fill: #b71c1c"/>
    <g>
      <path d="M72.93,42c0,9.08-5.51,18.56-13.37,21.91l0,0a21.73,21.73,0,0,1-5.09,1.46A22.07,22.07,0,0,1,51,65.7c-.54,0-1.08,0-1.61-.06s-1.06-.1-1.58-.17l-1-.17a21.87,21.87,0,0,1-3-.8q-.56-.19-1.1-.41C34.64,60.81,29,51.25,29,42h0a20.29,20.29,0,0,0,8.09,1.68H64.88a20,20,0,0,0,7.45-1.44Z" transform="translate(-10 -1)"/>
      <path d="M47.51,43.67v6.39a1.75,1.75,0,0,1-1.73,2H39.59a1.74,1.74,0,0,1-1.72-2V43.67Z" transform="translate(-10 -1)" style="fill: #fff"/>
      <path d="M64.21,43.67v6.39c0,1.11-.51,2-1.62,2H56.4c-1.11,0-2.47-.85-2.47-2V43.67Z" transform="translate(-10 -1)" style="fill: #fff"/>
      <path d="M47.51,63.21v2.25a42.89,42.89,0,0,1-5.14-1.38v-.87A2.46,2.46,0,0,1,44.69,61h1.05A2,2,0,0,1,47.51,63.21Z" transform="translate(-10 -1)" style="fill: #fff"/>
      <path d="M59.07,63.21V64c-.64.68-2.57,1.18-4.5,1.46V63.21A2.08,2.08,0,0,1,56.46,61h1.05C58.62,61,59.07,62.1,59.07,63.21Z" transform="translate(-10 -1)" style="fill: #fff"/>
    </g>
    <g>
      <g>
        <circle cx="34.37" cy="31.78" r="8.91" transform="translate(-17.47 9.77) rotate(-16.1)" style="fill: #fff"/>
        <circle cx="34.37" cy="31.78" r="5.48" transform="translate(-17.47 9.77) rotate(-16.1)" style="fill: #ffeb3b"/>
        <circle cx="34.37" cy="31.78" r="2.87" transform="translate(-17.47 9.77) rotate(-16.1)"/>
        <circle cx="35.43" cy="27.94" r="2.25" transform="translate(-16.36 9.92) rotate(-16.09)" style="fill: #fff"/>
      </g>
      <g>
        <circle cx="57.85" cy="25.01" r="8.91" transform="translate(-14.67 16.02) rotate(-16.1)" style="fill: #fff"/>
        <circle cx="57.85" cy="25.01" r="5.48" transform="translate(-14.67 16.02) rotate(-16.1)" style="fill: #ffeb3b"/>
        <circle cx="57.85" cy="25.01" r="2.87" transform="translate(-14.67 16.02) rotate(-16.1)"/>
        <circle cx="54.9" cy="22.33" r="2.25" transform="translate(-14.04 15.1) rotate(-16.1)" style="fill: #fff"/>
      </g>
    </g>
  </g>
</svg>
