<svg id="Layer_1" data-name="Layer 1" xmlns="http://www.w3.org/2000/svg" viewBox="0 0 95.73 86.54">
  <title>5</title>
  <g>
    <circle cx="81.01" cy="45.92" r="14.73" style="fill: #1a237e"/>
    <g>
      <path d="M34.55,88.84l0,0h0Z" transform="translate(-2.27 -5.14)" style="fill: #3f51b5"/>
      <path d="M71.63,91.12l-4.32-3A6.47,6.47,0,0,0,71.63,91.12Z" transform="translate(-2.27 -5.14)" style="fill: #3f51b5"/>
      <path d="M74.18,87.37l-2.1-2.78h2.1L72.4,81.25,71.2,79h3l-5.63-5.16,3.09.41L67,70.47l3.15,0-3.77-4.33a4.07,4.07,0,0,1,1.5-2.13l11.61-8.31A4,4,0,0,0,77,48.51H62.7a4.2,4.2,0,0,1-3.88-3L54.4,31.86a4.07,4.07,0,0,0-7.75,0L42.22,45.57a4.19,4.19,0,0,1-3.88,2.94H24a4,4,0,0,0-2.4,7.23l11.61,8.38a3.74,3.74,0,0,1,1.53,2.08l-5.88,5.21H31l-5,6.7,3.54-1.9-2.35,6L26,85.28H29l-.09,4.59,2-2.16,1.73,3,.54.94,1.39-2.82,0-.06h0l1.21,1.53,3-2.72,1.54,1.62,1.15-4.41,1.71,2.78,2.25-5.21,1.27,3.08,1.37-5.07,1.61,2.64,1.16-4.12,1.94,3.68,1.94-1.54V85.4l2.6-3.59h.17v4.37l2-1.14,2.21,3.52,1.56-2.64,1.95,5.72,1.32-4,.73.51,4.32,3,.67.47-.14-.42-1.41-3.8Z" transform="translate(-2.27 -5.14)" style="fill: #1a237e"/>
    </g>
    <path d="M61.73,56.1S47,58,40.36,56.1s.94,8.85,3.75,10S62.39,60.42,61.73,56.1Z" transform="translate(-2.27 -5.14)"/>
    <path d="M41.51,56.38s-.32,4.69,1.61,4.65c3.43-.07,2.35-4.18,2.35-4.18Z" transform="translate(-2.27 -5.14)" style="fill: #fff"/>
    <path d="M52.93,56.84s.26,2.63,2.55,2.55c2.59-.09,2.27-2.87,2.27-2.87Z" transform="translate(-2.27 -5.14)" style="fill: #fff"/>
    <path d="M48.12,65.58S47.17,61,49.47,61c1.4,0,1.42,3.64,1.42,3.64Z" transform="translate(-2.27 -5.14)" style="fill: #fff"/>
    <g>
      <circle cx="14.73" cy="38.9" r="14.73" style="fill: #1a237e"/>
      <circle cx="14.73" cy="38.9" r="9.01" style="fill: #fff"/>
      <circle cx="14.73" cy="38.9" r="5.05" style="fill: #3f51b5"/>
      <circle cx="14.73" cy="38.9" r="2.4"/>
      <circle cx="17.13" cy="34.46" r="2.03" style="fill: #fff"/>
    </g>
    <g>
      <circle cx="48.26" cy="14.73" r="14.73" style="fill: #1a237e"/>
      <circle cx="48.26" cy="14.73" r="9.01" style="fill: #fff"/>
      <circle cx="48.26" cy="14.73" r="5.05" style="fill: #3f51b5"/>
      <circle cx="48.26" cy="14.73" r="2.4"/>
      <circle cx="50.66" cy="10.29" r="2.03" style="fill: #fff"/>
    </g>
    <g>
      <circle cx="81.01" cy="45.92" r="9.01" style="fill: #fff"/>
      <circle cx="81.01" cy="45.92" r="5.05" style="fill: #3f51b5"/>
      <circle cx="81.01" cy="45.92" r="2.4"/>
      <circle cx="83.41" cy="41.48" r="2.03" style="fill: #fff"/>
    </g>
  </g>
</svg>
