<svg id="Layer_1" data-name="Layer 1" xmlns="http://www.w3.org/2000/svg" viewBox="0 0 75.41 93.74">
  <title>6</title>
  <g>
    <path d="M30.95,20.09l-.9-.3-.83-.32a23.18,23.18,0,0,1-2.09-1.06A23.24,23.24,0,0,1,25,17l-.14-.11-.43-.35c-.32-.27-.63-.55-.94-.84a23.7,23.7,0,0,1-1.75-1.82c-.06-.07-.55-.68-.57-.69-.22-.29-.43-.59-.63-.9a22.81,22.81,0,0,1-1.28-2.16c-.2-.37-.37-.75-.55-1.13l0-.09-.22-.58a3.36,3.36,0,0,0-4.06-2.3,3.31,3.31,0,0,0-2.3,4.06A26.91,26.91,0,0,0,29.19,26.45a3.3,3.3,0,0,0,1.75-6.36Z" transform="translate(-11.95 -5.26)" style="fill: #4fc3f7"/>
    <path d="M68.36,19.41l.9-.3.83-.32a23.18,23.18,0,0,0,2.09-1.06,23.21,23.21,0,0,0,2.11-1.38l.14-.11.43-.35c.32-.27.63-.55.94-.84a23.7,23.7,0,0,0,1.74-1.82c.06-.07.55-.68.57-.69.22-.29.43-.59.63-.9A22.76,22.76,0,0,0,80,9.49c.2-.37.37-.75.55-1.13l0-.09.22-.58a3.36,3.36,0,0,1,4.06-2.3,3.31,3.31,0,0,1,2.3,4.06A26.91,26.91,0,0,1,70.11,25.77a3.3,3.3,0,1,1-1.75-6.36Z" transform="translate(-11.95 -5.26)" style="fill: #4fc3f7"/>
    <path d="M60.52,58.24l-7.57,29s10.81,13,14.95,11.21-17.32-8.9-2.53-33.93C64.76,52.72,60.52,58.24,60.52,58.24Z" transform="translate(-11.95 -5.26)" style="fill: #4fc3f7"/>
    <path d="M41.41,58.6l7.57,29S38.17,100.64,34,98.83s17.32-8.9,2.53-33.93C37.17,53.08,41.41,58.6,41.41,58.6Z" transform="translate(-11.95 -5.26)" style="fill: #4fc3f7"/>
    <path d="M49.79,13.67c-3.8.14-15.07,2-15.07,2l2.92.56L26,21.83l4.51-.41L19.9,30.27l4.76-.9L19.9,39.87l3.61-2.3L20.89,50.28l2.87-2.21L25,59.48l1.64-3.79,3,10.25,1.8-3.77,5.41,10.5.86-5.7,4.8,8.41,3.94-5.17,3.87,11.73L55,69.55,56.89,74,62,67l1.8,3.24,4.18-7L69.76,67l1.91-8.73,3.88,4.67V52.25l3.79,4.26L77.62,45.28l4,3L78,38.29l3.69,1.91-5.9-9.14,3.61.77-7.71-7.71,4.71.82L65.17,18l7.05.9s-9.77-4-13.2-4.67A52.18,52.18,0,0,0,49.79,13.67Z" transform="translate(-11.95 -5.26)" style="fill: #0091ea"/>
    <g>
      <circle cx="38.31" cy="31.58" r="16.26" style="fill: #fff"/>
      <circle cx="38.31" cy="31.58" r="10.15" style="fill: #4fc3f7"/>
      <circle cx="38.31" cy="28.3" r="4.73"/>
      <circle cx="41.21" cy="23.02" r="2.78" style="fill: #fff"/>
    </g>
    <path d="M53,62.11h0a12.07,12.07,0,0,1-1.46.49l-.4.09-.15,0-.24,0a5.83,5.83,0,0,1-.73.07s-.08.14-.12.13,0,.13-.05.13H49.5a8.68,8.68,0,0,1-2.83-.66c-.1,0-.19-.13-.28-.16s0,0-.05-.05c-3.49-1.36-6.57-4.47-8.68-6.69,0,0,4,.15,8.68.26,1,0,2.09-.28,3.16-.27.1,0,.19-.33.29-.33h.05c.12,0,.25.33.38.34s.23.17.35.17c.34,0,.69.09,1,.1.12,0,.25,0,.37,0l1,0c4.18,0,7.85-.06,8.89-.37C64.09,54.85,58,60.09,53,62.11Z" transform="translate(-11.95 -5.26)"/>
    <path d="M49.21,55.88v1.88c0,.87-.45,1.58-1.32,1.58s-1.32-.71-1.32-1.58V55.81C47.24,55.84,47.9,55.86,49.21,55.88Z" transform="translate(-11.95 -5.26)" style="fill: #fff"/>
    <path d="M53.16,55.92v1.84a1.65,1.65,0,0,1-3.29,0V55.88Z" transform="translate(-11.95 -5.26)" style="fill: #fff"/>
    <path d="M49.21,62.16v.76a4.75,4.75,0,0,1-2.63-.68v-.08A1.49,1.49,0,0,1,48,60.58,1.15,1.15,0,0,1,49,61,1.45,1.45,0,0,1,49.21,62.16Z" transform="translate(-11.95 -5.26)" style="fill: #fff"/>
    <path d="M53,62.12a9.92,9.92,0,0,1-3.11.73v-.7a1.55,1.55,0,0,1,1.54-1.58A1.59,1.59,0,0,1,53,62.12Z" transform="translate(-11.95 -5.26)" style="fill: #fff"/>
  </g>
</svg>
