<svg id="Layer_1" data-name="Layer 1" xmlns="http://www.w3.org/2000/svg" viewBox="0 0 90.37 96.74">
  <title>7</title>
  <g>
    <path d="M42.5,51.88C43.21,57,36.72,62.17,28,63.39s-21.92-2-22.64-7.09S16.67,46,25.39,44.8,41.78,46.75,42.5,51.88Z" transform="translate(-5.32 -1.26)" style="fill: #4caf50"/>
    <path d="M58.52,52.44C57.8,57.57,64.29,62.72,73,63.94s21.92-2,22.64-7.09-11.31-10.28-20-11.51S59.23,47.3,58.52,52.44Z" transform="translate(-5.32 -1.26)" style="fill: #4caf50"/>
    <ellipse cx="36.38" cy="82.06" rx="15.96" ry="9.39" transform="translate(-58.7 81.52) rotate(-66.55)" style="fill: #4caf50"/>
    <ellipse cx="66.56" cy="82.89" rx="9.39" ry="15.96" transform="translate(-32.81 32.08) rotate(-23.45)" style="fill: #4caf50"/>
    <polygon points="47.5 2.78 27.03 0 34.03 4.65 16.65 14.41 24.73 13.24 14.12 27.05 21.54 23.85 12.1 45.19 18.18 42.32 13.96 56.62 20.19 49.95 19.01 68.12 23.56 61.34 22.26 72.62 27.09 68.12 26.08 77.92 31.47 72.62 34.84 81.79 36.05 75.05 42.08 85.66 43.24 78.42 47.5 90.55 50.17 78.76 51.81 84.82 56.69 76.23 58.71 81.96 63.09 71.15 65.16 78.42 69.54 63.02 72.07 70.13 72.74 53.29 75.77 59.89 74.09 41.37 78.97 48.61 73.58 29.41 80.15 36.14 72.74 19.47 80.15 22.8 68.7 13.21 76.72 14.9 62.71 5.15 66.98 0.4 47.5 2.78" style="fill: #1b5e20"/>
    <g>
      <circle cx="36.39" cy="58.98" r="7.24" style="fill: #fff"/>
      <circle cx="36.39" cy="58.98" r="4.04" style="fill: #4caf50"/>
      <circle cx="36.39" cy="58.98" r="2.36"/>
      <circle cx="38.05" cy="55.29" r="2" style="fill: #fff"/>
    </g>
    <g>
      <circle cx="59.05" cy="58.98" r="7.24" style="fill: #fff"/>
      <circle cx="59.05" cy="58.98" r="4.04" style="fill: #4caf50"/>
      <circle cx="59.05" cy="58.98" r="2.36"/>
      <circle cx="60.71" cy="55.29" r="2" style="fill: #fff"/>
    </g>
    <path d="M61.34,68.93a.34.34,0,0,1,0,0c-.06,1.84-3.85,6.22-8.52,6.22s-8.52-4.45-8.52-6.26,3.82-1.29,8.52-1.29c4.13,0,7.57-.4,8.36.72h0a.9.9,0,0,1,.15.39.56.56,0,0,1,0,.08A.73.73,0,0,1,61.34,68.93Z" transform="translate(-5.32 -1.26)"/>
    <path d="M61.34,68.93a.34.34,0,0,1,0,0c0,.56-.67,2.24-1.64,1.78s-1.52-1.69-2.57-1.82-2.57,2.13-3.41,2.25-2.16-2.29-3.17-2.25-2.25,2.22-3.94,2a3.09,3.09,0,0,1-2.31-2c0-1.81,3.82-1.29,8.52-1.29,4.13,0,7.57-.4,8.36.72h0a1.1,1.1,0,0,1,.15.39s0,.05,0,.08A.73.73,0,0,1,61.34,68.93Z" transform="translate(-5.32 -1.26)" style="fill: #fff"/>
    <path d="M48.57,74s1.64-1.88,2.17-1.55,1,1.76,1.62,1.76,1.49-1.83,2.25-1.79S56.7,74.2,56.7,74.2A7.25,7.25,0,0,1,48.57,74Z" transform="translate(-5.32 -1.26)" style="fill: #fff"/>
  </g>
</svg>
