<svg id="Layer_1" data-name="Layer 1" xmlns="http://www.w3.org/2000/svg" viewBox="0 0 97.13 89.37">
  <title>8</title>
  <g>
    <path d="M8.39,61.84h0a.84.84,0,0,1-.92,0c-1.18-.7-4.54-1.69-4.59-.75,0,.49,3.43,1.65,3.43,1.65S.44,63.47.89,64.42s5.32,0,5.32,0S4.08,67.7,4.6,67.71c.85,0,3-1.73,3.69-2.92A2.2,2.2,0,0,1,9.07,64c2.2-1.35,6.44-5.49,9.7-8.27l-1.84-1.81A52.89,52.89,0,0,1,8.39,61.84Z" transform="translate(-0.87 -5.68)" style="fill: #b71c1c"/>
    <path d="M90.48,61.32h0a.84.84,0,0,0,.92,0c1.18-.7,4.54-1.69,4.59-.75,0,.49-3.43,1.65-3.43,1.65S98.43,63,98,63.9s-5.32,0-5.32,0,2.14,3.24,1.62,3.24c-.85,0-3-1.73-3.69-2.92a2.2,2.2,0,0,0-.78-.78c-2.2-1.35-6.44-5.49-9.7-8.27l1.84-1.81A52.88,52.88,0,0,0,90.48,61.32Z" transform="translate(-0.87 -5.68)" style="fill: #b71c1c"/>
    <path d="M39.81,92.06c.2-1.87.32-4.7.36-8.08L38.1,82l-.38,2.42c.17,2.8.39,5.34.62,6.87h-7.5c-1.27,0-2.3,1.53-2.3,3.82H40.75A4.11,4.11,0,0,0,39.81,92.06Z" transform="translate(-0.87 -5.68)" style="fill: #b71c1c"/>
    <path d="M59.45,92.06c-.2-1.87-.32-4.7-.36-8.08l2.07-2,.38,2.42c-.17,2.8-.39,5.34-.62,6.87h7.5c1.27,0,2.3,1.53,2.3,3.82H58.51A4.11,4.11,0,0,1,59.45,92.06Z" transform="translate(-0.87 -5.68)" style="fill: #b71c1c"/>
    <rect x="36.23" y="56.67" width="3.98" height="28.11" style="fill: #009688"/>
    <rect x="5.52" y="50.35" width="28.11" height="3.98" transform="translate(-32.15 23.49) rotate(-45)" style="fill: #009688"/>
    <rect x="77.52" y="38.29" width="3.98" height="28.11" transform="translate(-14.59 65.87) rotate(-45)" style="fill: #009688"/>
    <rect x="57.11" y="56.67" width="3.98" height="28.11" style="fill: #009688"/>
    <path d="M33.25,18.2,15.9,23.48l7.61,3.68L12.22,44.66l6.86-2.34L15.36,54l6.06-1.23L19.7,66.15l4.05-4.34,2.67,11.07L28.59,68,35.52,81.3l2.19-7.48,6.86,9,.7-5L50.35,88l3.22-9.51,2.93,5,4.22-8.73,6.12,6.7,2-9.67,7.64,4.68L75.51,64.3,81,65.49,78.32,53.19h5.89l-4.65-13,4.65-1.85L74.26,28.9l4.83-2.1-15-7,7.48-5.75L58.06,15.54,60,5.68l-8.15,7.8S46.42,5.84,47,6.31s-1,7.33-1,7.33L33,10.52Z" transform="translate(-0.87 -5.68)" style="fill: #b71c1c"/>
    <g>
      <circle cx="35.92" cy="32.8" r="6.86" style="fill: #fff"/>
      <circle cx="35.92" cy="32.8" r="2.19"/>
    </g>
    <g>
      <circle cx="60.75" cy="32.62" r="6.86" style="fill: #fff"/>
      <circle cx="60.75" cy="32.62" r="2.19"/>
    </g>
    <path d="M65.2,51.27c.41,3-5.1,13.63-13.54,14.78s-16.6-7.63-17-10.61,7.09,1,15.53-.2S64.79,48.28,65.2,51.27Z" transform="translate(-0.87 -5.68)"/>
    <path d="M38.63,54.57S41,60,42.39,60.33,48,55.43,48,55.43,39.65,54.27,38.63,54.57Z" transform="translate(-0.87 -5.68)" style="fill: #fff"/>
    <path d="M53.57,54.52s6.38-2.85,7-2.75-.62,6.29-1.23,6.9S54.32,55.52,53.57,54.52Z" transform="translate(-0.87 -5.68)" style="fill: #fff"/>
    <path d="M46,65.47s3-5,3.9-4.84,4.61,4.25,4.73,4.58S50.1,67.4,46,65.47Z" transform="translate(-0.87 -5.68)" style="fill: #fff"/>
    <path d="M70.21,36.34a9.06,9.06,0,0,0-8.77-6.66,8.69,8.69,0,0,0-7.32,4,7.34,7.34,0,0,1-.95-.28V28.51a.52.52,0,0,0-.52-.52h-7a.52.52,0,0,0-.52.52v4.91a5.22,5.22,0,0,1-.95.28,8.69,8.69,0,0,0-7.32-4,9.06,9.06,0,0,0-8.77,6.66H24.29v2.09h3.57c0,4.52,4.14,8.65,9,8.65a8.69,8.69,0,0,0,8.48-10.57,2.48,2.48,0,0,0,.79-.28c.24-.19,0-1,0-1.11V29.56a.52.52,0,0,1,.52-.52H51.6a.52.52,0,0,1,.52.52v5.57c0,.07-.2.91,0,1.11a2.48,2.48,0,0,0,.79.28,8.69,8.69,0,0,0,8.48,10.57c4.9,0,9-4.13,9-8.65H74V36.34Zm-33.31,10a8.28,8.28,0,0,1-8.34-8,8.28,8.28,0,0,1,8.34-8,8,8,0,0,1,0,16Zm24.54,0a8,8,0,0,1,0-16,8.28,8.28,0,0,1,8.34,8A8.28,8.28,0,0,1,61.44,46.35Z" transform="translate(-0.87 -5.68)"/>
    <circle cx="48.21" cy="41.75" r="5.47" style="fill: #ef5350"/>
  </g>
</svg>
