<svg id="Layer_1" data-name="Layer 1" xmlns="http://www.w3.org/2000/svg" viewBox="0 0 61.79 92.49">
  <title>9</title>
  <g>
    <path d="M72.18,72.23c2.2,7.76,2.42,21.92-3.51,23.6S56.14,86.09,53.94,78.33s.83-15.41,6.76-17.1S70,64.47,72.18,72.23Z" transform="translate(-18.31 -3.51)" style="fill: #ffeb3b"/>
    <path d="M29.56,72.23c-2.2,7.76-2.42,21.92,3.51,23.6s12.53-9.75,14.73-17.51S47,62.91,41,61.23,31.76,64.47,29.56,72.23Z" transform="translate(-18.31 -3.51)" style="fill: #ffeb3b"/>
    <path d="M51.68,10,48.9,16.22S41.37,5.9,41.49,6.28,43.54,15,43.54,15L33.37,9.43l7,6.8L27.54,13.78,35.13,20l-11.9,2.49L28,27.95l-9.59,9.21,7.37.18L18.31,49.86l7.56-3.78L18.82,58.93l6.93-5.38L22.47,68.63l4.79-5.42L26,76.31l5.16-6.55.38,12.6,4.1-7.05L38.47,81l4.34-3.53,2.71,4.91L48.29,78l3.42,13.23,4.22-13L60,80.72l2.42-4.28,4.75,3.15,2-9.07,3.15,3.28L73.48,64l3,3.38v-11l1.92,3.76-2-12.3,3.71,3.28L74.9,38l5.15,1.76-8.32-11L78,29,67.18,23.16l6.94-5.29L62.43,19.25l4.75-10-9.06,6.3L62.31,3.51l-8.6,11.59Z" transform="translate(-18.31 -3.51)" style="fill: #f9a825"/>
    <g>
      <circle cx="22.4" cy="30.8" r="7.94" style="fill: #fff"/>
      <circle cx="22.4" cy="30.8" r="4.79" style="fill: #ffeb3b"/>
      <circle cx="22.4" cy="30.8" r="3.02"/>
      <circle cx="24.45" cy="27.08" r="2.53" style="fill: #fff"/>
    </g>
    <g>
      <circle cx="43.21" cy="30.8" r="7.94" style="fill: #fff"/>
      <circle cx="43.21" cy="30.8" r="4.79" style="fill: #ffeb3b"/>
      <circle cx="43.21" cy="30.8" r="3.02"/>
      <circle cx="45.7" cy="27.08" r="2.37" style="fill: #fff"/>
    </g>
    <path d="M69.26,48.9c0,8.49-9.85,25.77-18.34,25.77S32.58,57.39,32.58,48.9s9.85-.5,18.34-.5S69.26,40.42,69.26,48.9Z" transform="translate(-18.31 -3.51)"/>
    <ellipse cx="32.61" cy="57.66" rx="9.31" ry="7.42" style="fill: #f9a825"/>
    <path d="M34.85,45.07s2.57,12,5.09,14.77,2-13.32,2-13.32S38.07,43.93,34.85,45.07Z" transform="translate(-18.31 -3.51)" style="fill: #fff"/>
    <path d="M46.17,47.74s2.12,12,4.75,12.09S54.44,48,54.44,48A13.42,13.42,0,0,0,46.17,47.74Z" transform="translate(-18.31 -3.51)" style="fill: #fff"/>
    <path d="M59.22,46.72s.32,12.21,2.3,12.21,4-13.9,4-13.9S61.49,44.71,59.22,46.72Z" transform="translate(-18.31 -3.51)" style="fill: #fff"/>
    <path d="M43.06,70.55S44.62,60,45.49,60.15s3.95,14.36,3.95,14.36A8.67,8.67,0,0,1,43.06,70.55Z" transform="translate(-18.31 -3.51)" style="fill: #fff"/>
    <path d="M51.79,74.51s2.65-14.52,4-14.36,2.68,10.69,2.68,10.69S55.56,75,51.79,74.51Z" transform="translate(-18.31 -3.51)" style="fill: #fff"/>
    <path d="M76.89,26.07a34.88,34.88,0,0,0-12.12-1.23c-6.36.44-9.57,2.25-10.5,2.84a1.33,1.33,0,0,1-.68.27H49.48a1.33,1.33,0,0,1-.68-.27c-.92-.59-4.13-2.37-10.5-2.8a33.75,33.75,0,0,0-11.94,1.21c-.53.16-.62.63-.62,1.19v2.77c0,.35-.13.69.13.92,1.4,1.19,1.77,3.71,2.13,5.39.2,1,1.94,5.28,5.39,6.51,2.47.88,8.39,1.16,11-.35,3.43-2,5-6.82,5-6.82s.48-1.11.76-2a1.32,1.32,0,0,0-.4-1.33,1.43,1.43,0,0,1-.09-1.67c.18-.26,1.23-.35,1.86-.37h.06c.63,0,1.69.12,1.86.37a1.43,1.43,0,0,1-.09,1.67A1.32,1.32,0,0,0,53,33.7c.27.89.76,2,.76,2s1.54,4.84,5,6.82c2.63,1.52,8.57,1.23,11,.35,3.45-1.23,5.24-5.56,5.44-6.51.36-1.69.82-4.2,2.22-5.39a1.14,1.14,0,0,0,.32-.92V27.28A1.18,1.18,0,0,0,76.89,26.07ZM44.6,40.72c-3.32,3.09-8.57,1.66-11.15.67a6,6,0,0,1-3-2.44,10.83,10.83,0,0,1-.95-8.74,1.28,1.28,0,0,1,.17-.38c.54-.8,2.91-3.69,8.77-3.23,6.78.53,8.41,4.8,8.41,4.8A8.44,8.44,0,0,1,44.6,40.72Zm28-1.78a6,6,0,0,1-3,2.44c-2.58,1-7.83,2.43-11.15-.67a8.44,8.44,0,0,1-2.29-9.33s1.63-4.27,8.41-4.8c5.85-.46,8.23,2.44,8.77,3.23a1.28,1.28,0,0,1,.17.38A10.83,10.83,0,0,1,72.59,38.95Z" transform="translate(-18.31 -3.51)"/>
  </g>
</svg>
