<svg id="_ÎÓÈ_1" data-name="—ÎÓÈ_1" xmlns="http://www.w3.org/2000/svg" xmlns:xlink="http://www.w3.org/1999/xlink" viewBox="0 0 570.19 587.59"><defs><style>.cls-1{fill:none;}.cls-2{clip-path:url(#clip-path);}.cls-3{fill:#142945;}.cls-4{fill:#fff;}.cls-5{fill:#d7e7f2;}.cls-6{fill:#65809e;}.cls-7{fill:#274466;}.cls-8{fill:#152e4a;}.cls-9{fill:#b1c0cb;}.cls-10{fill:#6b92b2;}.cls-11{fill:#b5d1e7;}.cls-12{fill:#517b9c;}.cls-13{fill:#1b3c66;}.cls-14{fill:#356394;}.cls-15{fill:#466d8c;}.cls-16{fill:#19375e;}.cls-17{fill:#1a3557;}.cls-18{fill:#234670;}</style><clipPath id="clip-path" transform="translate(26.42 48.13)"><rect class="cls-1" width="500" height="500"/></clipPath></defs><title>background</title><g class="cls-2"><rect class="cls-3" x="26.42" y="48.13" width="500" height="500"/><path class="cls-4" d="M401.85,260.12l1,13,1-13a7.21,7.21,0,0,1,6.64-6.64l13-1-13-1a7.21,7.21,0,0,1-6.64-6.64l-1-13-1,13a7.21,7.21,0,0,1-6.64,6.64l-13,1,13,1A7.21,7.21,0,0,1,401.85,260.12Z" transform="translate(26.42 48.13)"/><path class="cls-5" d="M74.38,107.29a36.86,36.86,0,1,0,38-35.68A36.86,36.86,0,0,0,74.38,107.29Zm19.44-6.92a6.18,6.18,0,1,1,8.7-.77A6.18,6.18,0,0,1,93.82,100.37Zm10.57,31.12a4,4,0,1,1-5.61-.18A4,4,0,0,1,104.38,131.49Zm-8.86-9.32a6.23,6.23,0,1,1-6-6.42A6.23,6.23,0,0,1,95.53,122.18Zm3.32-11.66a4,4,0,1,1-3.9-4.15A4,4,0,0,1,98.84,110.51Zm28-19a7.42,7.42,0,1,1-10.49-.33A7.42,7.42,0,0,1,126.84,91.56Zm-38-3.2A3.16,3.16,0,1,1,93.33,88,3.16,3.16,0,0,1,88.88,88.35Zm42.18-1.73a3.69,3.69,0,1,1,.16-5.21A3.69,3.69,0,0,1,131.05,86.63Z" transform="translate(26.42 48.13)"/><path class="cls-6" d="M72.33,107.22a38.91,38.91,0,1,0,40.12-37.66A38.91,38.91,0,0,0,72.33,107.22Zm76.47,2.42a37.6,37.6,0,1,1-36.39-38.77A37.6,37.6,0,0,1,148.8,109.64Z" transform="translate(26.42 48.13)"/><path class="cls-7" d="M69.56,107.13a41.68,41.68,0,1,0,43-40.35A41.68,41.68,0,0,0,69.56,107.13Zm81.91,2.59a40.27,40.27,0,1,1-39-41.53A40.27,40.27,0,0,1,151.47,109.72Z" transform="translate(26.42 48.13)"/><path class="cls-8" d="M66.68,107a44.56,44.56,0,1,0,45.94-43.13A44.56,44.56,0,0,0,66.68,107Zm87.56,2.77a43,43,0,1,1-41.67-44.39A43,43,0,0,1,154.25,109.81Z" transform="translate(26.42 48.13)"/><polygon class="cls-4" points="243.62 296.83 266.5 283.44 326.28 283.04 349.34 296.11 243.62 296.83"/><polygon class="cls-9" points="349.88 298.11 326.43 311.5 266.74 311.91 243.11 298.85 349.88 298.11"/><polygon class="cls-4" points="276.31 314.3 279.45 314.28 267.29 341.81 276.31 314.3"/><polygon class="cls-4" points="317.06 314.02 326.29 341.64 313.92 314.04 317.06 314.02"/><polygon class="cls-4" points="298.42 314.15 297.04 348 294.7 314.18 298.42 314.15"/><path class="cls-10" d="M241.33,233.3l57.25-.39a28.63,28.63,0,0,0-57.25.39Zm34.36-25.89A27,27,0,0,1,295.06,230l-6.28,0A33.44,33.44,0,0,0,275.69,207.41Z" transform="translate(26.42 48.13)"/><path class="cls-11" d="M498.94,102.33a12.43,12.43,0,0,1,.06-1.27l-25.42,1.25L499,103.86A12.32,12.32,0,0,1,498.94,102.33Z" transform="translate(26.42 48.13)"/><path class="cls-11" d="M508.09,114.08a12.14,12.14,0,0,1-3.78-1.7l-26,11.74Z" transform="translate(26.42 48.13)"/><path class="cls-11" d="M507.93,90.5l-29.86-9.7,26.12,11.45A12.14,12.14,0,0,1,507.93,90.5Z" transform="translate(26.42 48.13)"/><circle class="cls-4" cx="511.14" cy="102.27" r="10.3" transform="translate(25.87 50.93) rotate(-0.31)"/><path class="cls-4" d="M370.38,124.45l8.62,2.9-1.06,3.17a4.55,4.55,0,0,1-5.76,2.86h0a4.55,4.55,0,0,1-2.86-5.76Z" transform="translate(26.42 48.13)"/><path class="cls-4" d="M426.94,123.78l-8.55,3.1,1.14,3.14a4.55,4.55,0,0,0,5.82,2.72h0a4.55,4.55,0,0,0,2.72-5.82Z" transform="translate(26.42 48.13)"/><path class="cls-4" d="M398,63.9a17.66,17.66,0,1,0,17.86,17.45A17.66,17.66,0,0,0,398,63.9Zm.37,31.56a13.88,13.88,0,0,1-12-21.09l23.6-.28a13.88,13.88,0,0,1-11.55,21.37Z" transform="translate(26.42 48.13)"/><path class="cls-4" d="M379.4,102.46a8.49,8.49,0,0,0-3,4.11l-5.17,15.38,8.41,2.83Z" transform="translate(26.42 48.13)"/><path class="cls-4" d="M417.67,124.32l8.34-3L420.47,106a8.49,8.49,0,0,0-3.07-4Z" transform="translate(26.42 48.13)"/><path class="cls-12" d="M382.3,147l0,2.05a4,4,0,0,0,4,3.93l7.1-.08a4,4,0,0,0,3.93-4l0-2.05Z" transform="translate(26.42 48.13)"/><path class="cls-4" d="M397.32,143.82,397.17,131a1.66,1.66,0,0,1,1.49-1.7,1.6,1.6,0,0,1,1.7,1.57l.15,12.87,15.06-.18-.46-39.56a9.32,9.32,0,0,0-3.29-7,20.62,20.62,0,0,1-26.89.32,9.32,9.32,0,0,0-3.13,7.08l.46,39.56Zm1.39-17.94a1.08,1.08,0,1,1,1.07-1.09A1.08,1.08,0,0,1,398.71,125.89Zm0-4.2a1.78,1.78,0,1,1,1.75-1.8A1.77,1.77,0,0,1,398.66,121.68Zm-7.25-12.62a2,2,0,0,1,2-2.06l10.12-.12a2,2,0,0,1,2.06,2l.05,4.32a2,2,0,0,1-2,2.06l-10.12.12a2,2,0,0,1-2.06-2Z" transform="translate(26.42 48.13)"/><path class="cls-12" d="M400.55,146.81l0,2.05a4,4,0,0,0,4,3.93l7.1-.08a4,4,0,0,0,3.93-4l0-2.05Z" transform="translate(26.42 48.13)"/><path class="cls-10" d="M525.41,262.44h-.08c.65-1.34,1.25-2.7,1.8-4.09a28.17,28.17,0,0,1,4.6,14.88,28.46,28.46,0,0,1-2.16,11.65A24.89,24.89,0,0,0,521.11,270,62.63,62.63,0,0,0,525.41,262.44Z" transform="translate(26.42 48.13)"/><path class="cls-10" d="M488.77,263.3h-.08a62.59,62.59,0,0,0,4.4,7,24.84,24.84,0,0,0-8.16,15.67,28.45,28.45,0,0,1-2.71-11.53,28.11,28.11,0,0,1,4.28-15.7Q487.55,261.05,488.77,263.3Z" transform="translate(26.42 48.13)"/><path class="cls-13" d="M490.11,261.62H490a58.86,58.86,0,0,0,8.18,11.51l18.14-.43A58.87,58.87,0,0,0,524,260.82h-.07a58.75,58.75,0,0,0-.47-52.13l-35.33.83a58.75,58.75,0,0,0,2,52.09ZM495,230a11.25,11.25,0,1,1,11.51,11A11.25,11.25,0,0,1,495,230Z" transform="translate(26.42 48.13)"/><path class="cls-10" d="M489.52,207.62a57.48,57.48,0,0,1,14.64-18.9,2.34,2.34,0,0,1,2.94-.07,57.48,57.48,0,0,1,15.51,18.19Z" transform="translate(26.42 48.13)"/><path class="cls-4" d="M495.47,283.33a20.4,20.4,0,0,1,6.2-8.11c-.12.43-.23.87-.32,1.35-1.15,6.22,1.34,14,6.29,17.32,4.72-3.64,6.83-11.44,5.44-17.59-.11-.5-.25-1-.4-1.42a19.48,19.48,0,0,1,4.86,5.91c.59,1.12,3.24,6.1,2.11,11.44a23.76,23.76,0,0,1-1.31,4,25,25,0,0,1-3,5.13,3.57,3.57,0,0,0-1.27-4,12.49,12.49,0,0,1-2.27,6.46,12.36,12.36,0,0,1-3.91,3.53A23.85,23.85,0,0,1,504,304.6a16.14,16.14,0,0,1-4.65-5.65,13.43,13.43,0,0,1-1-7,7.92,7.92,0,0,0-1.14,2.47,8,8,0,0,0,0,4,12.19,12.19,0,0,1-2.66-4.24C492.9,289.58,494.63,285.38,495.47,283.33Z" transform="translate(26.42 48.13)"/><path class="cls-14" d="M105.89,497.15a6.27,6.27,0,0,1-5.78-5.78l-.86-11.27-.86,11.27a6.27,6.27,0,0,1-5.78,5.78L81.34,498l11.27.86a6.27,6.27,0,0,1,5.78,5.78l.86,11.27.86-11.27a6.27,6.27,0,0,1,5.78-5.78l11.27-.86Zm-4.67,1.57A2.23,2.23,0,0,0,100,500l-.71,1.8-.71-1.8a2.23,2.23,0,0,0-1.26-1.26l-1.8-.71,1.8-.71A2.23,2.23,0,0,0,98.54,496l.71-1.8L100,496a2.23,2.23,0,0,0,1.26,1.26l1.8.71Z" transform="translate(26.42 48.13)"/><path class="cls-4" d="M156.38,263.92l-9.19,3.31,1.22,3.38a4.88,4.88,0,0,0,6.25,2.94h0a4.88,4.88,0,0,0,2.94-6.25Z" transform="translate(26.42 48.13)"/><path class="cls-4" d="M92.72,228l8.69-4.46-1.64-3.19a4.88,4.88,0,0,0-6.57-2.11h0a4.88,4.88,0,0,0-2.11,6.57Z" transform="translate(26.42 48.13)"/><path class="cls-4" d="M125.43,201.27a19,19,0,1,0,19.15,18.78A19,19,0,0,0,125.43,201.27Zm.32,33.9a14.91,14.91,0,0,1-12.89-22.68l25.34-.24a14.91,14.91,0,0,1-12.45,22.92Z" transform="translate(26.42 48.13)"/><path class="cls-12" d="M115.69,215a11.64,11.64,0,1,0,19.76-.19Z" transform="translate(26.42 48.13)"/><path class="cls-4" d="M146.19,240.51a9.11,9.11,0,0,1,3.29,4.34l5.9,16.4-9,3.23Z" transform="translate(26.42 48.13)"/><path class="cls-4" d="M108.39,290.51l0,2.21a4.28,4.28,0,0,0,4.32,4.23l7.63-.07a4.28,4.28,0,0,0,4.23-4.32l0-2.21Z" transform="translate(26.42 48.13)"/><path class="cls-4" d="M124.54,287.11l-.13-13.72a1.78,1.78,0,0,1,1.61-1.83,1.71,1.71,0,0,1,1.82,1.7l.13,13.82,16.18-.15-.41-42.49a10,10,0,0,0-3.52-7.53,22.15,22.15,0,0,1-28.89.28,10,10,0,0,0-3.38,7.6l.41,42.49Zm1.53-19.26a1.16,1.16,0,1,1,1.15-1.17A1.16,1.16,0,0,1,126.07,267.85Zm0-4.51a1.91,1.91,0,1,1,1.89-1.92A1.91,1.91,0,0,1,126,263.34Zm-7.76-13.58a2.19,2.19,0,0,1,2.17-2.21l10.87-.1a2.19,2.19,0,0,1,2.21,2.17l0,4.64a2.19,2.19,0,0,1-2.17,2.21l-10.87.1a2.19,2.19,0,0,1-2.21-2.17Z" transform="translate(26.42 48.13)"/><path class="cls-4" d="M128,290.32l0,2.21a4.28,4.28,0,0,0,4.32,4.23l7.63-.07a4.28,4.28,0,0,0,4.23-4.32l0-2.21Z" transform="translate(26.42 48.13)"/><path class="cls-4" d="M105.4,244.39a11.38,11.38,0,0,1,2.65-7.41l-5.52-10.77-8.48,4.34,11.43,22.32Z" transform="translate(26.42 48.13)"/><path class="cls-4" d="M246.52,89v.08q2-1.09,4.13-2a29.55,29.55,0,0,0-27.42-1.4A25.66,25.66,0,0,1,239,93.74,64.5,64.5,0,0,1,246.52,89Z" transform="translate(26.42 48.13)"/><path class="cls-4" d="M247.16,126.77v.08a64.51,64.51,0,0,1-7.36-4.24A25.6,25.6,0,0,1,224,131.66,29.32,29.32,0,0,0,236,134a29,29,0,0,0,16-5.06Q249.53,127.93,247.16,126.77Z" transform="translate(26.42 48.13)"/><path class="cls-10" d="M276.59,131.54a60.25,60.25,0,0,0,26-6.34L302,88.78a60.56,60.56,0,0,0-53.71,1.68v-.07a60.7,60.7,0,0,0-11.92,8.36l.32,18.7a60.68,60.68,0,0,0,12.19,7.95v-.07A60.21,60.21,0,0,0,276.59,131.54Zm-9.17-24A13.55,13.55,0,1,1,281.2,120.9,13.55,13.55,0,0,1,267.42,107.57Z" transform="translate(26.42 48.13)"/><path class="cls-4" d="M304.48,123.68a59.25,59.25,0,0,0,18.86-15.87,2.41,2.41,0,0,0-.05-3A59.25,59.25,0,0,0,303.9,89.55Z" transform="translate(26.42 48.13)"/><path class="cls-15" d="M226.26,120.7a21,21,0,0,0,8.09-6.72c-.44.14-.89.28-1.37.39-6.36,1.44-14.5-.8-18.1-5.76,3.55-5,11.5-7.51,17.89-6.33.52.1,1,.22,1.48.36A20.08,20.08,0,0,0,228,97.87c-1.17-.56-6.42-3.09-11.87-1.69a24.5,24.5,0,0,0-4,1.52,25.72,25.72,0,0,0-5.16,3.27,3.68,3.68,0,0,1,4.13,1.14,12.88,12.88,0,0,0-6.56,2.61,12.73,12.73,0,0,0-3.47,4.18,24.56,24.56,0,0,0,3,3.87,16.63,16.63,0,0,0,6,4.55,13.84,13.84,0,0,0,7.27.77,8.16,8.16,0,0,1-2.49,1.27,8.27,8.27,0,0,1-4.09.19,12.57,12.57,0,0,0,4.47,2.56C219.92,123.61,224.18,121.66,226.26,120.7Z" transform="translate(26.42 48.13)"/><circle class="cls-3" cx="280.97" cy="107.35" r="10.29" transform="translate(24.65 52.88) rotate(-0.97)"/><path class="cls-12" d="M516.71,501a15.14,15.14,0,0,1-1.56-.05L517,532.13l1.56-31.32A15.12,15.12,0,0,1,516.71,501Z" transform="translate(26.42 48.13)"/><path class="cls-12" d="M531,489.55a14.92,14.92,0,0,1-2,4.67L543.76,526Z" transform="translate(26.42 48.13)"/><path class="cls-12" d="M502,490.07,490.52,526.9l13.72-32.25A14.91,14.91,0,0,1,502,490.07Z" transform="translate(26.42 48.13)"/><circle class="cls-13" cx="516.47" cy="485.97" r="12.66" transform="translate(18.53 56.65) rotate(-0.94)"/><path class="cls-16" d="M429.78,392.16c-2.71.3-4.93.36-5.68.37-10.05.05-17.61-6.86-17.61-6.86-.51-.47-8.69-8.17-8.47-19.23.08-4.2.89-7.68,3.43-12.93l5.22-10.75a38.55,38.55,0,0,0-12.74.63,40.16,40.16,0,0,0-18,9.48c-1,1-12.81,12.49-12.81,29.34,0,20.07,18.4,39.62,39.85,39.85,14.49.15,28-8.54,34.6-20.09a37.43,37.43,0,0,0,4.4-12.44,55.92,55.92,0,0,1-5.81,1.61A60.44,60.44,0,0,1,429.78,392.16Zm4.76,8.1a36.41,36.41,0,1,1-39.84-53.52l5.94-.76-2.18,5.82a29.52,29.52,0,0,0,32.32,43.4l6.31-.94Z" transform="translate(26.42 48.13)"/><path class="cls-4" d="M424.1,399.41a33,33,0,0,1-28.63-49.31,33,33,0,1,0,36.08,48.46A33,33,0,0,1,424.1,399.41Z" transform="translate(26.42 48.13)"/><path class="cls-13" d="M270.24,362c-31.87.1-57.68,6.17-57.65,13.55s25.88,13.28,57.74,13.17S328,382.56,328,375.18,302.11,361.9,270.24,362Zm.08,23.3c-29.39.1-53.24-4.88-53.26-11.1s23.79-11.35,53.19-11.45,53.24,4.88,53.26,11.1S299.71,385.21,270.32,385.3Z" transform="translate(26.42 48.13)"/><path class="cls-10" d="M270.31,382.28a214.21,214.21,0,0,0,28.53-1.88,29,29,0,1,0-57.06.19A214.2,214.2,0,0,0,270.31,382.28Z" transform="translate(26.42 48.13)"/><path class="cls-10" d="M270.34,391.75a239.1,239.1,0,0,1-24.79-1.26,29,29,0,0,0,49.57-.16A239.11,239.11,0,0,1,270.34,391.75Z" transform="translate(26.42 48.13)"/><path class="cls-17" d="M418.63,464.39c19.81,10,30.52,22.81,28,31.19-1.66,5.5-8.74,8.12-10,8.57-7.8,2.71-13.73-.78-20.45-3.53a7.8,7.8,0,0,0,.67-3.38c-.18-4.61-4.7-8.66-12.07-11.66-5.29-4.76-17.08-12.16-29.7-16.13-22.82-7.18-44-1.79-55.9,2.56,29.38-8.13,43.81-3.93,51.56,2a102.47,102.47,0,0,0,8.66,6.41,130,130,0,0,0-13.64-.18A128.46,128.46,0,0,0,350,481.78c-16.29-4.23-52.58-4.86-66.6,12.19a13.54,13.54,0,0,0-3.38,6.89c-2.25,16.2,31.73,31.63,34.21,32.73-19.81-10-30.52-22.81-28-31.19,1.66-5.5,8.74-8.12,10-8.57,7.86-2.73,13.83.83,20.6,3.6a7.91,7.91,0,0,0-.81,3.7c.17,4.4,4.31,8.29,11.1,11.25,3.55,4.36,17.07,13.58,31.71,18.18,22.82,7.18,44,1.79,55.9-2.56-29.38,8.13-43.81,3.93-51.56-2a86,86,0,0,0-11.59-8.18,130.8,130.8,0,0,0,32.17-1.4c16.71,4,51.9,4.3,65.66-12.43a13.54,13.54,0,0,0,3.38-6.89C455.09,480.92,421.11,465.49,418.63,464.39Zm-51.93,48.53c-20.12.78-36.66-4.73-37-12.31s15.77-14.36,35.89-15.14,36.66,4.73,37,12.31S386.81,512.15,366.69,512.93Z" transform="translate(26.42 48.13)"/><ellipse class="cls-18" cx="365.51" cy="498.74" rx="22.16" ry="6.99" transform="translate(7.35 62.69) rotate(-2.22)"/><path class="cls-16" d="M140.44,385.58a12.78,12.78,0,0,1,17.36-2.27,53.79,53.79,0,0,0-9.16-8.19c-9.17-6.87-19.67-14.73-38-19.69-26.6-7.18-53.86-1.85-53.83-1.48a114.43,114.43,0,0,1,34.89.75c10.47,1.84,21.31,3.89,31.17,12.26,3.13,2.66,10.9,9.43,13.94,20.61a35.52,35.52,0,0,1,.9,4.38A12.71,12.71,0,0,1,140.44,385.58Z" transform="translate(26.42 48.13)"/><circle class="cls-10" cx="151.61" cy="394.64" r="8.4" transform="translate(-223.38 310.11) rotate(-50.7)"/><path class="cls-12" d="M508.09,349.18a26.19,26.19,0,1,0,26.19,26.19A26.19,26.19,0,0,0,508.09,349.18Zm0,50a23.83,23.83,0,1,1,23.83-23.83A23.83,23.83,0,0,1,508.09,399.2Z" transform="translate(26.42 48.13)"/><path class="cls-16" d="M508.09,344.3a31.06,31.06,0,1,0,31.06,31.06A31.06,31.06,0,0,0,508.09,344.3Zm0,59.68a28.63,28.63,0,1,1,28.62-28.62A28.62,28.62,0,0,1,508.09,404Z" transform="translate(26.42 48.13)"/><path class="cls-11" d="M-1.06,102.33A12.43,12.43,0,0,1-1,101.07l-25.42,1.25L-1,103.86A12.33,12.33,0,0,1-1.06,102.33Z" transform="translate(26.42 48.13)"/><path class="cls-11" d="M8.09,114.08a12.14,12.14,0,0,1-3.78-1.7l-26,11.74Z" transform="translate(26.42 48.13)"/><path class="cls-11" d="M7.93,90.5l-29.86-9.7L4.18,92.25A12.14,12.14,0,0,1,7.93,90.5Z" transform="translate(26.42 48.13)"/><circle class="cls-4" cx="11.14" cy="102.27" r="10.3" transform="translate(25.86 48.19) rotate(-0.31)"/><path class="cls-10" d="M25.41,262.44h-.08c.65-1.34,1.25-2.7,1.8-4.09a28.17,28.17,0,0,1,4.6,14.88,28.46,28.46,0,0,1-2.16,11.65A24.89,24.89,0,0,0,21.11,270,62.63,62.63,0,0,0,25.41,262.44Z" transform="translate(26.42 48.13)"/><path class="cls-10" d="M-11.23,263.3h-.08a62.59,62.59,0,0,0,4.4,7,24.84,24.84,0,0,0-8.16,15.67,28.45,28.45,0,0,1-2.71-11.53,28.11,28.11,0,0,1,4.28-15.7Q-12.45,261.05-11.23,263.3Z" transform="translate(26.42 48.13)"/><path class="cls-13" d="M-9.89,261.62H-10a58.86,58.86,0,0,0,8.18,11.51l18.14-.43A58.87,58.87,0,0,0,24,260.82h-.07a58.41,58.41,0,0,0,5.85-27,58.46,58.46,0,0,0-6.32-25.16l-35.33.83a58.75,58.75,0,0,0,2,52.09ZM-5,230A11.25,11.25,0,1,1,6.54,241,11.25,11.25,0,0,1-5,230Z" transform="translate(26.42 48.13)"/><path class="cls-10" d="M-10.48,207.62a57.48,57.48,0,0,1,14.64-18.9,2.34,2.34,0,0,1,2.94-.07,57.48,57.48,0,0,1,15.51,18.19Z" transform="translate(26.42 48.13)"/><path class="cls-4" d="M-4.53,283.33a20.4,20.4,0,0,1,6.2-8.11c-.12.43-.23.87-.32,1.35-1.15,6.22,1.34,14,6.29,17.32,4.72-3.64,6.83-11.44,5.44-17.59-.11-.5-.25-1-.4-1.42a19.48,19.48,0,0,1,4.86,5.91c.59,1.12,3.24,6.1,2.11,11.44a23.76,23.76,0,0,1-1.31,4,25,25,0,0,1-3,5.13,3.57,3.57,0,0,0-1.27-4,12.49,12.49,0,0,1-2.27,6.46,12.36,12.36,0,0,1-3.91,3.53A23.85,23.85,0,0,1,4,304.6,16.14,16.14,0,0,1-.6,298.95a13.43,13.43,0,0,1-1-7,7.92,7.92,0,0,0-1.14,2.47,8,8,0,0,0,0,4,12.19,12.19,0,0,1-2.66-4.24C-7.1,289.58-5.37,285.38-4.53,283.33Z" transform="translate(26.42 48.13)"/><path class="cls-12" d="M16.71,501a15.14,15.14,0,0,1-1.56-.05L17,532.13l1.56-31.32A15.12,15.12,0,0,1,16.71,501Z" transform="translate(26.42 48.13)"/><path class="cls-12" d="M31,489.55a14.92,14.92,0,0,1-2,4.67L43.76,526Z" transform="translate(26.42 48.13)"/><path class="cls-12" d="M2,490.07-9.48,526.9,4.25,494.65A14.91,14.91,0,0,1,2,490.07Z" transform="translate(26.42 48.13)"/><circle class="cls-13" cx="16.47" cy="485.97" r="12.66" transform="translate(18.47 48.46) rotate(-0.94)"/><path class="cls-12" d="M8.09,349.18a26.19,26.19,0,1,0,26.19,26.19A26.19,26.19,0,0,0,8.09,349.18Zm0,50a23.83,23.83,0,1,1,23.83-23.83A23.83,23.83,0,0,1,8.09,399.2Z" transform="translate(26.42 48.13)"/><path class="cls-16" d="M8.09,344.3a31.06,31.06,0,1,0,31.06,31.06A31.06,31.06,0,0,0,8.09,344.3Zm0,59.68a28.63,28.63,0,1,1,28.62-28.62A28.62,28.62,0,0,1,8.09,404Z" transform="translate(26.42 48.13)"/><path class="cls-4" d="M198.54,463.64c.65,0,1.29,0,1.93.06q-.82-6-1.93-11.83-1.11,5.78-1.93,11.83C197.25,463.66,197.89,463.64,198.54,463.64Z" transform="translate(26.42 48.13)"/><path class="cls-4" d="M183.87,467.19q-3.79-4.78-7.7-9.18,2,5.53,4.38,11.15A31.94,31.94,0,0,1,183.87,467.19Z" transform="translate(26.42 48.13)"/><path class="cls-4" d="M215.91,468.76q2.25-5.67,4.13-11.25-3.8,4.48-7.48,9.35A32,32,0,0,1,215.91,468.76Z" transform="translate(26.42 48.13)"/><path class="cls-4" d="M171.63,478.3Q166,476,160.38,474.17q4.48,3.8,9.35,7.48A32,32,0,0,1,171.63,478.3Z" transform="translate(26.42 48.13)"/><path class="cls-4" d="M227,481q4.78-3.79,9.18-7.7-5.53,2-11.15,4.38A32,32,0,0,1,227,481Z" transform="translate(26.42 48.13)"/><path class="cls-4" d="M242.33,495.67q-5.78-1.11-11.83-1.93c0,.64.06,1.28.06,1.93s0,1.29-.06,1.93Q236.55,496.78,242.33,495.67Z" transform="translate(26.42 48.13)"/><path class="cls-4" d="M213.2,524.14q3.79,4.78,7.7,9.18-2-5.53-4.38-11.15A32,32,0,0,1,213.2,524.14Z" transform="translate(26.42 48.13)"/><path class="cls-4" d="M225.44,513q5.67,2.25,11.25,4.13-4.48-3.8-9.35-7.48A32,32,0,0,1,225.44,513Z" transform="translate(26.42 48.13)"/><path class="cls-4" d="M198.54,527.7c-.65,0-1.29,0-1.93-.06q.82,6,1.93,11.83,1.11-5.78,1.93-11.83C199.83,527.67,199.18,527.7,198.54,527.7Z" transform="translate(26.42 48.13)"/><path class="cls-4" d="M181.17,522.57q-2.25,5.67-4.13,11.25,3.8-4.48,7.48-9.35A32,32,0,0,1,181.17,522.57Z" transform="translate(26.42 48.13)"/><path class="cls-4" d="M166.51,495.67c0-.65,0-1.29.06-1.93q-6,.82-11.83,1.93,5.78,1.11,11.83,1.93C166.53,497,166.51,496.32,166.51,495.67Z" transform="translate(26.42 48.13)"/><path class="cls-4" d="M170.06,510.33q-4.78,3.79-9.18,7.7,5.53-2,11.15-4.38A32,32,0,0,1,170.06,510.33Z" transform="translate(26.42 48.13)"/><circle class="cls-4" cx="224.96" cy="543.8" r="28.55"/><path class="cls-14" d="M105.89-2.85a6.27,6.27,0,0,1-5.78-5.78L99.25-19.9,98.39-8.63a6.27,6.27,0,0,1-5.78,5.78L81.34-2l11.27.86a6.27,6.27,0,0,1,5.78,5.78l.86,11.27.86-11.27a6.27,6.27,0,0,1,5.78-5.78L117.16-2Zm-4.67,1.57A2.23,2.23,0,0,0,100,0l-.71,1.8L98.54,0a2.23,2.23,0,0,0-1.26-1.26L95.48-2l1.8-.71A2.23,2.23,0,0,0,98.54-4l.71-1.8L100-4a2.23,2.23,0,0,0,1.26,1.26L103-2Z" transform="translate(26.42 48.13)"/><path class="cls-12" d="M516.71,1A15.14,15.14,0,0,1,515.16.9L517,32.13,518.59.8A15.12,15.12,0,0,1,516.71,1Z" transform="translate(26.42 48.13)"/><path class="cls-12" d="M531-10.45a14.92,14.92,0,0,1-2,4.67L543.76,26Z" transform="translate(26.42 48.13)"/><path class="cls-12" d="M502-9.93,490.52,26.9,504.25-5.35A14.91,14.91,0,0,1,502-9.93Z" transform="translate(26.42 48.13)"/><circle class="cls-13" cx="516.47" cy="-14.03" r="12.66" transform="translate(26.72 56.58) rotate(-0.94)"/><path class="cls-17" d="M418.63-35.61c19.81,10,30.52,22.81,28,31.19-1.66,5.5-8.74,8.12-10,8.57-7.8,2.71-13.73-.78-20.45-3.53a7.8,7.8,0,0,0,.67-3.38c-.18-4.61-4.7-8.66-12.07-11.66-5.29-4.76-17.08-12.16-29.7-16.13-22.82-7.18-44-1.79-55.9,2.56,29.38-8.13,43.81-3.93,51.56,2a102.47,102.47,0,0,0,8.66,6.41,130,130,0,0,0-13.64-.18A128.46,128.46,0,0,0,350-18.22C333.7-22.44,297.41-23.08,283.4-6A13.54,13.54,0,0,0,280,.87c-2.25,16.2,31.73,31.63,34.21,32.73-19.81-10-30.52-22.81-28-31.19,1.66-5.5,8.74-8.12,10-8.57,7.86-2.73,13.83.83,20.6,3.6a7.91,7.91,0,0,0-.81,3.7c.17,4.4,4.31,8.29,11.1,11.25,3.55,4.36,17.07,13.58,31.71,18.18,22.82,7.18,44,1.79,55.9-2.56-29.38,8.13-43.81,3.93-51.56-2a86,86,0,0,0-11.59-8.18,128.69,128.69,0,0,0,15.54.32,127.81,127.81,0,0,0,16.63-1.72c16.71,4,51.9,4.3,65.66-12.43a13.54,13.54,0,0,0,3.38-6.89C455.09-19.08,421.11-34.51,418.63-35.61ZM366.69,12.93c-20.12.78-36.66-4.73-37-12.31s15.77-14.36,35.89-15.14,36.66,4.73,37,12.31S386.81,12.15,366.69,12.93Z" transform="translate(26.42 48.13)"/><ellipse class="cls-18" cx="365.51" cy="-1.26" rx="22.16" ry="6.99" transform="translate(26.75 62.31) rotate(-2.22)"/><path class="cls-12" d="M16.71,1A15.14,15.14,0,0,1,15.16.9L17,32.13,18.59.8A15.12,15.12,0,0,1,16.71,1Z" transform="translate(26.42 48.13)"/><path class="cls-12" d="M31-10.45a14.92,14.92,0,0,1-2,4.67L43.76,26Z" transform="translate(26.42 48.13)"/><path class="cls-12" d="M2-9.93-9.48,26.9,4.25-5.35A14.91,14.91,0,0,1,2-9.93Z" transform="translate(26.42 48.13)"/><circle class="cls-13" cx="16.47" cy="-14.03" r="12.66" transform="translate(26.66 48.4) rotate(-0.94)"/><path class="cls-4" d="M198.54-36.36c.65,0,1.29,0,1.93.06q-.82-6-1.93-11.83-1.11,5.78-1.93,11.83C197.25-36.34,197.89-36.36,198.54-36.36Z" transform="translate(26.42 48.13)"/><path class="cls-4" d="M183.87-32.81q-3.79-4.78-7.7-9.18,2,5.53,4.38,11.15A31.94,31.94,0,0,1,183.87-32.81Z" transform="translate(26.42 48.13)"/><path class="cls-4" d="M215.91-31.24q2.25-5.67,4.13-11.25-3.8,4.48-7.48,9.35A32,32,0,0,1,215.91-31.24Z" transform="translate(26.42 48.13)"/><path class="cls-4" d="M171.63-21.7Q166-24,160.38-25.83q4.48,3.8,9.35,7.48A32,32,0,0,1,171.63-21.7Z" transform="translate(26.42 48.13)"/><path class="cls-4" d="M227-19q4.78-3.79,9.18-7.7-5.53,2-11.15,4.38A32,32,0,0,1,227-19Z" transform="translate(26.42 48.13)"/><path class="cls-4" d="M242.33-4.33q-5.78-1.11-11.83-1.93c0,.64.06,1.28.06,1.93s0,1.29-.06,1.93Q236.55-3.22,242.33-4.33Z" transform="translate(26.42 48.13)"/><path class="cls-4" d="M213.2,24.14q3.79,4.78,7.7,9.18-2-5.53-4.38-11.15A32,32,0,0,1,213.2,24.14Z" transform="translate(26.42 48.13)"/><path class="cls-4" d="M225.44,13q5.67,2.25,11.25,4.13-4.48-3.8-9.35-7.48A32,32,0,0,1,225.44,13Z" transform="translate(26.42 48.13)"/><path class="cls-4" d="M198.54,27.7c-.65,0-1.29,0-1.93-.06q.82,6,1.93,11.83,1.11-5.78,1.93-11.83C199.83,27.67,199.18,27.7,198.54,27.7Z" transform="translate(26.42 48.13)"/><path class="cls-4" d="M181.17,22.57q-2.25,5.67-4.13,11.25,3.8-4.48,7.48-9.35A32,32,0,0,1,181.17,22.57Z" transform="translate(26.42 48.13)"/><path class="cls-4" d="M166.51-4.33c0-.65,0-1.29.06-1.93q-6,.82-11.83,1.93,5.78,1.11,11.83,1.93C166.53-3,166.51-3.68,166.51-4.33Z" transform="translate(26.42 48.13)"/><path class="cls-4" d="M170.06,10.33q-4.78,3.79-9.18,7.7,5.53-2,11.15-4.38A32,32,0,0,1,170.06,10.33Z" transform="translate(26.42 48.13)"/><circle class="cls-4" cx="224.96" cy="43.8" r="28.55"/></g></svg>