<svg id="Layer_1" data-name="Layer 1" xmlns="http://www.w3.org/2000/svg" viewBox="0 0 71.31 87.51"><defs><style>.cls-1{fill:#fff;}</style></defs><title>blank-student</title><path class="cls-1" d="M18.06,35.82l-.63-.21-.58-.23a16,16,0,0,1-2.93-1.71l-.1-.08-.29-.24-.66-.58a16.56,16.56,0,0,1-1.21-1.27L11.26,31l-.45-.63a15.9,15.9,0,0,1-.89-1.51c-.13-.26-.26-.53-.38-.79V28l-.15-.4A2.35,2.35,0,0,0,6.56,26,2.31,2.31,0,0,0,5,28.85a18.75,18.75,0,0,0,11.88,11.4,2.31,2.31,0,0,0,1.22-4.46Z" transform="translate(-4.87 -2.34)"/><path class="cls-1" d="M63.13,32.49l.62-.21.57-.22a15.73,15.73,0,0,0,2.89-1.68l.1-.07.29-.24c.22-.19.44-.38.65-.58a16.3,16.3,0,0,0,1.21-1.25l.39-.47.44-.62a15.68,15.68,0,0,0,.89-1.49q.2-.39.38-.78v-.06l.15-.4a2.32,2.32,0,0,1,2.79-1.59,2.28,2.28,0,0,1,1.59,2.79A18.54,18.54,0,0,1,64.32,36.87a2.28,2.28,0,1,1-1.45-4.32l.24-.07Z" transform="translate(-4.87 -2.34)"/><path class="cls-1" d="M46.49,67.65,42.3,83.6s5.94,7.14,8.21,6.16S41,84.86,49.16,71.1C48.83,64.62,46.49,67.65,46.49,67.65Z" transform="translate(-4.87 -2.34)"/><path class="cls-1" d="M36.22,70l-8.36,14.2S18.6,85,17.7,82.71,27.88,86,31.89,70.53C36.73,66.19,36.22,70,36.22,70Z" transform="translate(-4.87 -2.34)"/><path class="cls-1" d="M37.57,2.63V10L29.3,5.18,31.23,11l-8.84-3.2,2.05,5.62-8,1.49,5,2.39-7.07,4.4L17.9,23.2l-4.1,5.14,3.07.32-3,9.82,2.57-1-1.7,7.37,2.43-.69L15.8,54l2.12-2.68,1.64,9.35,1.85-2.3,3,8.74,1.21-2.21,2.87,5.82,1.61-1.46,4.34,4.25.89-2.06,5.82,4.16,4.35-3.76v2l5.84-4.46s.63,2.79.94,2.68,5.17-7.71,5.17-7.71l1.95,2.54L62.48,57l2,3.15L64,47.88l3.35,2.68-2-12,3.27,1.33-4.6-12.15,3.36-.85-6.83-7.43,2-2.84-8-3,3.18-3.8-6.25.77,1.88-6.43L46.89,9.44l-.07-7.1L42.35,9Z" transform="translate(-4.87 -2.34)"/><path class="cls-1" d="M61,39c0,8.11-4.92,16.57-11.94,19.56h0a19.4,19.4,0,0,1-4.55,1.3,19.71,19.71,0,0,1-3.1.29A12.82,12.82,0,0,1,40,60.06C39.5,60,39,60,38.56,59.91l-.89-.15A19.53,19.53,0,0,1,35,59q-.5-.17-1-.37C26.8,55.75,21.76,47.21,21.76,39h0A18.12,18.12,0,0,0,29,40.45H53.8a17.86,17.86,0,0,0,6.65-1.29Z" transform="translate(-4.87 -2.34)"/><path class="cls-1" d="M38.29,40.44v5.71A1.56,1.56,0,0,1,37,47.92l-.22,0H31.22a1.55,1.55,0,0,1-1.54-1.79V40.44Z" transform="translate(-4.87 -2.34)"/><path class="cls-1" d="M53.2,40.44v5.71c0,1-.46,1.79-1.45,1.79H46.23c-1,0-2.21-.76-2.21-1.79V40.44Z" transform="translate(-4.87 -2.34)"/><path class="cls-1" d="M38.29,57.89v2a38.3,38.3,0,0,1-4.59-1.23v-.78a2.2,2.2,0,0,1,2.07-2h.94a1.79,1.79,0,0,1,1.58,2Z" transform="translate(-4.87 -2.34)"/><path class="cls-1" d="M48.61,57.89v.71c-.57.61-2.29,1.05-4,1.3v-2a1.86,1.86,0,0,1,1.69-2h.94C48.21,55.92,48.61,56.9,48.61,57.89Z" transform="translate(-4.87 -2.34)"/><circle class="cls-1" cx="26.55" cy="29.82" r="7.96" transform="translate(-12.1 6.19) rotate(-16.1)"/><circle class="cls-1" cx="26.55" cy="29.82" r="4.89" transform="translate(-12.1 6.19) rotate(-16.1)"/><circle class="cls-1" cx="26.55" cy="29.82" r="2.56" transform="translate(-12.1 6.19) rotate(-16.1)"/><circle class="cls-1" cx="27.5" cy="26.4" r="2.01" transform="translate(-11.11 6.31) rotate(-16.09)"/><circle class="cls-1" cx="47.52" cy="23.78" r="7.96" transform="translate(-9.6 11.77) rotate(-16.1)"/><circle class="cls-1" cx="47.52" cy="23.78" r="4.89" transform="translate(-9.6 11.77) rotate(-16.1)"/><circle class="cls-1" cx="47.52" cy="23.78" r="2.56" transform="translate(-9.6 11.77) rotate(-16.1)"/><circle class="cls-1" cx="44.89" cy="21.39" r="2.01" transform="translate(-9.04 10.94) rotate(-16.1)"/></svg>