<svg id="Layer_1" data-name="Layer 1" xmlns="http://www.w3.org/2000/svg" viewBox="0 0 75 72"><defs><style>.cls-1{fill:#fff;}</style></defs><title>blank_campus</title><path class="cls-1" d="M81.81,49.37,74.9,37.53a2.57,2.57,0,0,0-2.14-1.32H56.16V28.16A2.57,2.57,0,0,0,54.85,26l-7.56-4.44v-3h8.05a2.53,2.53,0,0,0,2.47-2.47V10.9a2.53,2.53,0,0,0-2.47-2.47H47a2.37,2.37,0,0,0-2.14-1.32,2.53,2.53,0,0,0-2.47,2.47V21.75l-7.56,4.44a2.57,2.57,0,0,0-1.32,2.14v8.05H16.88a2.57,2.57,0,0,0-2.14,1.32L7.67,49.86a2.24,2.24,0,0,0,0,2.47,2.57,2.57,0,0,0,2.14,1.32h5.1v23a2.53,2.53,0,0,0,2.47,2.47h54.9a2.53,2.53,0,0,0,2.47-2.47v-23h5.1a2.53,2.53,0,0,0,2.47-2.47A2.64,2.64,0,0,0,81.81,49.37ZM30.28,67a.78.78,0,0,1-.82.82H26.17a.78.78,0,0,1-.82-.82V63.71a.78.78,0,0,1,.82-.82h3.29a.78.78,0,0,1,.82.82Zm0-6.41a.78.78,0,0,1-.82.82H26.17a.78.78,0,0,1-.82-.82V57.3a.78.78,0,0,1,.82-.82h3.29a.78.78,0,0,1,.82.82ZM37,67a.78.78,0,0,1-.82.82H32.91a.78.78,0,0,1-.82-.82V63.71a.78.78,0,0,1,.82-.82H36.2a.78.78,0,0,1,.82.82Zm0-6.41a.78.78,0,0,1-.82.82H32.91a.78.78,0,0,1-.82-.82V57.3a.78.78,0,0,1,.82-.82H36.2a.78.78,0,0,1,.82.82ZM51.23,36.05H38.41V29.64h0L44.82,26l6.41,3.62ZM61.35,67a.78.78,0,0,1-.82.82H57.24a.78.78,0,0,1-.82-.82V63.71a.78.78,0,0,1,.82-.82h3.29a.78.78,0,0,1,.82.82Zm0-6.41a.78.78,0,0,1-.82.82H57.24a.78.78,0,0,1-.82-.82V57.3a.78.78,0,0,1,.82-.82h3.29a.78.78,0,0,1,.82.82ZM68.09,67a.78.78,0,0,1-.82.82H64a.78.78,0,0,1-.82-.82V63.71a.78.78,0,0,1,.82-.82h3.29a.78.78,0,0,1,.82.82Zm0-6.41a.78.78,0,0,1-.82.82H64a.78.78,0,0,1-.82-.82V57.3a.78.78,0,0,1,.82-.82h3.29a.78.78,0,0,1,.82.82Z" transform="translate(-7.3 -7.12)"/></svg>